<svg width="162" height="162" viewBox="0 0 162 162" fill="none" xmlns="http://www.w3.org/2000/svg">
<path d="M61.9581 74.5858C64.5844 71.8592 67.734 69.6908 71.2183 68.2104C74.7026 66.7301 78.4499 65.9683 82.2356 65.9707C89.6093 65.9707 96.9453 68.8299 102.513 74.5858C113.686 86.0601 113.686 104.72 102.513 116.194C99.8892 118.924 96.7401 121.094 93.2552 122.575C89.7704 124.056 86.0219 124.816 82.2356 124.809C74.5986 124.809 67.3755 121.762 61.9581 116.194C56.5419 110.628 53.529 103.157 53.5687 95.39C53.5687 87.5273 56.5408 80.1537 61.9581 74.5858ZM87.653 86.6244L84.5305 80.1537C83.59 78.1974 80.8813 78.1974 79.8655 80.1537L76.743 86.6244C76.3668 87.4144 75.652 87.9411 74.8244 88.054L67.8646 89.1074C65.7954 89.4083 64.9678 92.0418 66.4726 93.5466L71.288 98.362C72.0028 99.0768 72.2662 100.13 71.9276 101.108L69.708 107.541C68.9556 109.686 71.0999 111.717 73.1314 110.814L81.1822 107.203C81.8218 106.902 82.5742 106.902 83.2138 107.203L91.2646 110.814C93.3337 111.717 95.4404 109.686 94.688 107.541L92.4684 101.108C92.3143 100.636 92.2924 100.13 92.4051 99.646C92.5179 99.1619 92.7609 98.7179 93.108 98.362L97.9234 93.5466C99.4658 92.0418 98.6006 89.4083 96.5314 89.1074L89.5716 88.054C89.1603 87.988 88.771 87.8235 88.4369 87.5746C88.1028 87.3257 87.8339 86.9997 87.653 86.6244Z" fill="url(#paint0_linear_454_17522)"/>
<path d="M43.5537 28.8008L43.565 28.8196H67.0215C69.542 28.8196 71.8068 30.0799 73.0483 32.2619L82.2728 47.4305L91.4786 32.2995C92.7577 30.1175 95.0526 28.8008 97.5731 28.8008H105.248L105.236 28.8196H122.395C127.813 28.8196 131.206 34.6696 128.497 39.4474C123.557 48.2261 116.56 55.6748 108.107 61.1545C106.779 62.1853 105.312 62.9979 103.754 63.5735C113.573 70.5634 120.006 82.207 120.006 95.3892C120.006 116.769 103.092 134.101 82.2352 134.101C61.3709 134.101 44.4642 116.769 44.4642 95.3892C44.4642 82.1806 50.9161 70.5145 60.7689 63.5283C59.203 62.9523 57.735 62.139 56.4162 61.1169C47.9892 55.6243 40.9918 48.1754 36.0259 39.4098C33.3548 34.6696 36.7783 28.8008 42.2333 28.8008H43.55H43.5537ZM69.6248 58.8897C71.8128 58.0944 74.0714 57.5086 76.3702 57.1404L76.9119 56.2525L61.7207 32.5252H45.732C51.7689 42.3614 59.545 51.0171 68.6805 58.0696C68.9928 58.3517 69.305 58.6226 69.6248 58.8897ZM118.923 32.5252H102.859L87.1635 57.0049C89.8096 57.3575 92.4094 57.9971 94.9171 58.9123C95.2478 58.6398 95.5715 58.3588 95.8877 58.0696C105.053 51.0236 112.859 42.3676 118.923 32.5252ZM58.7976 119.466C61.836 122.625 65.482 125.137 69.5163 126.85C73.5506 128.564 77.8898 129.443 82.2728 129.436C91.1137 129.436 99.4654 125.899 105.786 119.466C118.727 106.186 118.727 84.5921 105.786 71.312C102.737 68.1617 99.0865 65.6566 95.0504 63.9458C91.0143 62.235 86.6754 61.3533 82.2917 61.3533C77.9079 61.3533 73.569 62.235 69.5329 63.9458C65.4968 65.6566 61.846 68.1617 58.7976 71.312C52.5123 77.7458 49.0121 86.395 49.0539 95.3892C49.0539 104.493 52.515 113.033 58.7976 119.466Z" fill="url(#paint1_linear_454_17522)"/>
<path fill-rule="evenodd" clip-rule="evenodd" d="M161.1 80.55C161.1 125.037 125.037 161.1 80.55 161.1C36.0635 161.1 0 125.037 0 80.55C0 36.0635 36.0635 0 80.55 0C125.037 0 161.1 36.0635 161.1 80.55ZM80.55 156.948C122.743 156.948 156.948 122.743 156.948 80.55C156.948 38.3566 122.743 4.1521 80.55 4.1521C38.3566 4.1521 4.15206 38.3566 4.15206 80.55C4.15206 122.743 38.3566 156.948 80.55 156.948Z" fill="url(#paint2_linear_454_17522)"/>
<circle opacity="0.2" cx="81.9008" cy="81.9008" r="75.6" fill="url(#paint3_linear_454_17522)"/>
<defs>
<linearGradient id="paint0_linear_454_17522" x1="54.0559" y1="77.7731" x2="117.072" y2="110.603" gradientUnits="userSpaceOnUse">
<stop stop-color="#F26921"/>
<stop offset="1" stop-color="#ED1065"/>
</linearGradient>
<linearGradient id="paint1_linear_454_17522" x1="35.902" y1="49.9229" x2="143.15" y2="101.307" gradientUnits="userSpaceOnUse">
<stop stop-color="#F26921"/>
<stop offset="1" stop-color="#ED1065"/>
</linearGradient>
<linearGradient id="paint2_linear_454_17522" x1="26.1" y1="21.6" x2="138.6" y2="138.6" gradientUnits="userSpaceOnUse">
<stop stop-color="#F26921"/>
<stop offset="1" stop-color="#ED1065"/>
</linearGradient>
<linearGradient id="paint3_linear_454_17522" x1="7.58664" y1="36.6299" x2="171.922" y2="124.504" gradientUnits="userSpaceOnUse">
<stop stop-color="#F26921"/>
<stop offset="1" stop-color="#ED1065"/>
</linearGradient>
</defs>
</svg>
