<svg width="27" height="27" viewBox="0 0 27 27" fill="none" xmlns="http://www.w3.org/2000/svg">
<g clip-path="url(#clip0_454_19172)">
<path d="M22.4787 6.62891H16.7188V8.05858H22.4787V23.0702H16.7188V24.4998H23.9187V8.05858C23.9187 7.67941 23.767 7.31576 23.497 7.04765C23.2269 6.77953 22.8607 6.62891 22.4787 6.62891Z" fill="#800000"/>
<path d="M14.4727 3.05469H4.56546C4.16064 3.05469 3.77239 3.21435 3.48613 3.49855C3.19988 3.78276 3.03906 4.16822 3.03906 4.57014V24.4998H15.9991V4.57014C15.9991 4.16822 15.8382 3.78276 15.552 3.49855C15.2657 3.21435 14.8775 3.05469 14.4727 3.05469ZM14.5591 23.0701H12.3991V20.9256H6.63906V23.0701H4.47906V4.57014C4.47906 4.55888 4.4813 4.54772 4.48564 4.53732C4.48998 4.52691 4.49635 4.51745 4.50437 4.50949C4.51239 4.50152 4.52192 4.4952 4.5324 4.49089C4.54288 4.48658 4.55412 4.48436 4.56546 4.48436H14.4727C14.484 4.48436 14.4952 4.48658 14.5057 4.49089C14.5162 4.4952 14.5257 4.50152 14.5338 4.50949C14.5418 4.51745 14.5481 4.52691 14.5525 4.53732C14.5568 4.54772 14.5591 4.55888 14.5591 4.57014V23.0701Z" fill="#800000"/>
<path d="M5.91992 6.62891H7.35992V8.05858H5.91992V6.62891Z" fill="#800000"/>
<path d="M8.80078 6.62891H10.2408V8.05858H8.80078V6.62891Z" fill="#800000"/>
<path d="M11.6797 6.62891H13.1197V8.05858H11.6797V6.62891Z" fill="#800000"/>
<path d="M5.91992 10.2031H7.35992V11.6328H5.91992V10.2031Z" fill="#800000"/>
<path d="M8.80078 10.2031H10.2408V11.6328H8.80078V10.2031Z" fill="#800000"/>
<path d="M11.6797 10.2031H13.1197V11.6328H11.6797V10.2031Z" fill="#800000"/>
<path d="M5.91992 13.7773H7.35992V15.207H5.91992V13.7773Z" fill="#800000"/>
<path d="M8.80078 13.7773H10.2408V15.207H8.80078V13.7773Z" fill="#800000"/>
<path d="M11.6797 13.7773H13.1197V15.207H11.6797V13.7773Z" fill="#800000"/>
<path d="M5.91992 17.3516H7.35992V18.7812H5.91992V17.3516Z" fill="#800000"/>
<path d="M8.80078 17.3516H10.2408V18.7812H8.80078V17.3516Z" fill="#800000"/>
<path d="M11.6797 17.3516H13.1197V18.7812H11.6797V17.3516Z" fill="#800000"/>
<path d="M16.7188 10.2031H18.1587V11.6328H16.7188V10.2031Z" fill="#800000"/>
<path d="M19.5996 10.2031H21.0396V11.6328H19.5996V10.2031Z" fill="#800000"/>
<path d="M16.7188 13.7773H18.1587V15.207H16.7188V13.7773Z" fill="#800000"/>
<path d="M19.5996 13.7773H21.0396V15.207H19.5996V13.7773Z" fill="#800000"/>
<path d="M16.7188 17.3516H18.1587V18.7812H16.7188V17.3516Z" fill="#800000"/>
<path d="M19.5996 17.3516H21.0396V18.7812H19.5996V17.3516Z" fill="#800000"/>
</g>
<defs>
<clipPath id="clip0_454_19172">
<rect width="25.92" height="25.7341" fill="white" transform="translate(0.160156 0.910156)"/>
</clipPath>
</defs>
</svg>
