<svg width="413" height="410" viewBox="0 0 413 410" fill="none" xmlns="http://www.w3.org/2000/svg">
<path d="M100 185H180C191.046 185 200 193.954 200 205V346.483H100V185Z" fill="#4DC0EC"/>
<path d="M100 185L186.603 346.25H13.3975L100 185Z" fill="#4DC0EC"/>
<path d="M313 185L233 185C221.954 185 213 193.954 213 205L213 346.483H313L313 185Z" fill="#F04323"/>
<path d="M313 185L226.397 346.25L399.603 346.25L313 185Z" fill="#F04323"/>
<path fill-rule="evenodd" clip-rule="evenodd" d="M309 173.25L213.804 0H213V153.25C213 164.296 221.954 173.25 233 173.25H309Z" fill="#F7ED33"/>
<path fill-rule="evenodd" clip-rule="evenodd" d="M105 173.25L199.204 0H200V153.25C200 164.296 191.046 173.25 180 173.25H105Z" fill="#89C541"/>
<path d="M24.6719 409H17.4219L28.4688 377H37.1875L48.2188 409H40.9688L32.9531 384.312H32.7031L24.6719 409ZM24.2188 396.422H41.3438V401.703H24.2188V396.422ZM68.6992 386.203C68.5742 384.943 68.0378 383.964 67.0898 383.266C66.1419 382.568 64.8555 382.219 63.2305 382.219C62.1263 382.219 61.194 382.375 60.4336 382.687C59.6732 382.99 59.0898 383.411 58.6836 383.953C58.2878 384.495 58.0898 385.109 58.0898 385.797C58.069 386.37 58.1888 386.87 58.4492 387.297C58.7201 387.724 59.0898 388.094 59.5586 388.406C60.0273 388.708 60.569 388.974 61.1836 389.203C61.7982 389.422 62.4544 389.609 63.1523 389.766L66.0273 390.453C67.4232 390.766 68.7044 391.182 69.8711 391.703C71.0378 392.224 72.0482 392.865 72.9023 393.625C73.7565 394.385 74.418 395.281 74.8867 396.312C75.3659 397.344 75.6107 398.526 75.6211 399.859C75.6107 401.818 75.1107 403.516 74.1211 404.953C73.1419 406.38 71.7253 407.49 69.8711 408.281C68.0273 409.062 65.8034 409.453 63.1992 409.453C60.6159 409.453 58.3659 409.057 56.4492 408.266C54.543 407.474 53.0534 406.302 51.9805 404.75C50.918 403.187 50.3607 401.255 50.3086 398.953H56.8555C56.9284 400.026 57.2357 400.922 57.7773 401.641C58.3294 402.349 59.0638 402.885 59.9805 403.25C60.9076 403.604 61.9544 403.781 63.1211 403.781C64.2669 403.781 65.2617 403.615 66.1055 403.281C66.9596 402.948 67.6211 402.484 68.0898 401.891C68.5586 401.297 68.793 400.615 68.793 399.844C68.793 399.125 68.5794 398.521 68.1523 398.031C67.7357 397.542 67.1211 397.125 66.3086 396.781C65.5065 396.437 64.5221 396.125 63.3555 395.844L59.8711 394.969C57.1732 394.312 55.043 393.286 53.4805 391.891C51.918 390.495 51.1419 388.615 51.1523 386.25C51.1419 384.312 51.6576 382.62 52.6992 381.172C53.7513 379.724 55.194 378.594 57.0273 377.781C58.8607 376.969 60.944 376.562 63.2773 376.562C65.6523 376.562 67.7253 376.969 69.4961 377.781C71.2773 378.594 72.6628 379.724 73.6523 381.172C74.6419 382.62 75.1523 384.297 75.1836 386.203H68.6992ZM80.1719 409V377H92.7969C95.224 377 97.2917 377.464 99 378.391C100.708 379.307 102.01 380.583 102.906 382.219C103.813 383.844 104.266 385.719 104.266 387.844C104.266 389.969 103.807 391.844 102.891 393.469C101.974 395.094 100.646 396.359 98.9063 397.266C97.1771 398.172 95.0833 398.625 92.625 398.625H84.5781V393.203H91.5313C92.8333 393.203 93.9063 392.979 94.75 392.531C95.6042 392.073 96.2396 391.443 96.6563 390.641C97.0833 389.828 97.2969 388.896 97.2969 387.844C97.2969 386.781 97.0833 385.854 96.6563 385.062C96.2396 384.26 95.6042 383.641 94.75 383.203C93.8958 382.755 92.8125 382.531 91.5 382.531H86.9375V409H80.1719ZM115.426 377V409H108.66V377H115.426ZM120.992 409V377H133.617C136.034 377 138.096 377.432 139.805 378.297C141.523 379.151 142.831 380.365 143.727 381.938C144.633 383.5 145.086 385.339 145.086 387.453C145.086 389.578 144.628 391.406 143.711 392.937C142.794 394.458 141.466 395.625 139.727 396.437C137.997 397.25 135.904 397.656 133.445 397.656H124.992V392.219H132.352C133.643 392.219 134.716 392.042 135.57 391.688C136.424 391.333 137.06 390.802 137.477 390.094C137.904 389.385 138.117 388.505 138.117 387.453C138.117 386.391 137.904 385.495 137.477 384.766C137.06 384.036 136.419 383.484 135.555 383.109C134.701 382.724 133.622 382.531 132.32 382.531H127.758V409H120.992ZM138.273 394.438L146.227 409H138.758L130.977 394.438H138.273ZM149.867 409V377H171.43V382.578H156.633V390.203H170.32V395.781H156.633V403.422H171.492V409H149.867ZM185.773 382.578V377H212.055V382.578H202.258V409H195.57V382.578H185.773ZM244.328 393C244.328 396.49 243.667 399.458 242.344 401.906C241.031 404.354 239.24 406.224 236.969 407.516C234.708 408.797 232.167 409.437 229.344 409.437C226.5 409.437 223.948 408.792 221.688 407.5C219.427 406.208 217.641 404.339 216.328 401.891C215.016 399.443 214.359 396.479 214.359 393C214.359 389.51 215.016 386.542 216.328 384.094C217.641 381.646 219.427 379.781 221.688 378.5C223.948 377.208 226.5 376.562 229.344 376.562C232.167 376.562 234.708 377.208 236.969 378.5C239.24 379.781 241.031 381.646 242.344 384.094C243.667 386.542 244.328 389.51 244.328 393ZM237.469 393C237.469 390.74 237.13 388.833 236.453 387.281C235.786 385.729 234.844 384.552 233.625 383.75C232.406 382.948 230.979 382.547 229.344 382.547C227.708 382.547 226.281 382.948 225.063 383.75C223.844 384.552 222.896 385.729 222.219 387.281C221.552 388.833 221.219 390.74 221.219 393C221.219 395.26 221.552 397.167 222.219 398.719C222.896 400.271 223.844 401.448 225.063 402.25C226.281 403.052 227.708 403.453 229.344 403.453C230.979 403.453 232.406 403.052 233.625 402.25C234.844 401.448 235.786 400.271 236.453 398.719C237.13 397.167 237.469 395.26 237.469 393ZM259.523 409V377H281.086V382.578H266.289V390.203H279.977V395.781H266.289V403.422H281.148V409H259.523ZM292.809 377L299.262 387.906H299.512L305.996 377H313.637L303.871 393L313.855 409H306.074L299.512 398.078H299.262L292.699 409H284.949L294.965 393L285.137 377H292.809ZM344.648 388.203H337.805C337.68 387.318 337.424 386.531 337.039 385.844C336.654 385.146 336.159 384.552 335.555 384.062C334.951 383.573 334.253 383.198 333.461 382.937C332.68 382.677 331.831 382.547 330.914 382.547C329.258 382.547 327.815 382.958 326.586 383.781C325.357 384.594 324.404 385.781 323.727 387.344C323.049 388.896 322.711 390.781 322.711 393C322.711 395.281 323.049 397.198 323.727 398.75C324.414 400.302 325.372 401.474 326.602 402.266C327.831 403.057 329.253 403.453 330.867 403.453C331.773 403.453 332.612 403.333 333.383 403.094C334.164 402.854 334.857 402.505 335.461 402.047C336.065 401.578 336.565 401.01 336.961 400.344C337.367 399.677 337.648 398.917 337.805 398.062L344.648 398.094C344.471 399.562 344.029 400.979 343.32 402.344C342.622 403.698 341.68 404.911 340.492 405.984C339.315 407.047 337.909 407.891 336.273 408.516C334.648 409.13 332.81 409.437 330.758 409.437C327.904 409.437 325.352 408.792 323.102 407.5C320.862 406.208 319.091 404.339 317.789 401.891C316.497 399.443 315.852 396.479 315.852 393C315.852 389.51 316.508 386.542 317.82 384.094C319.133 381.646 320.914 379.781 323.164 378.5C325.414 377.208 327.945 376.562 330.758 376.562C332.612 376.562 334.331 376.823 335.914 377.344C337.508 377.865 338.919 378.625 340.148 379.625C341.378 380.615 342.378 381.828 343.148 383.266C343.93 384.703 344.43 386.349 344.648 388.203ZM349.5 409V377H371.063V382.578H356.266V390.203H369.953V395.781H356.266V403.422H371.125V409H349.5ZM376.441 409V377H383.207V403.422H396.926V409H376.441Z" fill="black"/>
</svg>
