<svg width="26" height="26" viewBox="0 0 26 26" fill="none" xmlns="http://www.w3.org/2000/svg">
<path d="M21.5462 22.6385C19.2242 22.6385 16.9609 22.1245 14.7563 21.0966C12.5516 20.0686 10.5986 18.7105 8.89727 17.022C7.19591 15.3336 5.82791 13.3946 4.79327 11.205C3.75863 9.01548 3.24095 6.76839 3.24023 4.46376C3.24023 4.14208 3.34823 3.87402 3.56423 3.65957C3.78023 3.44512 4.05023 3.33789 4.37423 3.33789H8.74823C9.00023 3.33789 9.22523 3.41831 9.42323 3.57915C9.62123 3.73999 9.73823 3.9455 9.77423 4.19569L10.4762 7.94859C10.5122 8.19878 10.5076 8.42682 10.4622 8.63269C10.4168 8.83856 10.3135 9.02156 10.1522 9.18168L7.56023 11.8087C8.31623 13.0954 9.26123 14.3017 10.3952 15.4276C11.5292 16.5534 12.7802 17.5274 14.1482 18.3495L16.6862 15.8297C16.8482 15.6688 17.0599 15.5484 17.3213 15.4683C17.5826 15.3883 17.839 15.3657 18.0902 15.4008L21.8162 16.1513C22.0682 16.205 22.2752 16.3258 22.4372 16.5138C22.5992 16.7018 22.6802 16.9205 22.6802 17.17V21.5126C22.6802 21.8343 22.5722 22.1024 22.3562 22.3168C22.1402 22.5313 21.8702 22.6385 21.5462 22.6385Z" fill="#800000"/>
</svg>
