<svg width="99" height="77" viewBox="0 0 99 77" fill="none" xmlns="http://www.w3.org/2000/svg">
<path d="M27.1242 45.0507C27.7659 44.8674 28.4076 44.4091 28.8659 45.0507C29.3242 45.6924 28.8659 46.3341 28.4992 46.7924C26.0242 52.9341 22.0826 57.9757 16.9492 62.2841C14.3826 64.5757 11.1742 66.3174 8.24089 68.2424C5.94922 69.7091 5.49089 72.2757 6.77422 74.4757C7.87422 76.5841 10.3492 77.2257 12.7326 76.2174C13.7409 75.7591 14.6576 75.2091 15.4826 74.7507C22.7242 70.4424 29.0492 64.9424 34.4576 58.5257C44.8159 46.1507 48.1159 32.1257 43.5326 16.5424C40.4159 6.00074 29.6909 -0.41593 19.0576 1.23407C8.14922 3.0674 0.449219 12.0507 0.449219 23.1424C0.540885 37.4424 12.9159 47.6174 27.1242 45.0507ZM80.1992 45.0507C80.8409 44.8674 81.4826 44.4091 81.9409 45.0507C82.3992 45.6924 81.9409 46.3341 81.5742 46.7924C79.0992 52.9341 75.1576 57.9757 70.0242 62.2841C67.4576 64.5757 64.2492 66.3174 61.3159 68.2424C59.0242 69.7091 58.5659 72.2757 59.8492 74.4757C60.9492 76.5841 63.4242 77.2257 65.8075 76.2174C66.8159 75.7591 67.7326 75.2091 68.5575 74.7507C75.8909 70.4424 82.1242 64.9424 87.6242 58.5257C97.9826 46.1507 101.283 32.1257 96.6076 16.5424C93.4909 6.00074 82.7659 -0.41593 72.1326 1.23407C61.2242 2.97574 53.5242 12.0507 53.5242 23.1424C53.7992 37.4424 66.1742 47.6174 80.1992 45.0507Z" fill="#E4185B"/>
</svg>
