<svg width="20" height="20" viewBox="0 0 20 20" fill="none" xmlns="http://www.w3.org/2000/svg">
<path d="M9.16704 16.6673C8.93093 16.6673 8.73287 16.5873 8.57287 16.4273C8.41287 16.2673 8.33315 16.0695 8.33371 15.834V10.834L3.50037 4.66732C3.29204 4.38954 3.26065 4.09787 3.40621 3.79232C3.55176 3.48676 3.80537 3.33398 4.16704 3.33398H15.8337C16.1948 3.33398 16.4484 3.48676 16.5945 3.79232C16.7407 4.09787 16.7093 4.38954 16.5004 4.66732L11.667 10.834V15.834C11.667 16.0701 11.587 16.2682 11.427 16.4282C11.267 16.5882 11.0693 16.6679 10.8337 16.6673H9.16704Z" fill="#800000"/>
</svg>
