<svg width="30" height="30" viewBox="0 0 30 30" fill="none" xmlns="http://www.w3.org/2000/svg">
<path d="M19.375 17.5H18.3875L18.0375 17.1625C19.3048 15.6925 20.0014 13.8159 20 11.875C20 10.268 19.5235 8.69714 18.6307 7.361C17.7379 6.02485 16.469 4.98344 14.9843 4.36848C13.4997 3.75352 11.866 3.59262 10.2899 3.90612C8.7138 4.21963 7.26606 4.99346 6.12976 6.12976C4.99346 7.26606 4.21963 8.7138 3.90612 10.2899C3.59262 11.866 3.75352 13.4997 4.36848 14.9843C4.98344 16.469 6.02485 17.7379 7.361 18.6307C8.69714 19.5235 10.268 20 11.875 20C13.8875 20 15.7375 19.2625 17.1625 18.0375L17.5 18.3875V19.375L23.75 25.6125L25.6125 23.75L19.375 17.5ZM11.875 17.5C8.7625 17.5 6.25 14.9875 6.25 11.875C6.25 8.7625 8.7625 6.25 11.875 6.25C14.9875 6.25 17.5 8.7625 17.5 11.875C17.5 14.9875 14.9875 17.5 11.875 17.5Z" fill="url(#paint0_linear_471_8372)"/>
<defs>
<linearGradient id="paint0_linear_471_8372" x1="3.93593" y1="8.13539" x2="27.6977" y2="20.8414" gradientUnits="userSpaceOnUse">
<stop stop-color="#F26921"/>
<stop offset="1" stop-color="#ED1065"/>
</linearGradient>
</defs>
</svg>
