<svg width="101" height="78" viewBox="0 0 101 78" fill="none" xmlns="http://www.w3.org/2000/svg">
<path d="M88.9174 0.701172C90.9341 0.701172 92.6757 1.70951 93.6841 3.54284C95.3341 6.29284 94.6007 9.40951 91.8507 11.1512C91.0257 11.7012 90.2007 12.2512 89.2841 12.7095C87.1757 13.9928 85.1591 15.2762 83.3257 16.8345C78.1924 21.2345 74.5257 26.0928 72.2341 31.6845L72.0507 31.9595C72.1424 31.9595 72.1424 31.9595 72.2341 31.9595H72.3257C79.3841 30.6762 86.4424 32.4178 91.6674 36.8178C96.9841 41.1262 100.009 47.6345 100.009 54.6928C100.009 66.1512 92.1257 75.5012 80.7591 77.5178C69.4841 79.1678 58.4841 72.3845 55.2757 61.5678C50.6924 45.9845 53.8091 31.6845 64.4424 19.0345C70.1257 12.3428 76.5424 6.84284 83.5091 2.71784L84.0591 2.35117C84.7007 1.98451 85.5257 1.52617 86.3507 1.15951C87.1757 0.884505 88.0924 0.701172 88.9174 0.701172ZM70.2174 30.7678C72.6924 24.9012 76.4507 19.7678 81.8591 15.1845C83.7841 13.5345 85.9841 12.1595 88.0924 10.7845C88.9174 10.2345 89.7424 9.77617 90.5674 9.22617C92.3091 8.12617 92.6757 6.3845 91.6674 4.64284C90.8424 3.0845 89.0091 2.62617 87.2674 3.3595C86.5341 3.72617 85.8007 4.09284 85.1591 4.4595L84.6091 4.73451C77.9174 8.67617 71.6841 13.9928 66.2757 20.5012C56.1924 32.5095 53.1674 46.0762 57.4757 60.8345C60.4091 70.5512 70.2174 76.6928 80.3924 75.2262C90.6591 73.4845 97.7174 65.0512 97.7174 54.6928C97.7174 48.3678 94.9674 42.4095 90.2007 38.5595C85.4341 34.6178 79.1091 33.0595 72.7841 34.1595C72.6924 34.1595 72.6007 34.2512 72.5091 34.2512C72.0507 34.4345 70.6757 34.8928 69.8507 33.7012C69.3007 32.8762 69.3924 31.8678 70.2174 30.7678ZM36.4841 0.701172C38.5007 0.701172 40.2424 1.70951 41.2507 3.54284C42.8091 6.29284 42.0757 9.40951 39.4174 11.1512C38.5924 11.7012 37.7674 12.2512 36.8507 12.7095C34.7424 13.9928 32.7257 15.2762 30.8924 16.8345C25.7591 21.3262 22.1841 26.1845 19.8924 31.7762L19.7091 32.0512C19.8007 32.0512 19.8007 32.0512 19.8924 32.0512H19.9841C26.8591 30.7678 33.8257 32.5095 39.0507 36.8178C44.3674 41.1262 47.4841 47.7262 47.6674 54.7845C47.6674 66.3345 39.6924 75.6845 28.4174 77.6095C17.1424 79.2595 6.1424 72.4762 2.93406 61.6595C-1.64927 46.1678 1.37573 31.8678 12.0091 19.1262C17.9674 12.1595 24.2007 6.84284 31.0757 2.8095L31.6257 2.53451C32.2674 2.16784 33.0924 1.70951 33.9174 1.34284C34.7424 0.884505 35.6591 0.701172 36.4841 0.701172ZM17.7841 30.7678C20.2591 24.9012 24.0174 19.7678 29.4257 15.1845C31.3507 13.5345 33.5507 12.1595 35.6591 10.7845C36.4841 10.2345 37.3091 9.77617 38.1341 9.22617C39.8757 8.12617 40.2424 6.3845 39.2341 4.64284C38.4091 3.0845 36.5757 2.62617 34.8341 3.3595C34.1007 3.72617 33.3674 4.09284 32.7257 4.4595L32.1757 4.73451C25.4841 8.5845 19.4341 13.8095 13.6591 20.5012C3.48406 32.5095 0.642398 46.0762 4.95073 60.8345C7.88406 70.4595 17.6924 76.6928 27.8674 75.1345C38.0424 73.4845 45.1924 65.0512 45.1924 54.6012C45.1007 48.1845 42.2591 42.2262 37.4924 38.3762C32.7257 34.4345 26.5841 32.9678 20.3507 34.1595C20.2591 34.1595 20.1674 34.2512 20.0757 34.2512C19.6174 34.4345 18.2424 34.8928 17.4174 33.7012C16.8674 32.8762 16.9591 31.8678 17.7841 30.7678Z" fill="#FFB300"/>
</svg>
