<svg width="157" height="98" viewBox="0 0 157 98" fill="none" xmlns="http://www.w3.org/2000/svg">
<g opacity="0.2">
<path d="M102.699 95.9395C100.224 96.4345 97.7495 96.7644 95.4395 97.0944C97.9145 96.7644 100.224 96.4345 102.699 95.9395Z" fill="url(#paint0_linear_997_3564)"/>
<path d="M150.714 67.0639C152.199 66.2389 153.354 64.5889 153.354 62.7739C153.354 60.9589 152.199 59.3089 150.714 58.4839C150.549 58.3189 150.384 58.1539 150.384 57.8239L150.054 39.5089V39.3439C153.024 38.1889 153.024 34.064 150.054 32.909L82.0736 7.82898C80.4236 7.16898 78.7736 7.16898 77.1236 7.82898L9.47359 32.414C6.50359 33.569 6.50359 37.694 9.47359 38.849L30.0986 46.4389C30.4286 46.6039 30.5936 46.7689 30.5936 47.0989V85.0489C30.5936 86.8639 31.7486 88.6789 33.5636 89.3389C42.8036 92.8039 72.8336 102.539 106.494 95.2789C105.174 95.6089 104.019 95.7739 102.699 95.9389C105.174 95.4439 107.649 94.9489 110.124 94.2889C113.919 93.2989 117.714 92.1439 121.509 90.8239C122.829 90.3289 123.984 89.8339 125.304 89.3389C125.469 89.1739 125.799 89.1739 125.964 89.0089C127.284 88.1839 128.109 86.6989 128.109 85.2139V47.5939C128.109 47.2639 128.274 47.0989 128.604 46.9339L143.784 41.4889C143.949 41.4889 143.949 41.4889 144.114 41.4889H144.939C145.269 41.4889 145.599 41.8189 145.599 42.1489L145.929 58.1539C145.929 58.3189 145.764 58.6489 145.599 58.6489C144.444 59.4739 143.619 60.9589 143.619 62.6089C143.619 64.4239 144.609 65.9089 145.929 66.7339C146.259 66.8989 146.259 67.2289 146.259 67.5589C145.269 70.3639 144.279 73.4989 143.454 76.6339C141.474 83.7289 140.319 90.6589 140.649 93.6289C140.649 94.4539 141.144 95.1139 141.804 95.6089C142.794 96.4339 143.949 97.0939 147.084 97.2589C147.579 97.2589 148.074 97.2589 148.569 97.2589C150.879 97.2589 152.364 97.0939 153.354 96.5989C154.179 96.2689 154.839 95.9389 155.334 95.4439C155.994 94.9489 156.324 94.2889 156.489 93.4639C156.654 89.3389 154.344 76.3039 150.714 67.0639Z" fill="url(#paint1_linear_997_3564)"/>
</g>
<path d="M76.2994 62.1124C77.2894 62.1124 78.2794 61.9474 79.2694 61.6174L142.134 38.6824L142.464 47.0974C142.464 48.2524 143.454 49.2424 144.609 49.2424C145.764 49.2424 146.754 48.2524 146.754 46.9324L146.424 37.1974L148.734 36.3724C150.714 35.7124 152.034 33.8974 152.034 31.7524C152.034 29.6074 150.714 27.7924 148.734 27.1324L79.1044 1.22742C77.1244 0.567422 74.9794 0.567422 73.1644 1.22742L3.53437 26.4724C1.55437 27.1324 0.234375 28.9474 0.234375 31.0924C0.234375 33.2374 1.55437 35.0524 3.53437 35.7124L73.3294 61.4524C74.1544 61.7824 75.3094 62.1124 76.2994 62.1124ZM4.68937 31.0924C4.68937 30.7624 4.85437 30.5974 5.01937 30.5974L74.6494 5.35242C75.1444 5.18742 75.6394 5.02242 76.1344 5.02242C76.6294 5.02242 77.1244 5.18742 77.6194 5.35242L147.414 31.0924C147.744 31.2574 147.744 31.4224 147.744 31.5874C147.744 31.9174 147.579 32.0824 147.414 32.0824L145.104 32.9074C144.939 32.9074 144.774 32.7424 144.444 32.7424L76.7944 27.9574C75.6394 27.9574 74.4844 28.7824 74.4844 29.9374C74.3194 31.0924 75.3094 32.2474 76.4644 32.2474L135.369 36.3724L77.7844 57.3274C76.7944 57.6574 75.8044 57.6574 74.8144 57.3274L5.01937 31.5874C4.68937 31.5874 4.68937 31.4224 4.68937 31.0924ZM149.889 63.2674C151.209 61.9474 152.034 60.1324 152.034 58.1524C152.034 54.1924 148.899 51.0574 144.939 51.0574C140.979 51.0574 137.844 54.1924 137.844 58.1524C137.844 60.2974 138.669 62.1124 140.154 63.4324C136.854 72.5073 134.379 84.7173 134.709 89.3373C134.874 90.6573 135.534 91.8123 136.689 92.8023C138.339 94.2873 140.319 95.1123 144.774 95.1123C149.229 95.1123 151.209 94.2873 152.859 92.8023C154.014 91.9773 154.674 90.6573 154.839 89.3373C155.334 84.8823 153.189 72.6724 149.889 63.2674ZM144.939 55.5124C146.424 55.5124 147.579 56.6674 147.579 58.1524C147.579 59.6374 146.424 60.7924 144.939 60.7924C144.609 60.7924 144.279 60.7924 143.949 60.6274C143.784 60.6274 143.784 60.4624 143.619 60.4624H143.454C142.629 59.9674 142.134 59.1424 142.134 58.1524C142.299 56.6674 143.454 55.5124 144.939 55.5124ZM150.549 88.8423C150.549 89.0073 150.384 89.1723 150.219 89.3373C149.559 89.8323 148.734 90.4923 144.939 90.4923C141.144 90.4923 140.319 89.8323 139.494 89.1723C139.329 89.0073 139.164 88.8423 139.164 88.6773C138.834 85.2123 141.144 73.8273 144.279 65.0824C144.444 65.0824 144.774 65.0824 144.939 65.0824C145.269 65.0824 145.599 65.0824 145.929 65.0824C149.064 74.1573 150.879 85.3773 150.549 88.8423ZM126.954 50.2324V81.0873C126.954 83.5623 125.469 85.7073 123.159 86.6973C107.319 93.2973 91.6444 95.6073 77.6194 95.6073C54.5194 95.6073 35.8744 89.5023 28.6144 86.6973C26.3044 85.8723 24.8194 83.5623 24.8194 81.0873V50.2324C24.8194 49.0774 25.8094 48.0874 26.9644 48.0874C28.1194 48.0874 29.1094 49.0774 29.1094 50.2324V80.9223C29.1094 81.5823 29.6044 82.2423 30.0994 82.4073C41.3194 86.6973 80.9194 99.4023 121.344 82.4073C122.004 82.0773 122.334 81.5823 122.334 80.9223V50.2324C122.334 49.0774 123.324 48.0874 124.479 48.0874C125.634 48.0874 126.954 49.0774 126.954 50.2324Z" fill="url(#paint2_linear_997_3564)"/>
<defs>
<linearGradient id="paint0_linear_997_3564" x1="97.5688" y1="95.0481" x2="100.834" y2="98.2089" gradientUnits="userSpaceOnUse">
<stop stop-color="#FCB316"/>
<stop offset="1" stop-color="#F26921"/>
</linearGradient>
<linearGradient id="paint1_linear_997_3564" x1="38.0367" y1="9.18544" x2="145.553" y2="113.263" gradientUnits="userSpaceOnUse">
<stop stop-color="#FCB316"/>
<stop offset="1" stop-color="#F26921"/>
</linearGradient>
<linearGradient id="paint2_linear_997_3564" x1="22.0193" y1="12.606" x2="151.073" y2="97.9724" gradientUnits="userSpaceOnUse">
<stop stop-color="#FCB316"/>
<stop offset="1" stop-color="#F26921"/>
</linearGradient>
</defs>
</svg>
