<svg width="26" height="20" viewBox="0 0 26 20" fill="none" xmlns="http://www.w3.org/2000/svg">
<path fill-rule="evenodd" clip-rule="evenodd" d="M12.6693 0.835938C13.729 0.835938 14.816 0.862 15.8694 0.904648L17.1138 0.961512L18.3048 1.02904L19.4203 1.1013L20.4391 1.17712C21.5447 1.25801 22.585 1.70897 23.3771 2.45068C24.1692 3.19239 24.6622 4.17733 24.7695 5.23223L24.8191 5.73571L24.912 6.81376C24.9988 7.9309 25.0633 9.14874 25.0633 10.3133C25.0633 11.4778 24.9988 12.6956 24.912 13.8128L24.8191 14.8908C24.803 15.0638 24.7869 15.2308 24.7695 15.3943C24.6622 16.4494 24.1689 17.4345 23.3766 18.1762C22.5843 18.9179 21.5437 19.3688 20.4378 19.4494L19.4215 19.524L18.3061 19.5975L17.1138 19.665L15.8694 19.7219C14.8033 19.7662 13.7364 19.7891 12.6693 19.7906C11.6022 19.7891 10.5353 19.7662 9.46921 19.7219L8.22486 19.665L7.0338 19.5975L5.91835 19.524L4.89957 19.4494C3.79397 19.3685 2.75362 18.9175 1.96155 18.1758C1.16948 17.4341 0.676426 16.4492 0.569127 15.3943L0.519551 14.8908L0.426597 13.8128C0.33183 12.6484 0.281394 11.4811 0.275391 10.3133C0.275391 9.14874 0.339839 7.9309 0.426597 6.81376L0.519551 5.73571C0.535663 5.56275 0.551775 5.39571 0.569127 5.23223C0.676385 4.17752 1.16926 3.19273 1.96108 2.45104C2.7529 1.70936 3.79295 1.25827 4.89833 1.17712L5.91587 1.1013L7.03132 1.02904L8.22362 0.961512L9.46797 0.904648C10.5345 0.860381 11.6018 0.837472 12.6693 0.835938ZM10.1905 7.44045V13.1861C10.1905 13.7334 10.8102 14.0746 11.306 13.8021L16.5114 10.9293C16.6247 10.867 16.7188 10.7772 16.7842 10.6691C16.8496 10.5609 16.8841 10.4382 16.8841 10.3133C16.8841 10.1883 16.8496 10.0656 16.7842 9.95747C16.7188 9.84932 16.6247 9.75956 16.5114 9.69723L11.306 6.82561C11.1929 6.7632 11.0646 6.73036 10.9341 6.73038C10.8035 6.7304 10.6752 6.76328 10.5621 6.82572C10.4491 6.88816 10.3552 6.97795 10.29 7.08607C10.2248 7.19419 10.1905 7.31682 10.1905 7.44163V7.44045Z" fill="#800000"/>
</svg>
