<svg width="94" height="98" viewBox="0 0 94 98" fill="none" xmlns="http://www.w3.org/2000/svg">
<mask id="path-1-inside-1_454_19165" fill="white">
<path fill-rule="evenodd" clip-rule="evenodd" d="M21.6037 45.3027L0.714844 84.1968H21.6037V84.253H45.7241V50.1268C45.7241 47.4625 43.5643 45.3027 40.9 45.3027H21.6037Z"/>
</mask>
<path fill-rule="evenodd" clip-rule="evenodd" d="M21.6037 45.3027L0.714844 84.1968H21.6037V84.253H45.7241V50.1268C45.7241 47.4625 43.5643 45.3027 40.9 45.3027H21.6037Z" fill="#4DC0EC"/>
<path d="M0.714844 84.1968L0.077355 83.8545L-0.495155 84.9205H0.714844V84.1968ZM21.6037 45.3027V44.5791H21.171L20.9662 44.9604L21.6037 45.3027ZM21.6037 84.1968H22.3273V83.4732H21.6037V84.1968ZM21.6037 84.253H20.8801V84.9766H21.6037V84.253ZM45.7241 84.253V84.9766H46.4477V84.253H45.7241ZM1.35233 84.5392L22.2412 45.6451L20.9662 44.9604L0.077355 83.8545L1.35233 84.5392ZM21.6037 83.4732H0.714844V84.9205H21.6037V83.4732ZM22.3273 84.253V84.1968H20.8801V84.253H22.3273ZM45.7241 83.5294H21.6037V84.9766H45.7241V83.5294ZM45.0005 50.1268V84.253H46.4477V50.1268H45.0005ZM40.9 46.0263C43.1646 46.0263 45.0005 47.8622 45.0005 50.1268H46.4477C46.4477 47.0629 43.9639 44.5791 40.9 44.5791V46.0263ZM21.6037 46.0263H40.9V44.5791H21.6037V46.0263Z" fill="white" mask="url(#path-1-inside-1_454_19165)"/>
<mask id="path-3-inside-2_454_19165" fill="white">
<path fill-rule="evenodd" clip-rule="evenodd" d="M53.6835 45.3027H72.9798L93.8686 84.1968H72.9798V84.253H48.8594V50.1268C48.8594 47.4625 51.0192 45.3027 53.6835 45.3027Z"/>
</mask>
<path fill-rule="evenodd" clip-rule="evenodd" d="M53.6835 45.3027H72.9798L93.8686 84.1968H72.9798V84.253H48.8594V50.1268C48.8594 47.4625 51.0192 45.3027 53.6835 45.3027Z" fill="#F04323"/>
<path d="M72.9798 45.3027L73.6172 44.9604L73.4125 44.5791H72.9798V45.3027ZM93.8686 84.1968V84.9205H95.0786L94.5061 83.8545L93.8686 84.1968ZM72.9798 84.1968V83.4732H72.2561V84.1968H72.9798ZM72.9798 84.253V84.9766H73.7034V84.253H72.9798ZM48.8594 84.253H48.1358V84.9766H48.8594V84.253ZM72.9798 44.5791H53.6835V46.0263H72.9798V44.5791ZM94.5061 83.8545L73.6172 44.9604L72.3423 45.6451L93.2311 84.5392L94.5061 83.8545ZM72.9798 84.9205H93.8686V83.4732H72.9798V84.9205ZM73.7034 84.253V84.1968H72.2561V84.253H73.7034ZM48.8594 84.9766H72.9798V83.5294H48.8594V84.9766ZM48.1358 50.1268V84.253H49.583V50.1268H48.1358ZM53.6835 44.5791C50.6196 44.5791 48.1358 47.0629 48.1358 50.1268H49.583C49.583 47.8622 51.4188 46.0263 53.6835 46.0263V44.5791Z" fill="white" mask="url(#path-3-inside-2_454_19165)"/>
<mask id="path-5-inside-3_454_19165" fill="white">
<path fill-rule="evenodd" clip-rule="evenodd" d="M72.0151 42.4682L49.0535 0.679688H48.8594V37.6442C48.8594 40.3084 51.0192 42.4682 53.6835 42.4682H72.0151Z"/>
</mask>
<path fill-rule="evenodd" clip-rule="evenodd" d="M72.0151 42.4682L49.0535 0.679688H48.8594V37.6442C48.8594 40.3084 51.0192 42.4682 53.6835 42.4682H72.0151Z" fill="#F7ED33"/>
<path d="M72.0151 42.4682V43.1919H73.2384L72.6493 42.1198L72.0151 42.4682ZM49.0535 0.679688L49.6877 0.331223L49.4815 -0.0439239H49.0535V0.679688ZM48.8594 0.679688V-0.0439239H48.1358V0.679688H48.8594ZM72.6493 42.1198L49.6877 0.331223L48.4193 1.02815L71.3809 42.8167L72.6493 42.1198ZM48.8594 1.4033H49.0535V-0.0439239H48.8594V1.4033ZM49.583 37.6442V0.679688H48.1358V37.6442H49.583ZM53.6835 41.7446C51.4188 41.7446 49.583 39.9088 49.583 37.6442H48.1358C48.1358 40.7081 50.6196 43.1919 53.6835 43.1919V41.7446ZM72.0151 41.7446H53.6835V43.1919H72.0151V41.7446Z" fill="white" mask="url(#path-5-inside-3_454_19165)"/>
<mask id="path-7-inside-4_454_19165" fill="white">
<path fill-rule="evenodd" clip-rule="evenodd" d="M22.8084 42.4682L45.5309 0.679688H45.7227V37.6442C45.7227 40.3084 43.5628 42.4682 40.8986 42.4682H22.8084Z"/>
</mask>
<path fill-rule="evenodd" clip-rule="evenodd" d="M22.8084 42.4682L45.5309 0.679688H45.7227V37.6442C45.7227 40.3084 43.5628 42.4682 40.8986 42.4682H22.8084Z" fill="#89C541"/>
<path d="M22.8084 42.4682V43.1919H21.5913L22.1727 42.1226L22.8084 42.4682ZM45.5309 0.679688L44.8952 0.334021L45.1007 -0.0439239H45.5309V0.679688ZM45.7227 0.679688V-0.0439239H46.4463V0.679688H45.7227ZM22.1727 42.1226L44.8952 0.334021L46.1666 1.02535L23.4441 42.8139L22.1727 42.1226ZM45.7227 1.4033H45.5309V-0.0439239H45.7227V1.4033ZM44.999 37.6442V0.679688H46.4463V37.6442H44.999ZM40.8986 41.7446C43.1632 41.7446 44.999 39.9088 44.999 37.6442H46.4463C46.4463 40.7081 43.9625 43.1919 40.8986 43.1919V41.7446ZM22.8084 41.7446H40.8986V43.1919H22.8084V41.7446Z" fill="white" mask="url(#path-7-inside-4_454_19165)"/>
<path d="M3.19324 97.0312H1.44451L4.10906 89.3127H6.21205L8.87283 97.0312H7.1241L5.1907 91.0765H5.1304L3.19324 97.0312ZM3.08394 93.9974H7.21455V95.2712H3.08394V93.9974ZM13.8128 91.5326C13.7826 91.2285 13.6533 90.9924 13.4246 90.824C13.196 90.6557 12.8857 90.5715 12.4937 90.5715C12.2274 90.5715 12.0025 90.6092 11.8191 90.6846C11.6357 90.7574 11.495 90.8592 11.397 90.9898C11.3015 91.1205 11.2538 91.2687 11.2538 91.4346C11.2488 91.5728 11.2776 91.6934 11.3405 91.7964C11.4058 91.8994 11.495 91.9886 11.608 92.064C11.7211 92.1368 11.8518 92.2009 12 92.2562C12.1482 92.3089 12.3065 92.3542 12.4749 92.3918L13.1683 92.5577C13.505 92.633 13.8141 92.7336 14.0955 92.8592C14.3769 92.9848 14.6206 93.1393 14.8266 93.3227C15.0326 93.5062 15.1922 93.7222 15.3052 93.971C15.4208 94.2197 15.4799 94.5049 15.4824 94.8265C15.4799 95.2989 15.3593 95.7084 15.1206 96.0551C14.8844 96.3993 14.5427 96.6669 14.0955 96.8579C13.6507 97.0463 13.1143 97.1405 12.4862 97.1405C11.8631 97.1405 11.3204 97.0451 10.8581 96.8541C10.3983 96.6632 10.039 96.3805 9.78017 96.0061C9.52389 95.6293 9.38947 95.1632 9.37691 94.6079H10.956C10.9736 94.8667 11.0477 95.0828 11.1784 95.2561C11.3116 95.427 11.4887 95.5564 11.7098 95.6443C11.9334 95.7298 12.1859 95.7725 12.4673 95.7725C12.7437 95.7725 12.9837 95.7323 13.1872 95.6519C13.3932 95.5715 13.5527 95.4597 13.6658 95.3164C13.7789 95.1732 13.8354 95.0087 13.8354 94.8227C13.8354 94.6494 13.7839 94.5036 13.6809 94.3855C13.5804 94.2675 13.4321 94.167 13.2362 94.084C13.0427 94.0011 12.8053 93.9258 12.5239 93.8579L11.6834 93.6469C11.0327 93.4886 10.5189 93.2411 10.142 92.9044C9.7651 92.5677 9.57791 92.1142 9.58042 91.5439C9.57791 91.0765 9.70228 90.6682 9.95354 90.319C10.2073 89.9698 10.5553 89.6971 10.9975 89.5012C11.4397 89.3052 11.9422 89.2072 12.505 89.2072C13.0779 89.2072 13.5779 89.3052 14.005 89.5012C14.4347 89.6971 14.7688 89.9698 15.0075 90.319C15.2462 90.6682 15.3693 91.0728 15.3769 91.5326H13.8128ZM16.58 97.0312V89.3127H19.6252C20.2107 89.3127 20.7094 89.4245 21.1215 89.6482C21.5335 89.8693 21.8476 90.177 22.0637 90.5715C22.2823 90.9635 22.3915 91.4157 22.3915 91.9283C22.3915 92.4408 22.281 92.8931 22.0599 93.2851C21.8388 93.677 21.5184 93.9823 21.0988 94.2009C20.6818 94.4195 20.1767 94.5288 19.5838 94.5288H17.6428V93.221H19.32C19.634 93.221 19.8928 93.167 20.0963 93.0589C20.3024 92.9484 20.4556 92.7964 20.5561 92.6029C20.6592 92.4069 20.7107 92.182 20.7107 91.9283C20.7107 91.672 20.6592 91.4484 20.5561 91.2574C20.4556 91.064 20.3024 90.9145 20.0963 90.8089C19.8903 90.7009 19.629 90.6469 19.3124 90.6469H18.2119V97.0312H16.58ZM25.0834 89.3127V97.0312H23.4515V89.3127H25.0834ZM26.4261 97.0312V89.3127H29.4713C30.0542 89.3127 30.5516 89.417 30.9637 89.6255C31.3783 89.8316 31.6936 90.1243 31.9097 90.5037C32.1283 90.8806 32.2376 91.324 32.2376 91.8341C32.2376 92.3466 32.127 92.7876 31.9059 93.1569C31.6848 93.5237 31.3645 93.8051 30.9449 94.0011C30.5278 94.1971 30.0228 94.2951 29.4298 94.2951H27.3909V92.9835H29.166C29.4775 92.9835 29.7363 92.9408 29.9424 92.8554C30.1484 92.77 30.3017 92.6418 30.4022 92.471C30.5052 92.3001 30.5567 92.0878 30.5567 91.8341C30.5567 91.5778 30.5052 91.3617 30.4022 91.1858C30.3017 91.0099 30.1471 90.8768 29.9386 90.7863C29.7326 90.6934 29.4725 90.6469 29.1584 90.6469H28.058V97.0312H26.4261ZM30.5944 93.5187L32.5127 97.0312H30.7112L28.8343 93.5187H30.5944ZM33.3908 97.0312V89.3127H38.5918V90.6582H35.0227V92.4974H38.3242V93.8428H35.0227V95.6858H38.6069V97.0312H33.3908ZM42.0515 90.6582V89.3127H48.3907V90.6582H46.0276V97.0312H44.4146V90.6582H42.0515ZM56.1752 93.172C56.1752 94.0137 56.0156 94.7298 55.6965 95.3202C55.3799 95.9107 54.9478 96.3617 54.4 96.6732C53.8548 96.9823 53.2418 97.1368 52.5609 97.1368C51.8749 97.1368 51.2594 96.981 50.7141 96.6694C50.1689 96.3579 49.738 95.9069 49.4214 95.3164C49.1049 94.726 48.9466 94.0112 48.9466 93.172C48.9466 92.3303 49.1049 91.6142 49.4214 91.0238C49.738 90.4333 50.1689 89.9836 50.7141 89.6745C51.2594 89.363 51.8749 89.2072 52.5609 89.2072C53.2418 89.2072 53.8548 89.363 54.4 89.6745C54.9478 89.9836 55.3799 90.4333 55.6965 91.0238C56.0156 91.6142 56.1752 92.3303 56.1752 93.172ZM54.5206 93.172C54.5206 92.6268 54.439 92.167 54.2757 91.7926C54.1149 91.4182 53.8875 91.1343 53.5935 90.9409C53.2996 90.7474 52.9553 90.6507 52.5609 90.6507C52.1664 90.6507 51.8222 90.7474 51.5282 90.9409C51.2342 91.1343 51.0056 91.4182 50.8423 91.7926C50.6815 92.167 50.6011 92.6268 50.6011 93.172C50.6011 93.7172 50.6815 94.177 50.8423 94.5514C51.0056 94.9257 51.2342 95.2097 51.5282 95.4031C51.8222 95.5966 52.1664 95.6933 52.5609 95.6933C52.9553 95.6933 53.2996 95.5966 53.5935 95.4031C53.8875 95.2097 54.1149 94.9257 54.2757 94.5514C54.439 94.177 54.5206 93.7172 54.5206 93.172ZM59.8403 97.0312V89.3127H65.0413V90.6582H61.4722V92.4974H64.7737V93.8428H61.4722V95.6858H65.0564V97.0312H59.8403ZM67.8688 89.3127L69.4253 91.9434H69.4857L71.0497 89.3127H72.8927L70.5371 93.172L72.9454 97.0312H71.0686L69.4857 94.3969H69.4253L67.8424 97.0312H65.9731L68.3889 93.172L66.0183 89.3127H67.8688ZM80.3728 92.015H78.7221C78.6919 91.8014 78.6303 91.6117 78.5374 91.4459C78.4444 91.2775 78.3251 91.1343 78.1793 91.0162C78.0336 90.8981 77.8653 90.8077 77.6743 90.7449C77.4859 90.6821 77.2811 90.6507 77.06 90.6507C76.6605 90.6507 76.3125 90.7499 76.0161 90.9484C75.7196 91.1444 75.4897 91.4308 75.3264 91.8077C75.163 92.182 75.0814 92.6368 75.0814 93.172C75.0814 93.7222 75.163 94.1845 75.3264 94.5589C75.4922 94.9333 75.7233 95.2159 76.0198 95.4069C76.3163 95.5978 76.6593 95.6933 77.0487 95.6933C77.2673 95.6933 77.4696 95.6644 77.6555 95.6066C77.8439 95.5489 78.011 95.4647 78.1567 95.3541C78.3025 95.2411 78.4231 95.1041 78.5185 94.9433C78.6165 94.7825 78.6844 94.5991 78.7221 94.3931L80.3728 94.4006C80.3301 94.7549 80.2233 95.0966 80.0524 95.4257C79.8841 95.7524 79.6567 96.0451 79.3703 96.3039C79.0864 96.5601 78.7472 96.7637 78.3527 96.9144C77.9608 97.0627 77.5173 97.1368 77.0223 97.1368C76.3339 97.1368 75.7183 96.981 75.1756 96.6694C74.6354 96.3579 74.2083 95.9069 73.8942 95.3164C73.5827 94.726 73.4269 94.0112 73.4269 93.172C73.4269 92.3303 73.5852 91.6142 73.9017 91.0238C74.2183 90.4333 74.648 89.9836 75.1907 89.6745C75.7334 89.363 76.3439 89.2072 77.0223 89.2072C77.4696 89.2072 77.8841 89.27 78.266 89.3956C78.6504 89.5213 78.9909 89.7047 79.2874 89.9459C79.5839 90.1846 79.8251 90.4773 80.011 90.824C80.1994 91.1708 80.32 91.5677 80.3728 92.015ZM81.543 97.0312V89.3127H86.744V90.6582H83.1749V92.4974H86.4764V93.8428H83.1749V95.6858H86.759V97.0312H81.543ZM88.0414 97.0312V89.3127H89.6733V95.6858H92.9823V97.0312H88.0414Z" fill="white"/>
</svg>
