<svg width="126" height="145" viewBox="0 0 126 145" fill="none" xmlns="http://www.w3.org/2000/svg">
<path d="M89.4191 50.6H102.069V31.625H121.044V18.975H102.069V0H89.4191V18.975H70.4441V31.625H89.4191V50.6ZM51.4691 75.9C54.9479 75.9 57.927 74.6603 60.4064 72.1809C62.8858 69.7015 64.1234 66.7245 64.1191 63.25C64.1191 59.7712 62.8794 56.7922 60.4 54.3128C57.9206 51.8334 54.9437 50.5958 51.4691 50.6C47.9904 50.6 45.0113 51.8397 42.5319 54.3191C40.0525 56.7985 38.8149 59.7754 38.8191 63.25C38.8191 66.7287 40.0588 69.7078 42.5382 72.1872C45.0176 74.6666 47.9946 75.9042 51.4691 75.9ZM51.4691 139.15C34.4971 124.708 21.8218 111.295 13.4432 98.9103C5.06472 86.526 0.873357 75.0609 0.869141 64.515C0.869141 48.7025 5.95655 36.1052 16.1314 26.7231C26.3062 17.341 38.0854 12.65 51.4691 12.65C52.5233 12.65 53.5775 12.6774 54.6316 12.7322C55.6858 12.787 56.74 12.865 57.7941 12.9662V25.7744C56.74 25.5635 55.7111 25.4307 54.7075 25.3759C53.704 25.3211 52.6245 25.2958 51.4691 25.3C40.8221 25.3 31.8342 28.9643 24.5057 36.2928C17.1771 43.6214 13.5149 53.0288 13.5191 64.515C13.5191 71.9995 16.6289 80.5657 22.8485 90.2134C29.0681 99.8612 38.6083 110.586 51.4691 122.389C64.33 110.582 73.8702 99.8548 80.0898 90.2071C86.3093 80.5594 89.4191 71.9953 89.4191 64.515V63.25H102.069V64.515C102.069 75.0566 97.8778 86.5217 89.495 98.9103C81.1123 111.299 68.437 124.712 51.4691 139.15Z" fill="url(#paint0_linear_997_3566)"/>
<path opacity="0.2" fill-rule="evenodd" clip-rule="evenodd" d="M107.018 36.5742V55.5492H94.3684V36.5742H75.3934V23.9242H94.3684V4.94922H107.018V23.9242H125.993V36.5742H107.018ZM65.3556 77.1301C62.8762 79.6095 59.8971 80.8492 56.4184 80.8492C52.9438 80.8534 49.9669 79.6158 47.4875 77.1364C45.0081 74.657 43.7684 71.6779 43.7684 68.1992C43.7641 64.7247 45.0017 61.7477 47.4811 59.2683C49.9605 56.7889 52.9396 55.5492 56.4184 55.5492C59.8929 55.545 62.8699 56.7826 65.3493 59.262C67.8287 61.7414 69.0684 64.7204 69.0684 68.1992C69.0726 71.6737 67.835 74.6507 65.3556 77.1301ZM18.3925 103.86C26.771 116.244 39.4463 129.657 56.4184 144.099C73.3862 129.661 86.0615 116.248 94.4443 103.86C102.827 91.471 107.018 80.0059 107.018 69.4642V68.1992H94.3684V69.4642C94.3684 76.9446 91.2586 85.5086 85.039 95.1563C78.8194 104.804 69.2792 115.531 56.4184 127.338C43.5575 115.535 34.0173 104.81 27.7977 95.1627C21.5782 85.5149 18.4684 76.9488 18.4684 69.4642C18.4641 57.978 22.1263 48.5706 29.4549 41.2421C36.7835 33.9135 45.7713 30.2492 56.4184 30.2492C57.5737 30.245 58.6532 30.2703 59.6568 30.3251C60.6603 30.3799 61.6892 30.5127 62.7434 30.7236V17.9155C61.6892 17.8143 60.635 17.7363 59.5809 17.6814C58.5267 17.6266 57.4725 17.5992 56.4184 17.5992C43.0347 17.5992 31.2554 22.2903 21.0806 31.6723C10.9058 41.0544 5.81836 53.6517 5.81836 69.4642C5.82258 80.0101 10.0139 91.4752 18.3925 103.86Z" fill="url(#paint1_linear_997_3566)"/>
<defs>
<linearGradient id="paint0_linear_997_3566" x1="1.89115" y1="27.912" x2="140.329" y2="91.8435" gradientUnits="userSpaceOnUse">
<stop stop-color="#F26921"/>
<stop offset="1" stop-color="#ED1065"/>
</linearGradient>
<linearGradient id="paint1_linear_997_3566" x1="6.84037" y1="32.8613" x2="145.278" y2="96.7928" gradientUnits="userSpaceOnUse">
<stop stop-color="#F26921"/>
<stop offset="1" stop-color="#ED1065"/>
</linearGradient>
</defs>
</svg>
