<svg width="24" height="24" viewBox="0 0 24 24" fill="none" xmlns="http://www.w3.org/2000/svg">
<path d="M21.2361 0H2.65451C1.95049 0 1.27531 0.279668 0.777489 0.777481C0.279671 1.27529 0 1.95047 0 2.65449V21.2359C0 21.9399 0.279671 22.6151 0.777489 23.1129C1.27531 23.6107 1.95049 23.8904 2.65451 23.8904H21.2361C21.9401 23.8904 22.6153 23.6107 23.1131 23.1129C23.611 22.6151 23.8906 21.9399 23.8906 21.2359V2.65449C23.8906 1.95047 23.611 1.27529 23.1131 0.777481C22.6153 0.279668 21.9401 0 21.2361 0ZM16.7234 18.5814L11.9453 13.8033L7.16719 18.5814L5.30903 16.7233L10.0872 11.9452L5.30903 7.16712L7.16719 5.30898L11.9453 10.0871L16.7234 5.30898L18.5816 7.16712L13.8035 11.9452L18.5816 16.7233L16.7234 18.5814Z" fill="#800000"/>
</svg>
