<svg width="20" height="20" viewBox="0 0 20 20" fill="none" xmlns="http://www.w3.org/2000/svg">
<path d="M13.8078 19.1421V11.8067H16.2645L16.632 8.95508H13.8078V7.13543C13.8078 6.30985 14.0373 5.74648 15.2209 5.74648H16.731V3.19602C16 3.11846 15.2653 3.08085 14.5301 3.08335C12.3535 3.08335 10.8635 4.41228 10.8635 6.85322V8.95508H8.40149V11.8067H10.8635V19.1421H1.80108C1.5218 19.1421 1.25395 19.0312 1.05647 18.8337C0.858991 18.6362 0.748047 18.3684 0.748047 18.0891V1.24054C0.748047 0.961253 0.858991 0.69341 1.05647 0.495927C1.25395 0.298444 1.5218 0.1875 1.80108 0.1875H18.6496C18.9289 0.1875 19.1967 0.298444 19.3942 0.495927C19.5917 0.69341 19.7026 0.961253 19.7026 1.24054V18.0891C19.7026 18.3684 19.5917 18.6362 19.3942 18.8337C19.1967 19.0312 18.9289 19.1421 18.6496 19.1421H13.8078Z" fill="#800000"/>
</svg>
