<svg width="121" height="99" viewBox="0 0 121 99" fill="none" xmlns="http://www.w3.org/2000/svg">
<path opacity="0.25" d="M114.568 17.1754H79.4228V8.76037C79.4228 3.97538 75.4628 0.0153809 70.6778 0.0153809H50.8778C46.0928 0.0153809 42.1328 3.97538 42.1328 8.76037V17.1754H6.82281C3.52281 17.1754 0.882812 19.8154 0.882812 23.1154V60.4053V92.5803C0.882812 95.8803 3.52281 98.5203 6.82281 98.5203H114.568C117.868 98.5203 120.508 95.8803 120.508 92.5803V60.5703V23.2804C120.673 19.9804 117.868 17.1754 114.568 17.1754ZM46.2578 8.76037C46.2578 6.28538 48.4028 4.14038 50.8778 4.14038H70.6778C73.1528 4.14038 75.2978 6.28538 75.2978 8.76037V17.1754H46.2578V8.76037Z" fill="url(#paint0_linear_189_3063)"/>
<defs>
<linearGradient id="paint0_linear_189_3063" x1="1.9002" y1="19.7744" x2="119.505" y2="96.1482" gradientUnits="userSpaceOnUse">
<stop stop-color="#F26921"/>
<stop offset="1" stop-color="#ED1065"/>
</linearGradient>
</defs>
</svg>
