<svg width="127" height="102" viewBox="0 0 127 102" fill="none" xmlns="http://www.w3.org/2000/svg">
<path d="M125.023 24.63V57.1349C125.023 61.9199 121.063 65.8799 116.278 65.8799H75.3584C74.2034 65.8799 73.3784 64.8899 73.3784 63.8999C73.3784 62.9099 74.3684 61.9199 75.3584 61.9199H116.113C118.753 61.9199 120.733 59.7749 120.733 57.2999V24.63C120.733 22.485 118.918 20.67 116.773 20.67H9.02836C6.88336 20.67 5.06836 22.485 5.06836 24.63V57.1349C5.06836 59.7749 7.21336 61.7549 9.68836 61.7549H50.4434C51.5984 61.7549 52.4234 62.7449 52.4234 63.7349C52.4234 64.7249 51.4334 65.7149 50.4434 65.7149H9.85336C5.06836 65.7149 1.10836 61.7549 1.10836 56.97V24.63C1.10836 20.175 4.73836 16.545 9.19336 16.545H117.103C121.393 16.545 125.023 20.175 125.023 24.63ZM122.878 65.7149C121.723 65.7149 120.898 66.7049 120.898 67.6949V93.1049C120.898 95.2499 119.083 97.0649 116.938 97.0649H9.02836C6.88336 97.0649 5.06836 95.2499 5.06836 93.1049V67.8599C5.06836 66.7049 4.07836 65.8799 3.08836 65.8799C2.09836 65.8799 0.943359 66.7049 0.943359 67.8599V93.2699C0.943359 97.7249 4.57336 101.355 9.02836 101.355H116.938C121.393 101.355 125.023 97.7249 125.023 93.2699V67.8599C125.023 66.7049 124.033 65.7149 122.878 65.7149ZM46.4834 14.895C47.6384 14.895 48.4634 13.905 48.4634 12.75V9.11999C48.4634 6.64499 50.6084 4.5 53.0834 4.5H72.8834C75.3584 4.5 77.5034 6.64499 77.5034 9.11999V12.75C77.5034 13.905 78.4934 14.895 79.4834 14.895C80.4734 14.895 81.4634 13.905 81.4634 12.75V9.11999C81.4634 4.335 77.5034 0.375 72.7184 0.375H52.9184C48.1334 0.375 44.1734 4.335 44.1734 9.11999V12.75C44.3384 13.905 45.3284 14.895 46.4834 14.895ZM57.2084 77.5949C56.0534 77.5949 55.2284 76.6049 55.2284 75.6149V60.1049C55.2284 58.9499 56.2184 58.1249 57.2084 58.1249H68.7584C69.9134 58.1249 70.7384 59.1149 70.7384 60.1049V75.6149C70.7384 76.7699 69.7484 77.5949 68.7584 77.5949H57.2084ZM59.1884 73.4699H66.6134V62.0849H59.1884V73.4699Z" fill="url(#paint0_linear_997_3563)"/>
<path opacity="0.25" d="M120.568 20.1756H85.4228V11.7606C85.4228 6.97562 81.4628 3.01562 76.6778 3.01562H56.8778C52.0928 3.01562 48.1328 6.97562 48.1328 11.7606V20.1756H12.8228C9.52281 20.1756 6.88281 22.8156 6.88281 26.1156V63.4056V95.5805C6.88281 98.8805 9.52281 101.521 12.8228 101.521H120.568C123.868 101.521 126.508 98.8805 126.508 95.5805V63.5706V26.2806C126.673 22.9806 123.868 20.1756 120.568 20.1756ZM52.2578 11.7606C52.2578 9.28562 54.4028 7.14062 56.8778 7.14062H76.6778C79.1528 7.14062 81.2978 9.28562 81.2978 11.7606V20.1756H52.2578V11.7606Z" fill="url(#paint1_linear_997_3563)"/>
<defs>
<linearGradient id="paint0_linear_997_3563" x1="2.96213" y1="19.22" x2="122.984" y2="98.6121" gradientUnits="userSpaceOnUse">
<stop stop-color="#F26921"/>
<stop offset="1" stop-color="#ED1065"/>
</linearGradient>
<linearGradient id="paint1_linear_997_3563" x1="7.9002" y1="22.7747" x2="125.505" y2="99.1484" gradientUnits="userSpaceOnUse">
<stop stop-color="#F26921"/>
<stop offset="1" stop-color="#ED1065"/>
</linearGradient>
</defs>
</svg>
