<svg width="20" height="20" viewBox="0 0 20 20" fill="none" xmlns="http://www.w3.org/2000/svg">
<path d="M16.865 16.9864H14.0566V12.5882C14.0566 11.5394 14.0378 10.1892 12.5959 10.1892C11.1331 10.1892 10.9093 11.332 10.9093 12.5118V16.9862H8.10091V7.94153H10.797V9.17758H10.8347C11.1046 8.71623 11.4944 8.3367 11.9629 8.07941C12.4313 7.82212 12.9608 7.6967 13.4949 7.71652C16.3414 7.71652 16.8662 9.58888 16.8662 12.0247L16.865 16.9864ZM4.93194 6.70526C4.03182 6.70541 3.302 5.9758 3.30185 5.07568C3.3017 4.17556 4.03123 3.44573 4.93135 3.44558C5.83147 3.44536 6.5613 4.17496 6.56145 5.07509C6.56152 5.50734 6.38989 5.92193 6.0843 6.22764C5.77871 6.53336 5.3642 6.70516 4.93194 6.70526ZM6.33621 16.9865H3.52479V7.94153H6.33614L6.33621 16.9865ZM18.2652 0.837317H2.11356C1.35019 0.828728 0.724173 1.44024 0.714844 2.20361V18.4226C0.723877 19.1864 1.34982 19.7985 2.11348 19.7905H18.2652C19.0305 19.8 19.6588 19.1879 19.6694 18.4226V2.20235C19.6585 1.4375 19.0301 0.826063 18.2652 0.836058" fill="#800000"/>
</svg>
