<svg width="26" height="30" viewBox="0 0 26 30" fill="none" xmlns="http://www.w3.org/2000/svg">
<path d="M19.0989 11.3138H21.8274V7.31723H25.92V4.65284H21.8274V0.65625H19.0989V4.65284H15.0063V7.31723H19.0989V11.3138ZM10.9137 16.6426C11.664 16.6426 12.3065 16.3815 12.8413 15.8593C13.3761 15.3371 13.643 14.71 13.6421 13.9782C13.6421 13.2455 13.3747 12.618 12.8399 12.0958C12.3052 11.5736 11.6631 11.3129 10.9137 11.3138C10.1634 11.3138 9.52083 11.5749 8.98606 12.0972C8.45128 12.6194 8.18435 13.2464 8.18526 13.9782C8.18526 14.7109 8.45265 15.3384 8.98742 15.8606C9.52219 16.3828 10.1643 16.6435 10.9137 16.6426ZM10.9137 29.9646C7.25305 26.9227 4.51918 24.0976 2.71205 21.4891C0.904926 18.8807 0.000909474 16.4659 0 14.2446C0 10.9142 1.09728 8.26087 3.29184 6.28478C5.4864 4.30869 8.02702 3.32064 10.9137 3.32064C11.1411 3.32064 11.3684 3.32642 11.5958 3.33796C11.8232 3.34951 12.0505 3.36594 12.2779 3.38725V6.08495C12.0505 6.04054 11.8286 6.01257 11.6122 6.00102C11.3957 5.98948 11.1629 5.98415 10.9137 5.98503C8.61726 5.98503 6.67872 6.75682 5.09805 8.30039C3.51739 9.84396 2.72751 11.8254 2.72842 14.2446C2.72842 15.8211 3.39916 17.6253 4.74063 19.6574C6.08211 21.6894 8.13979 23.9484 10.9137 26.4342C13.6876 23.9475 15.7453 21.6881 17.0867 19.656C18.4282 17.624 19.0989 15.8202 19.0989 14.2446V13.9782H21.8274V14.2446C21.8274 16.465 20.9234 18.8798 19.1153 21.4891C17.3073 24.0985 14.5734 26.9236 10.9137 29.9646Z" fill="#800000"/>
</svg>
