<svg width="52" height="52" viewBox="0 0 52 52" fill="none" xmlns="http://www.w3.org/2000/svg">
<g id="fluent:money-hand-20-regular">
<path id="Vector" d="M11.7008 5.19922C10.6664 5.19922 9.67446 5.61011 8.94307 6.3415C8.21167 7.07289 7.80078 8.06487 7.80078 9.09922V42.8992C7.80078 43.9336 8.21167 44.9255 8.94307 45.6569C9.67446 46.3883 10.6664 46.7992 11.7008 46.7992H29.9008C30.9351 46.7992 31.9271 46.3883 32.6585 45.6569C33.3899 44.9255 33.8008 43.9336 33.8008 42.8992V38.9992C33.8008 38.6544 33.6638 38.3238 33.42 38.08C33.1762 37.8362 32.8456 37.6992 32.5008 37.6992C31.427 37.6992 30.7406 37.434 30.2752 37.0856C29.7994 36.7294 29.438 36.1964 29.1728 35.4658C28.6164 33.937 28.6008 31.9116 28.6008 29.8992C28.6007 29.7282 28.567 29.5589 28.5014 29.4009C28.4358 29.243 28.3397 29.0996 28.2186 28.9788L27.475 28.2326L24.3212 25.0788C23.107 23.8646 22.7508 23.0508 22.6832 22.5958C22.6312 22.2318 22.7404 21.9874 23.0004 21.7378C23.5568 21.2048 23.9546 20.8434 24.4044 20.7342C24.6722 20.6666 25.2832 20.6198 26.3804 21.717L34.1804 29.517C34.4241 29.7611 34.7549 29.8984 35.0999 29.8986C35.2707 29.8988 35.4398 29.8652 35.5977 29.8C35.7556 29.7347 35.899 29.639 36.0199 29.5183C36.1408 29.3976 36.2367 29.2543 36.3021 29.0965C36.3676 28.9388 36.4014 28.7696 36.4015 28.5988C36.4016 28.428 36.3681 28.2589 36.3028 28.101C36.2376 27.9431 36.1419 27.7997 36.0212 27.6788L33.8008 25.461V17.4374L40.4568 24.0934C40.8193 24.4555 41.107 24.8855 41.3033 25.3589C41.4996 25.8322 41.6007 26.3396 41.6008 26.852V45.4992C41.6008 45.844 41.7377 46.1747 41.9815 46.4185C42.2253 46.6623 42.556 46.7992 42.9008 46.7992C43.2456 46.7992 43.5762 46.6623 43.82 46.4185C44.0638 46.1747 44.2008 45.844 44.2008 45.4992V26.852C44.2004 25.1289 43.5159 23.4764 42.2976 22.2578L33.8008 13.761V9.09922C33.8008 8.06487 33.3899 7.07289 32.6585 6.3415C31.9271 5.61011 30.9351 5.19922 29.9008 5.19922H11.7008ZM31.2008 14.2992V22.861L28.2212 19.8788C26.7158 18.376 25.2208 17.8586 23.7882 18.207C23.5068 18.2765 23.2338 18.3767 22.9744 18.506C21.8122 18.1693 20.5876 18.1076 19.3974 18.3256C18.2072 18.5437 17.084 19.0355 16.1166 19.7623C15.1492 20.4891 14.3641 21.431 13.8234 22.5134C13.2826 23.5958 13.001 24.7892 13.0008 25.9992C13.0007 27.5071 13.4376 28.9826 14.2587 30.2473C15.0799 31.512 16.2499 32.5116 17.6274 33.125C19.0048 33.7385 20.5305 33.9396 22.0198 33.7039C23.5091 33.4683 24.8982 32.806 26.019 31.7972C26.0632 33.3 26.214 34.9432 26.7288 36.355C27.1136 37.4132 27.7272 38.4246 28.7152 39.163L28.7308 39.1786C27.9391 39.4276 27.2474 39.9227 26.7564 40.5918C26.2654 41.2609 26.0007 42.0693 26.0008 42.8992V44.1992H15.6008V42.8992C15.6008 41.8649 15.1899 40.8729 14.4585 40.1415C13.7271 39.4101 12.7351 38.9992 11.7008 38.9992H10.4008V12.9992H11.7008C12.7351 12.9992 13.7271 12.5883 14.4585 11.8569C15.1899 11.1255 15.6008 10.1336 15.6008 9.09922V7.79922H26.0008V9.09922C26.0008 10.1336 26.4117 11.1255 27.1431 11.8569C27.8745 12.5883 28.8664 12.9992 29.9008 12.9992H31.2008V14.2992ZM31.2008 42.8992V42.9226C31.1946 43.2633 31.055 43.588 30.8118 43.8268C30.5687 44.0655 30.2415 44.1993 29.9008 44.1992H28.6008V42.8992C28.6008 42.5544 28.7377 42.2238 28.9815 41.98C29.2253 41.7362 29.556 41.5992 29.9008 41.5992H31.2008V42.8992ZM15.6008 25.9992C15.6008 24.6768 16.1046 23.4041 17.0098 22.44C17.9149 21.4759 19.1534 20.8929 20.4732 20.8096C20.1508 21.4076 19.987 22.1356 20.1118 22.9754C20.2964 24.2286 21.0946 25.5312 22.4804 26.917L24.8386 29.2752C24.1616 30.1095 23.2428 30.7136 22.2086 31.0044C21.1743 31.2953 20.0754 31.2586 19.0628 30.8996C18.0502 30.5405 17.1737 29.8765 16.5537 28.999C15.9338 28.1216 15.6009 27.0736 15.6008 25.9992ZM13.0008 7.79922V9.09922C13.0008 9.444 12.8638 9.77466 12.62 10.0185C12.3762 10.2623 12.0456 10.3992 11.7008 10.3992H10.4008V9.09922C10.4008 8.75444 10.5377 8.42378 10.7815 8.17998C11.0253 7.93618 11.356 7.79922 11.7008 7.79922H13.0008ZM10.4008 41.5992H11.7008C12.0456 41.5992 12.3762 41.7362 12.62 41.98C12.8638 42.2238 13.0008 42.5544 13.0008 42.8992V44.1992H11.7008C11.356 44.1992 11.0253 44.0623 10.7815 43.8185C10.5377 43.5747 10.4008 43.244 10.4008 42.8992V41.5992ZM31.2008 10.3992H29.9008C29.556 10.3992 29.2253 10.2623 28.9815 10.0185C28.7377 9.77466 28.6008 9.444 28.6008 9.09922V7.79922H29.9008C30.2456 7.79922 30.5762 7.93618 30.82 8.17998C31.0638 8.42378 31.2008 8.75444 31.2008 9.09922V10.3992Z" fill="#800000"/>
</g>
</svg>
