<svg width="162" height="162" viewBox="0 0 162 162" fill="none" xmlns="http://www.w3.org/2000/svg">
<path d="M50.997 73.6502C45.7446 72.4594 41.0529 69.5185 37.6918 65.3103C34.3308 61.102 32.5 55.8762 32.5 50.4904V44.8373C32.5 40.4685 36.0456 36.9229 40.4144 36.9229H51.1056C52.1729 34.2727 54.7688 32.4004 57.7989 32.4004H106.696C109.726 32.4004 112.322 34.2727 113.389 36.9229H124.646C129.015 36.9229 132.56 40.4685 132.56 44.8373V50.4904C132.56 55.9787 130.659 61.2974 127.18 65.5426C123.702 69.7877 118.861 72.6973 113.48 73.7768C112.538 79.4164 110.089 84.6964 106.392 89.0578C102.695 93.4191 97.8868 96.6993 92.4774 98.5511L93.5221 112.132C93.5712 112.181 93.6225 112.228 93.6759 112.272C94.0331 112.566 95.0462 113.19 97.4567 113.548C101.247 114.109 104.86 117.211 104.86 121.72V125.112H115.036C115.935 125.112 116.798 125.469 117.434 126.105C118.07 126.741 118.427 127.604 118.427 128.504C118.427 129.403 118.07 130.266 117.434 130.902C116.798 131.538 115.935 131.896 115.036 131.896H49.4594C48.5598 131.896 47.6971 131.538 47.061 130.902C46.4249 130.266 46.0675 129.403 46.0675 128.504C46.0675 127.604 46.4249 126.741 47.061 126.105C47.6971 125.469 48.5598 125.112 49.4594 125.112H59.635V121.72C59.635 117.215 63.253 114.109 67.0383 113.548C69.4488 113.186 70.4619 112.566 70.8191 112.272C70.8725 112.228 70.9238 112.181 70.9729 112.132L72.0176 98.5511C66.588 96.6906 61.7651 93.3914 58.0631 89.0053C54.3612 84.6192 51.919 79.3106 50.997 73.6456V73.6502ZM57.3738 39.6093V68.5804C57.3738 75.1774 59.9944 81.5041 64.6591 86.1689C69.3238 90.8336 75.6506 93.4542 82.2475 93.4542C88.8444 93.4542 95.1712 90.8336 99.8359 86.1689C104.501 81.5041 107.121 75.1774 107.121 68.5804V39.6093C107.121 39.4965 107.076 39.3884 106.997 39.3087C106.917 39.2289 106.809 39.1841 106.696 39.1841H57.7989C57.6861 39.1841 57.578 39.2289 57.4983 39.3087C57.4185 39.3884 57.3738 39.4965 57.3738 39.6093ZM78.7064 100.044L77.734 112.675L77.7295 112.77L77.716 112.964C77.6964 113.188 77.6632 113.41 77.6165 113.629C77.3903 114.701 76.7391 116.193 75.1155 117.518C73.5417 118.812 71.2578 119.78 68.0333 120.255C67.564 120.318 67.1287 120.534 66.7941 120.87C66.6779 120.979 66.5848 121.111 66.5203 121.257C66.4558 121.403 66.4213 121.56 66.4188 121.72V125.112H98.0762V121.72C98.0737 121.56 98.0392 121.403 97.9747 121.257C97.9102 121.111 97.8171 120.979 97.7009 120.87C97.3663 120.534 96.931 120.318 96.4617 120.255C93.2372 119.78 90.9533 118.807 89.375 117.523C87.7559 116.193 87.1047 114.701 86.8785 113.634C86.8184 113.351 86.7806 113.063 86.7655 112.774L86.761 112.675L85.7886 100.044C83.4352 100.306 81.0598 100.306 78.7064 100.044ZM113.905 66.6719C117.348 65.5885 120.355 63.4352 122.49 60.5251C124.625 57.6149 125.777 54.0997 125.777 50.4904V44.8373C125.777 44.5374 125.657 44.2498 125.445 44.0378C125.233 43.8258 124.946 43.7067 124.646 43.7067H113.905V66.6719ZM50.59 43.7067H40.4144C40.1145 43.7067 39.8269 43.8258 39.6149 44.0378C39.4029 44.2498 39.2838 44.5374 39.2838 44.8373V50.4904C39.2837 53.9983 40.3709 57.4201 42.3956 60.2847C44.4203 63.1493 47.2831 65.316 50.59 66.4865V43.7067Z" fill="url(#paint0_linear_454_17530)"/>
<path d="M73.7035 63.6758L75.5316 55.7727L69.4004 50.457L77.5004 49.7539L80.6504 42.3008L83.8004 49.7539L91.9004 50.457L85.7691 55.7727L87.5973 63.6758L80.6504 59.4852L73.7035 63.6758Z" fill="url(#paint1_linear_454_17530)"/>
<path fill-rule="evenodd" clip-rule="evenodd" d="M161.2 80.55C161.2 125.037 125.136 161.1 80.6496 161.1C36.1631 161.1 0.0996094 125.037 0.0996094 80.55C0.0996094 36.0635 36.1631 0 80.6496 0C125.136 0 161.2 36.0635 161.2 80.55ZM80.6496 156.948C122.843 156.948 157.048 122.743 157.048 80.55C157.048 38.3566 122.843 4.15206 80.6496 4.15206C38.4562 4.15206 4.25167 38.3566 4.25167 80.55C4.25167 122.743 38.4562 156.948 80.6496 156.948Z" fill="url(#paint2_linear_454_17530)"/>
<circle opacity="0.2" cx="82.0004" cy="81.9008" r="75.6" fill="url(#paint3_linear_454_17530)"/>
<defs>
<linearGradient id="paint0_linear_454_17530" x1="32.5" y1="26.3254" x2="143.47" y2="122.715" gradientUnits="userSpaceOnUse">
<stop stop-color="#F26921"/>
<stop offset="1" stop-color="#ED1065"/>
</linearGradient>
<linearGradient id="paint1_linear_454_17530" x1="80.6504" y1="42.3008" x2="80.6504" y2="63.6758" gradientUnits="userSpaceOnUse">
<stop stop-color="#F26921"/>
<stop offset="1" stop-color="#ED1065"/>
</linearGradient>
<linearGradient id="paint2_linear_454_17530" x1="26.1996" y1="21.6" x2="138.7" y2="138.6" gradientUnits="userSpaceOnUse">
<stop stop-color="#F26921"/>
<stop offset="1" stop-color="#ED1065"/>
</linearGradient>
<linearGradient id="paint3_linear_454_17530" x1="7.68625" y1="36.6299" x2="172.022" y2="124.504" gradientUnits="userSpaceOnUse">
<stop stop-color="#F26921"/>
<stop offset="1" stop-color="#ED1065"/>
</linearGradient>
</defs>
</svg>
