<svg width="20" height="20" viewBox="0 0 20 20" fill="none" xmlns="http://www.w3.org/2000/svg">
<path d="M15.6243 16.6673H4.37435C3.68257 16.6674 3.01699 16.4027 2.51416 15.9276C2.01132 15.4525 1.70935 14.803 1.67018 14.1123L1.66602 13.959V5.20898C1.66596 4.73388 1.84626 4.27647 2.17049 3.92919C2.49472 3.58191 2.93869 3.37067 3.41268 3.33815L3.54102 3.33398H13.9577C14.4328 3.33393 14.8902 3.51423 15.2375 3.83846C15.5848 4.16269 15.796 4.60666 15.8285 5.08065L15.8327 5.20898V5.83398H16.4577C16.9328 5.83393 17.3902 6.01423 17.7375 6.33846C18.0848 6.66269 18.296 7.10666 18.3285 7.58065L18.3327 7.70898V13.959C18.3327 14.6508 18.0681 15.3163 17.593 15.8192C17.1179 16.322 16.4684 16.624 15.7777 16.6632L15.6243 16.6673ZM4.37435 15.4173H15.6243C15.9905 15.4173 16.3432 15.2795 16.6124 15.0314C16.8817 14.7833 17.0478 14.4431 17.0777 14.0782L17.0827 13.959V7.70898C17.0827 7.55795 17.028 7.41203 16.9287 7.29821C16.8294 7.18439 16.6923 7.11036 16.5427 7.08982L16.4577 7.08398H15.8327V13.5423C15.8327 13.6933 15.778 13.8393 15.6787 13.9531C15.5794 14.0669 15.4423 14.1409 15.2927 14.1615L15.2077 14.1673C15.0567 14.1673 14.9107 14.1126 14.7969 14.0133C14.6831 13.9141 14.6091 13.7769 14.5885 13.6273L14.5827 13.5423V5.20898C14.5827 5.05795 14.528 4.91203 14.4287 4.79821C14.3294 4.68439 14.1923 4.61036 14.0427 4.58982L13.9577 4.58398H3.54102C3.38998 4.58399 3.24406 4.63869 3.13024 4.73796C3.01642 4.83723 2.94239 4.97436 2.92185 5.12398L2.91602 5.20898V13.959C2.91603 14.325 3.05366 14.6776 3.30158 14.9468C3.54951 15.216 3.8896 15.3822 4.25435 15.4123L4.37435 15.4173ZM10.2043 12.084H12.7093C12.8677 12.084 13.0201 12.1442 13.1358 12.2523C13.2516 12.3604 13.3219 12.5084 13.3327 12.6664C13.3435 12.8244 13.2939 12.9806 13.194 13.1034C13.0941 13.2262 12.9512 13.3066 12.7943 13.3282L12.7093 13.334H10.2043C10.046 13.3339 9.89356 13.2738 9.77786 13.1657C9.66215 13.0576 9.59179 12.9096 9.58099 12.7516C9.5702 12.5936 9.61978 12.4374 9.71971 12.3146C9.81964 12.1917 9.96247 12.1114 10.1193 12.0898L10.2043 12.084ZM7.70185 9.17148C7.86761 9.17148 8.02658 9.23733 8.14379 9.35454C8.261 9.47175 8.32685 9.63072 8.32685 9.79648V12.709C8.32685 12.8747 8.261 13.0337 8.14379 13.1509C8.02658 13.2681 7.86761 13.334 7.70185 13.334H4.78935C4.62359 13.334 4.46462 13.2681 4.34741 13.1509C4.2302 13.0337 4.16435 12.8747 4.16435 12.709V9.79648C4.16435 9.63072 4.2302 9.47175 4.34741 9.35454C4.46462 9.23733 4.62359 9.17148 4.78935 9.17148H7.70185ZM7.07685 10.4215H5.41435V12.084H7.07685V10.4215ZM10.2043 9.17148H12.7093C12.8677 9.17153 13.0201 9.23169 13.1358 9.3398C13.2516 9.4479 13.3219 9.5959 13.3327 9.75388C13.3435 9.91187 13.2939 10.0681 13.194 10.1909C13.0941 10.3137 12.9512 10.3941 12.7943 10.4157L12.7093 10.4215H10.2043C10.0449 10.4231 9.8908 10.3637 9.7737 10.2554C9.65659 10.1472 9.58531 9.99821 9.57444 9.83909C9.56358 9.67997 9.61396 9.52272 9.71526 9.39953C9.81656 9.27635 9.96113 9.19655 10.1193 9.17648L10.2043 9.17148ZM4.78935 6.25232H12.7093C12.8688 6.2507 13.0229 6.3101 13.14 6.41838C13.2571 6.52665 13.3284 6.6756 13.3393 6.83471C13.3501 6.99383 13.2997 7.15108 13.1984 7.27427C13.0971 7.39745 12.9526 7.47725 12.7943 7.49732L12.7093 7.50232H4.78935C4.631 7.50227 4.47856 7.44211 4.36286 7.33401C4.24715 7.2259 4.17679 7.0779 4.16599 6.91992C4.1552 6.76193 4.20478 6.60574 4.30471 6.4829C4.40464 6.36006 4.54747 6.27974 4.70435 6.25815L4.78935 6.25232Z" fill="#800000"/>
</svg>
