<svg width="145" height="124" viewBox="0 0 145 124" fill="none" xmlns="http://www.w3.org/2000/svg">
<path d="M138.225 53.7108C138.231 48.2325 136.878 42.8383 134.288 38.0112C131.698 33.1842 127.952 29.075 123.385 26.0515C118.817 23.028 113.572 21.1847 108.117 20.6866C102.663 20.1885 97.1703 21.0512 92.1311 23.1974C87.0919 25.3436 82.6635 28.7063 79.2424 32.9844C75.8213 37.2625 73.5143 42.3225 72.528 47.7112C71.5417 53.0999 71.9069 58.6492 73.5908 63.8622C75.2748 69.0751 78.2249 73.789 82.1771 77.5816V114.869C82.1768 115.304 82.2876 115.731 82.499 116.111C82.7104 116.491 83.0154 116.81 83.385 117.038C83.7545 117.267 84.1764 117.397 84.6104 117.417C85.0445 117.436 85.4763 117.344 85.8648 117.15L105.106 107.524L124.347 117.15C124.702 117.325 125.092 117.417 125.487 117.417C126.163 117.417 126.811 117.149 127.289 116.671C127.766 116.193 128.035 115.545 128.035 114.869V77.5816C131.257 74.4972 133.821 70.792 135.572 66.6894C137.324 62.5867 138.226 58.1718 138.225 53.7108ZM77.0818 53.7108C77.0818 48.1668 78.7254 42.7473 81.8048 38.1377C84.8841 33.528 89.2608 29.9352 94.3816 27.8136C99.5023 25.692 105.137 25.1369 110.573 26.2185C116.009 27.3001 121.003 29.9698 124.922 33.89C128.841 37.8101 131.51 42.8048 132.592 48.2422C133.673 53.6797 133.118 59.3158 130.997 64.4378C128.876 69.5597 125.284 73.9376 120.675 77.0176C116.067 80.0977 110.649 81.7417 105.106 81.7417C97.6761 81.7333 90.5529 78.7773 85.2992 73.5223C80.0455 68.2673 77.0903 61.1425 77.0818 53.7108ZM122.94 110.747L106.246 102.395C105.892 102.218 105.502 102.126 105.106 102.126C104.71 102.126 104.32 102.218 103.966 102.395L87.2724 110.747V81.6015C92.5924 85.0204 98.7826 86.838 105.106 86.838C111.429 86.838 117.62 85.0204 122.94 81.6015V110.747ZM66.8912 94.483C66.8912 95.1588 66.6228 95.807 66.145 96.2849C65.6673 96.7628 65.0193 97.0313 64.3436 97.0313H8.29529C6.26826 97.0313 4.32424 96.2258 2.89091 94.7922C1.45758 93.3585 0.652344 91.414 0.652344 89.3865V7.84206C0.652344 5.81453 1.45758 3.87005 2.89091 2.43637C4.32424 1.0027 6.26826 0.197266 8.29529 0.197266H120.392C122.419 0.197266 124.363 1.0027 125.796 2.43637C127.23 3.87005 128.035 5.81453 128.035 7.84206C128.035 8.5179 127.766 9.16606 127.289 9.64395C126.811 10.1218 126.163 10.3903 125.487 10.3903C124.811 10.3903 124.163 10.1218 123.686 9.64395C123.208 9.16606 122.94 8.5179 122.94 7.84206C122.94 7.16621 122.671 6.51805 122.193 6.04016C121.716 5.56227 121.068 5.29379 120.392 5.29379H8.29529C7.61961 5.29379 6.97161 5.56227 6.49383 6.04016C6.01606 6.51805 5.74764 7.16621 5.74764 7.84206V89.3865C5.74764 90.0623 6.01606 90.7105 6.49383 91.1884C6.97161 91.6663 7.61961 91.9347 8.29529 91.9347H64.3436C65.0193 91.9347 65.6673 92.2032 66.145 92.6811C66.6228 93.159 66.8912 93.8072 66.8912 94.483ZM56.7006 58.8073C56.7006 59.4832 56.4322 60.1313 55.9544 60.6092C55.4767 61.0871 54.8287 61.3556 54.153 61.3556H28.6765C28.0008 61.3556 27.3528 61.0871 26.875 60.6092C26.3972 60.1313 26.1288 59.4832 26.1288 58.8073C26.1288 58.1315 26.3972 57.4833 26.875 57.0054C27.3528 56.5275 28.0008 56.2591 28.6765 56.2591H54.153C54.8287 56.2591 55.4767 56.5275 55.9544 57.0054C56.4322 57.4833 56.7006 58.1315 56.7006 58.8073ZM56.7006 38.4212C56.7006 39.0971 56.4322 39.7452 55.9544 40.2231C55.4767 40.701 54.8287 40.9695 54.153 40.9695H28.6765C28.0008 40.9695 27.3528 40.701 26.875 40.2231C26.3972 39.7452 26.1288 39.0971 26.1288 38.4212C26.1288 37.7454 26.3972 37.0972 26.875 36.6193C27.3528 36.1414 28.0008 35.873 28.6765 35.873H54.153C54.8287 35.873 55.4767 36.1414 55.9544 36.6193C56.4322 37.0972 56.7006 37.7454 56.7006 38.4212Z" fill="url(#paint0_linear_454_18076)"/>
<path opacity="0.2" fill-rule="evenodd" clip-rule="evenodd" d="M140.8 43.7085C143.39 48.5356 144.743 53.9298 144.737 59.4081C144.738 63.8691 143.836 68.284 142.084 72.3866C140.333 76.4892 137.769 80.1945 134.547 83.2789V120.566C134.547 121.242 134.278 121.89 133.8 122.368C133.323 122.846 132.675 123.115 131.999 123.115C131.603 123.114 131.213 123.023 130.859 122.847L111.618 113.221L92.3766 122.847C91.988 123.042 91.5562 123.133 91.1221 123.114C90.6881 123.094 90.2662 122.964 89.8967 122.736C89.5271 122.507 89.2222 122.188 89.0107 121.808C88.7993 121.428 88.6885 121.001 88.6888 120.566V83.2789C84.7366 79.4862 81.7865 74.7724 80.1025 69.5595C78.4186 64.3465 78.0534 58.7972 79.0397 53.4085C80.026 48.0197 82.333 42.9598 85.7541 38.6816C89.1752 34.4035 93.6036 31.0408 98.6428 28.8946C103.682 26.7485 109.175 25.8858 114.629 26.3839C120.083 26.882 125.329 28.7253 129.896 31.7488C134.464 34.7722 138.21 38.8815 140.8 43.7085ZM88.3165 43.8349C85.2371 48.4446 83.5935 53.8641 83.5935 59.4081C83.602 66.8397 86.5572 73.9646 91.8109 79.2196C97.0647 84.4746 104.188 87.4305 111.618 87.439C117.16 87.439 122.579 85.795 127.187 82.7149C131.796 79.6348 135.388 75.257 137.509 70.135C139.63 65.013 140.185 59.377 139.103 53.9395C138.022 48.502 135.353 43.5074 131.434 39.5872C127.515 35.667 122.521 32.9974 117.085 31.9158C111.649 30.8342 106.014 31.3893 100.893 33.5109C95.7726 35.6325 91.3958 39.2253 88.3165 43.8349ZM112.758 108.093L129.451 116.445V87.2988C124.131 90.7177 117.941 92.5353 111.618 92.5353C105.294 92.5353 99.1041 90.7177 93.7841 87.2988V116.445L110.478 108.093C110.832 107.915 111.222 107.823 111.618 107.823C112.013 107.823 112.404 107.915 112.758 108.093ZM72.6568 101.982C73.1345 101.504 73.4029 100.856 73.4029 100.18C73.4029 99.5044 73.1345 98.8563 72.6568 98.3784C72.179 97.9005 71.531 97.632 70.8553 97.632H14.807C14.1313 97.632 13.4833 97.3635 13.0056 96.8856C12.5278 96.4078 12.2594 95.7596 12.2594 95.0837V13.5393C12.2594 12.8635 12.5278 12.2153 13.0056 11.7374C13.4833 11.2595 14.1313 10.9911 14.807 10.9911H126.904C127.579 10.9911 128.227 11.2595 128.705 11.7374C129.183 12.2153 129.451 12.8635 129.451 13.5393C129.451 14.2152 129.72 14.8633 130.197 15.3412C130.675 15.8191 131.323 16.0876 131.999 16.0876C132.675 16.0876 133.323 15.8191 133.8 15.3412C134.278 14.8633 134.547 14.2152 134.547 13.5393C134.547 11.5118 133.741 9.56731 132.308 8.13364C130.875 6.69996 128.931 5.89453 126.904 5.89453H14.807C12.78 5.89453 10.836 6.69996 9.40263 8.13364C7.9693 9.56731 7.16406 11.5118 7.16406 13.5393V95.0837C7.16406 97.1113 7.9693 99.0557 9.40263 100.489C10.836 101.923 12.78 102.729 14.807 102.729H70.8553C71.531 102.729 72.179 102.46 72.6568 101.982ZM62.4662 66.3065C62.9439 65.8286 63.2123 65.1804 63.2123 64.5046C63.2123 63.8287 62.9439 63.1806 62.4662 62.7027C61.9884 62.2248 61.3404 61.9563 60.6647 61.9563H35.1882C34.5125 61.9563 33.8645 62.2248 33.3867 62.7027C32.909 63.1806 32.6406 63.8287 32.6406 64.5046C32.6406 65.1804 32.909 65.8286 33.3867 66.3065C33.8645 66.7844 34.5125 67.0528 35.1882 67.0528H60.6647C61.3404 67.0528 61.9884 66.7844 62.4662 66.3065ZM62.4662 45.9204C62.9439 45.4425 63.2123 44.7943 63.2123 44.1185C63.2123 43.4426 62.9439 42.7945 62.4662 42.3166C61.9884 41.8387 61.3404 41.5702 60.6647 41.5702H35.1882C34.5125 41.5702 33.8645 41.8387 33.3867 42.3166C32.909 42.7945 32.6406 43.4426 32.6406 44.1185C32.6406 44.7943 32.909 45.4425 33.3867 45.9204C33.8645 46.3983 34.5125 46.6667 35.1882 46.6667H60.6647C61.3404 46.6667 61.9884 46.3983 62.4662 45.9204Z" fill="url(#paint1_linear_454_18076)"/>
<ellipse opacity="0.2" cx="106.884" cy="55.5524" rx="27.6774" ry="27.6774" fill="url(#paint2_linear_454_18076)"/>
<path opacity="0.2" fill-rule="evenodd" clip-rule="evenodd" d="M89.2532 85.6719H89.1797V107.447H124.794V85.7528C119.995 88.7236 113.823 90.5107 107.089 90.5107C100.293 90.5107 94.0702 88.6911 89.2532 85.6719Z" fill="url(#paint3_linear_454_18076)"/>
<rect opacity="0.2" x="116.652" y="107.447" width="6.10531" height="3.66319" fill="url(#paint4_linear_454_18076)"/>
<rect opacity="0.2" x="89.1797" y="107.447" width="6.10531" height="3.66319" fill="url(#paint5_linear_454_18076)"/>
<defs>
<linearGradient id="paint0_linear_454_18076" x1="1.82231" y1="23.7108" x2="139.772" y2="110.282" gradientUnits="userSpaceOnUse">
<stop stop-color="#F26921"/>
<stop offset="1" stop-color="#ED1065"/>
</linearGradient>
<linearGradient id="paint1_linear_454_18076" x1="8.33403" y1="29.408" x2="146.284" y2="115.979" gradientUnits="userSpaceOnUse">
<stop stop-color="#F26921"/>
<stop offset="1" stop-color="#ED1065"/>
</linearGradient>
<linearGradient id="paint2_linear_454_18076" x1="79.6778" y1="38.9786" x2="139.842" y2="71.1496" gradientUnits="userSpaceOnUse">
<stop stop-color="#F26921"/>
<stop offset="1" stop-color="#ED1065"/>
</linearGradient>
<linearGradient id="paint3_linear_454_18076" x1="89.4826" y1="90.0398" x2="117.687" y2="114.706" gradientUnits="userSpaceOnUse">
<stop stop-color="#F26921"/>
<stop offset="1" stop-color="#ED1065"/>
</linearGradient>
<linearGradient id="paint4_linear_454_18076" x1="116.704" y1="108.182" x2="121.46" y2="112.42" gradientUnits="userSpaceOnUse">
<stop stop-color="#F26921"/>
<stop offset="1" stop-color="#ED1065"/>
</linearGradient>
<linearGradient id="paint5_linear_454_18076" x1="89.2316" y1="108.182" x2="93.9874" y2="112.42" gradientUnits="userSpaceOnUse">
<stop stop-color="#F26921"/>
<stop offset="1" stop-color="#ED1065"/>
</linearGradient>
</defs>
</svg>
