<svg width="155" height="96" viewBox="0 0 155 96" fill="none" xmlns="http://www.w3.org/2000/svg">
<path d="M76.2994 62.1131C77.2894 62.1131 78.2794 61.9481 79.2694 61.6181L142.134 38.6831L142.464 47.0981C142.464 48.2531 143.454 49.2431 144.609 49.2431C145.764 49.2431 146.754 48.2531 146.754 46.9331L146.424 37.1981L148.734 36.3731C150.714 35.7131 152.034 33.8981 152.034 31.7531C152.034 29.6081 150.714 27.7931 148.734 27.1331L79.1044 1.22815C77.1244 0.568154 74.9794 0.568154 73.1644 1.22815L3.53437 26.4731C1.55437 27.1331 0.234375 28.9481 0.234375 31.0931C0.234375 33.2381 1.55437 35.0531 3.53437 35.7131L73.3294 61.4531C74.1544 61.7831 75.3094 62.1131 76.2994 62.1131ZM4.68937 31.0931C4.68937 30.7631 4.85437 30.5981 5.01937 30.5981L74.6494 5.35315C75.1444 5.18815 75.6394 5.02315 76.1344 5.02315C76.6294 5.02315 77.1244 5.18815 77.6194 5.35315L147.414 31.0931C147.744 31.2581 147.744 31.4231 147.744 31.5881C147.744 31.9181 147.579 32.0831 147.414 32.0831L145.104 32.9081C144.939 32.9081 144.774 32.7431 144.444 32.7431L76.7944 27.9581C75.6394 27.9581 74.4844 28.7831 74.4844 29.9381C74.3194 31.0931 75.3094 32.2481 76.4644 32.2481L135.369 36.3731L77.7844 57.3281C76.7944 57.6581 75.8044 57.6581 74.8144 57.3281L5.01937 31.5881C4.68937 31.5881 4.68937 31.4231 4.68937 31.0931ZM149.889 63.2681C151.209 61.9481 152.034 60.1331 152.034 58.1531C152.034 54.1931 148.899 51.0581 144.939 51.0581C140.979 51.0581 137.844 54.1931 137.844 58.1531C137.844 60.2981 138.669 62.1131 140.154 63.4331C136.854 72.5081 134.379 84.7181 134.709 89.3381C134.874 90.6581 135.534 91.8131 136.689 92.8031C138.339 94.2881 140.319 95.1131 144.774 95.1131C149.229 95.1131 151.209 94.2881 152.859 92.8031C154.014 91.9781 154.674 90.6581 154.839 89.3381C155.334 84.8831 153.189 72.6731 149.889 63.2681ZM144.939 55.5131C146.424 55.5131 147.579 56.6681 147.579 58.1531C147.579 59.6381 146.424 60.7931 144.939 60.7931C144.609 60.7931 144.279 60.7931 143.949 60.6281C143.784 60.6281 143.784 60.4631 143.619 60.4631H143.454C142.629 59.9681 142.134 59.1431 142.134 58.1531C142.299 56.6681 143.454 55.5131 144.939 55.5131ZM150.549 88.8431C150.549 89.0081 150.384 89.1731 150.219 89.3381C149.559 89.8331 148.734 90.4931 144.939 90.4931C141.144 90.4931 140.319 89.8331 139.494 89.1731C139.329 89.0081 139.164 88.8431 139.164 88.6781C138.834 85.2131 141.144 73.8281 144.279 65.0831C144.444 65.0831 144.774 65.0831 144.939 65.0831C145.269 65.0831 145.599 65.0831 145.929 65.0831C149.064 74.1581 150.879 85.3781 150.549 88.8431ZM126.954 50.2331V81.0881C126.954 83.5631 125.469 85.7081 123.159 86.6981C107.319 93.2981 91.6444 95.6081 77.6194 95.6081C54.5194 95.6081 35.8744 89.5031 28.6144 86.6981C26.3044 85.8731 24.8194 83.5631 24.8194 81.0881V50.2331C24.8194 49.0781 25.8094 48.0881 26.9644 48.0881C28.1194 48.0881 29.1094 49.0781 29.1094 50.2331V80.9231C29.1094 81.5831 29.6044 82.2431 30.0994 82.4081C41.3194 86.6981 80.9194 99.4031 121.344 82.4081C122.004 82.0781 122.334 81.5831 122.334 80.9231V50.2331C122.334 49.0781 123.324 48.0881 124.479 48.0881C125.634 48.0881 126.954 49.0781 126.954 50.2331Z" fill="url(#paint0_linear_189_3067)"/>
<defs>
<linearGradient id="paint0_linear_189_3067" x1="22.0193" y1="12.6067" x2="151.073" y2="97.9731" gradientUnits="userSpaceOnUse">
<stop stop-color="#FCB316"/>
<stop offset="1" stop-color="#F26921"/>
</linearGradient>
</defs>
</svg>
