<svg width="166" height="109" viewBox="0 0 166 109" fill="none" xmlns="http://www.w3.org/2000/svg">
<g filter="url(#filter0_d_454_17733)">
<path d="M150.054 96.8414H6.50762C4.56434 96.8414 2.97656 95.2522 2.97656 93.3089V19.4837C2.97656 17.5404 4.56434 15.9512 6.50762 15.9512H150.054C151.998 15.9512 153.587 17.5404 153.587 19.4837V93.3089C153.587 95.2522 151.998 96.8414 150.054 96.8414Z" fill="#5CC8DF"/>
<path d="M148.819 12.9494C148.819 41.0322 148.819 95.4288 148.819 95.4288C148.819 95.4288 135.753 92.4275 113.328 92.0734C95.8487 91.7207 77.3096 96.4897 77.3096 96.4897C77.3096 96.4897 66.892 92.4275 44.9975 91.7207C22.5746 91.0139 7.74219 95.96 7.74219 95.96C7.74219 95.96 7.74219 41.0322 7.74219 12.9494C8.9787 12.5967 10.5679 12.067 12.3327 11.7143C12.3327 10.6534 12.3327 9.59394 12.3327 8.53448C19.3962 6.41555 30.6962 3.58984 44.8218 3.58984C59.4758 3.58984 71.1299 6.2385 78.192 8.53448C78.192 8.53448 96.5555 3.58984 110.857 3.58984C125.512 3.58984 137.165 6.2385 144.228 8.53448C144.228 9.59394 144.228 10.6534 144.228 11.7143C145.993 12.067 147.407 12.5967 148.819 12.9494Z" fill="#F8F0E1"/>
<path d="M69.366 58.3414C69.366 59.2238 68.8363 59.5779 68.3065 58.6941L64.4228 54.1021C63.716 53.3954 62.6566 53.2197 61.9512 53.9251L57.1836 57.8117C56.4768 58.3414 55.7715 58.1644 55.7715 57.1049V4.47311C55.7715 3.41365 56.4768 2.88391 57.5363 3.06096L67.9539 5.00284C68.8363 5.17989 69.7201 6.0623 69.7201 7.12318L69.366 58.3414Z" fill="#82CAA4"/>
<mask id="mask0_454_17733" style="mask-type:luminance" maskUnits="userSpaceOnUse" x="2" y="2" width="153" height="96">
<path d="M2 2H154.562V97.7256H2V2Z" fill="white"/>
</mask>
<g mask="url(#mask0_454_17733)">
<path d="M150.055 15.0712H149.703V12.9508C149.703 12.5982 149.527 12.2455 148.997 12.0684C147.584 11.7157 146.349 11.3616 144.935 11.009V8.53594C144.935 8.18325 144.76 7.82916 144.23 7.65352C133.635 4.29667 122.335 2.70748 110.858 2.70748C103.443 2.70748 94.9678 4.12104 89.1408 5.1805C82.6084 6.41701 79.6071 7.12379 78.3706 7.65352C75.7219 6.76969 72.8976 6.06291 70.0719 5.53318C69.7193 4.82782 68.8354 4.29667 68.1301 4.12104L57.7125 2.17774C57.0058 2.00069 56.3004 2.17774 55.7707 2.70748C55.5936 2.88452 55.4166 3.06157 55.2409 3.23721C51.8855 2.88452 48.7071 2.70748 45.3531 2.70748C45.1761 2.70748 44.999 2.70748 44.999 2.70748C33.6991 2.70748 22.5762 4.47372 11.9816 7.65352C11.6289 7.82916 11.4518 8.18325 11.4518 8.53594V11.009C10.0397 11.3616 8.80319 11.7157 7.39105 12.0684C7.03837 12.2455 6.86132 12.5982 6.86132 12.9508V15.0712H6.50864C4.03562 15.0712 2.09375 17.0131 2.09375 19.4861V93.3114C2.09375 95.7844 4.03562 97.7263 6.50864 97.7263H150.055C152.528 97.7263 154.47 95.7844 154.47 93.3114V19.4861C154.47 17.0131 152.528 15.0712 150.055 15.0712ZM149.703 15.9536V15.2468C149.88 15.4239 149.88 15.778 149.703 15.9536ZM144.76 92.0749C144.935 91.8992 145.112 91.7222 145.112 91.3681V12.7752C145.995 12.9508 147.054 13.3049 147.938 13.482V94.1952C144.405 93.4884 131.87 91.3681 113.33 91.0154C99.2057 90.8383 84.3732 93.8411 79.0774 94.9006V92.9587C83.4908 91.8992 97.6165 88.7194 111.035 88.8965C131.516 89.2491 143.876 92.2519 143.876 92.2519C144.23 92.2519 144.583 92.2519 144.76 92.0749ZM147.408 95.9614H83.4908C90.3773 94.5479 102.207 92.6046 113.507 92.7816C131.693 93.1343 143.876 95.2547 147.408 95.9614ZM110.858 4.47372C111.035 4.47372 111.212 4.47372 111.212 4.47372C122.158 4.47372 132.93 6.06291 143.346 9.24272V90.3086C139.815 89.6032 128.338 87.4829 111.212 87.1302C97.9692 86.9532 84.1976 89.9559 79.253 91.0154V9.24272C79.253 9.24272 79.253 9.24272 79.253 9.06567C82.4314 8.35889 98.3218 4.47372 110.858 4.47372ZM56.6531 4.47372C56.6531 4.29667 56.6531 4.12104 56.8301 3.94399C57.0058 3.76694 57.1828 3.76694 57.3599 3.76694L67.776 5.71023C68.3057 5.88728 68.8354 6.41701 68.8354 6.94674L68.4828 57.6352L65.1287 53.573C64.599 52.8662 63.8922 52.6906 63.0098 52.6906C62.4801 52.6906 61.7733 52.8662 61.2436 53.2203L56.476 57.1055V4.47372H56.6531ZM13.2181 9.24272C23.4586 6.23996 34.0532 4.65077 44.999 4.47372C48.3544 4.47372 51.7085 4.65077 55.0639 4.82782V57.1055C55.0639 58.342 55.7707 58.6947 55.9463 58.8717C56.3004 59.0488 57.0058 59.2244 57.8882 58.5176L62.6557 54.6325C63.0098 54.2798 63.5396 54.4554 63.8922 54.8095L67.6003 59.4015C68.1301 60.1083 68.6598 60.1083 69.0125 60.1083C69.1895 60.1083 69.3652 60.1083 69.3652 60.1083C69.7193 59.9312 70.249 59.5785 70.249 58.5176L70.6017 7.65352C72.8976 8.18325 75.1922 8.71299 77.4882 9.41977C77.4882 9.41977 77.4882 9.41977 77.4882 9.5954V91.7222C75.5449 91.0154 65.8341 87.66 47.295 87.1302C45.8828 87.1302 44.4693 87.1302 43.0572 87.1302C27.6964 87.1302 16.5721 90.133 13.2181 91.1924V9.24272ZM8.62755 13.6576C9.50997 13.3049 10.5694 13.1279 11.4518 12.9508V92.0749C11.4518 92.4289 11.6289 92.6046 11.8045 92.7816C11.9816 92.9587 12.3342 92.9587 12.6883 92.9587C12.864 92.9587 26.814 88.0126 47.295 88.7194C67.2462 89.4262 77.1341 93.3114 77.1341 93.4884C77.3111 93.4884 77.3111 93.4884 77.4882 93.4884V95.7844C75.7219 95.0776 65.3044 91.7222 45.1761 91.0154C43.5869 91.0154 42.1747 91.0154 40.7626 91.0154C24.341 91.0154 12.3342 94.0181 8.62755 95.0776V13.6576ZM72.7206 95.9614H10.5694C15.8667 94.5479 28.4018 92.0749 44.999 92.6046C58.5949 92.9587 67.776 94.7249 72.7206 95.9614ZM3.85999 93.3114V19.4861C3.85999 18.0739 5.09508 16.8374 6.50864 16.8374H6.86132V95.9614C6.86132 95.9614 6.86132 95.9614 6.86132 96.1371H6.50864C4.91945 95.9614 3.85999 94.9006 3.85999 93.3114ZM152.704 93.3114C152.704 94.7249 151.469 95.9614 150.055 95.9614H149.527C149.703 95.7844 149.88 95.6073 149.88 95.4303V16.8374H150.233C151.645 16.8374 152.881 18.0739 152.881 19.4861V93.3114H152.704Z" fill="#78633F"/>
</g>
</g>
<defs>
<filter id="filter0_d_454_17733" x="0.842755" y="0.860333" width="164.887" height="108.123" filterUnits="userSpaceOnUse" color-interpolation-filters="sRGB">
<feFlood flood-opacity="0" result="BackgroundImageFix"/>
<feColorMatrix in="SourceAlpha" type="matrix" values="0 0 0 0 0 0 0 0 0 0 0 0 0 0 0 0 0 0 127 0" result="hardAlpha"/>
<feOffset dx="5.00398" dy="5.00398"/>
<feGaussianBlur stdDeviation="3.12749"/>
<feComposite in2="hardAlpha" operator="out"/>
<feColorMatrix type="matrix" values="0 0 0 0 0 0 0 0 0 0 0 0 0 0 0 0 0 0 0.25 0"/>
<feBlend mode="normal" in2="BackgroundImageFix" result="effect1_dropShadow_454_17733"/>
<feBlend mode="normal" in="SourceGraphic" in2="effect1_dropShadow_454_17733" result="shape"/>
</filter>
</defs>
</svg>
