<svg width="20" height="20" viewBox="0 0 20 20" fill="none" xmlns="http://www.w3.org/2000/svg">
<path d="M16.25 8.75H15V10H16.25C16.7471 10.0005 17.2238 10.1982 17.5753 10.5497C17.9268 10.9012 18.1245 11.3779 18.125 11.875V14.375H19.375V11.875C19.374 11.0465 19.0444 10.2522 18.4586 9.66639C17.8728 9.08055 17.0785 8.75099 16.25 8.75ZM15 2.5C15.3708 2.5 15.7334 2.60997 16.0417 2.81599C16.35 3.02202 16.5904 3.31486 16.7323 3.65747C16.8742 4.00008 16.9113 4.37708 16.839 4.74079C16.7666 5.10451 16.588 5.4386 16.3258 5.70083C16.0636 5.96305 15.7295 6.14163 15.3658 6.21397C15.0021 6.28632 14.6251 6.24919 14.2825 6.10727C13.9399 5.96536 13.647 5.72504 13.441 5.41669C13.235 5.10835 13.125 4.74584 13.125 4.375C13.125 3.87772 13.3225 3.40081 13.6742 3.04917C14.0258 2.69754 14.5027 2.5 15 2.5ZM15 1.25C14.3819 1.25 13.7777 1.43328 13.2638 1.77666C12.7499 2.12004 12.3494 2.6081 12.1129 3.17911C11.8764 3.75013 11.8145 4.37847 11.935 4.98466C12.0556 5.59085 12.3533 6.14767 12.7903 6.58471C13.2273 7.02175 13.7842 7.31938 14.3903 7.43995C14.9965 7.56053 15.6249 7.49865 16.1959 7.26212C16.7669 7.0256 17.255 6.62506 17.5983 6.11116C17.9417 5.59725 18.125 4.99307 18.125 4.375C18.125 3.5462 17.7958 2.75134 17.2097 2.16529C16.6237 1.57924 15.8288 1.25 15 1.25ZM14.375 18.75H13.125V17.5C13.1245 17.0029 12.9268 16.5262 12.5753 16.1747C12.2238 15.8232 11.7471 15.6255 11.25 15.625H8.75C8.25287 15.6255 7.77625 15.8232 7.42472 16.1747C7.0732 16.5262 6.8755 17.0029 6.875 17.5V18.75H5.625V17.5C5.62599 16.6715 5.95555 15.8772 6.54139 15.2914C7.12722 14.7056 7.9215 14.376 8.75 14.375H11.25C12.0785 14.376 12.8728 14.7056 13.4586 15.2914C14.0444 15.8772 14.374 16.6715 14.375 17.5V18.75ZM10 8.125C10.3708 8.125 10.7334 8.23497 11.0417 8.44099C11.35 8.64702 11.5904 8.93986 11.7323 9.28247C11.8742 9.62508 11.9113 10.0021 11.839 10.3658C11.7666 10.7295 11.588 11.0636 11.3258 11.3258C11.0636 11.588 10.7295 11.7666 10.3658 11.839C10.0021 11.9113 9.62508 11.8742 9.28247 11.7323C8.93986 11.5904 8.64702 11.35 8.44099 11.0417C8.23497 10.7334 8.125 10.3708 8.125 10C8.125 9.50272 8.32254 9.02581 8.67417 8.67417C9.02581 8.32254 9.50272 8.125 10 8.125ZM10 6.875C9.38193 6.875 8.77775 7.05828 8.26384 7.40166C7.74994 7.74504 7.3494 8.2331 7.11288 8.80411C6.87635 9.37513 6.81447 10.0035 6.93505 10.6097C7.05562 11.2158 7.35325 11.7727 7.79029 12.2097C8.22733 12.6467 8.78415 12.9444 9.39034 13.065C9.99653 13.1855 10.6249 13.1236 11.1959 12.8871C11.7669 12.6506 12.255 12.2501 12.5983 11.7362C12.9417 11.2223 13.125 10.6181 13.125 10C13.125 9.1712 12.7958 8.37634 12.2097 7.79029C11.6237 7.20424 10.8288 6.875 10 6.875ZM5 8.75H3.75C2.9215 8.75099 2.12722 9.08055 1.54139 9.66639C0.955551 10.2522 0.625992 11.0465 0.625 11.875V14.375H1.875V11.875C1.8755 11.3779 2.0732 10.9012 2.42472 10.5497C2.77625 10.1982 3.25287 10.0005 3.75 10H5V8.75ZM5 2.5C5.37084 2.5 5.73335 2.60997 6.04169 2.81599C6.35004 3.02202 6.59036 3.31486 6.73227 3.65747C6.87419 4.00008 6.91132 4.37708 6.83897 4.74079C6.76663 5.10451 6.58805 5.4386 6.32583 5.70083C6.0636 5.96305 5.72951 6.14163 5.36579 6.21397C5.00208 6.28632 4.62508 6.24919 4.28247 6.10727C3.93986 5.96536 3.64702 5.72504 3.44099 5.41669C3.23497 5.10835 3.125 4.74584 3.125 4.375C3.125 3.87772 3.32254 3.40081 3.67417 3.04917C4.02581 2.69754 4.50272 2.5 5 2.5ZM5 1.25C4.38193 1.25 3.77775 1.43328 3.26384 1.77666C2.74994 2.12004 2.3494 2.6081 2.11288 3.17911C1.87635 3.75013 1.81447 4.37847 1.93505 4.98466C2.05562 5.59085 2.35325 6.14767 2.79029 6.58471C3.22733 7.02175 3.78415 7.31938 4.39034 7.43995C4.99653 7.56053 5.62487 7.49865 6.19589 7.26212C6.7669 7.0256 7.25496 6.62506 7.59834 6.11116C7.94172 5.59725 8.125 4.99307 8.125 4.375C8.125 3.5462 7.79576 2.75134 7.20971 2.16529C6.62366 1.57924 5.8288 1.25 5 1.25Z" fill="#800000"/>
</svg>
