<svg width="30" height="30" viewBox="0 0 30 30" fill="none" xmlns="http://www.w3.org/2000/svg">
<g clip-path="url(#clip0_454_11293)">
<path d="M15 0C23.2845 0 30 6.7155 30 15C30 23.2845 23.2845 30 15 30C6.7155 30 0 23.2845 0 15C0 6.7155 6.7155 0 15 0ZM15 2.0925C11.5767 2.0925 8.29364 3.45239 5.87302 5.87302C3.45239 8.29364 2.0925 11.5767 2.0925 15C2.0925 18.4233 3.45239 21.7064 5.87302 24.127C8.29364 26.5476 11.5767 27.9075 15 27.9075C18.4233 27.9075 21.7064 26.5476 24.127 24.127C26.5476 21.7064 27.9075 18.4233 27.9075 15C27.9075 11.5767 26.5476 8.29364 24.127 5.87302C21.7064 3.45239 18.4233 2.0925 15 2.0925ZM18.072 5.232C19.0472 5.60074 19.9591 6.11894 20.775 6.768C20.9625 6.912 21.1425 7.065 21.3195 7.2285C21.3525 7.257 21.381 7.287 21.4125 7.3185C21.9045 7.773 22.3515 8.2845 22.7475 8.8335C22.803 8.91 22.8615 8.9805 22.9125 9.054C23.0085 9.195 23.0985 9.342 23.1885 9.489C23.3433 9.73694 23.486 9.99224 23.616 10.254C23.6955 10.404 23.766 10.5675 23.8395 10.7265C23.889 10.836 23.9445 10.9485 23.9895 11.0655C24.099 11.3385 24.1965 11.613 24.285 11.8935C24.3135 11.9865 24.336 12.0855 24.363 12.1785C24.5152 12.7122 24.623 13.2576 24.6855 13.809C24.696 13.908 24.711 14.013 24.7185 14.1105C24.7485 14.433 24.768 14.7585 24.768 15.0855C24.7661 15.7244 24.7073 16.362 24.5925 16.9905C24.5715 17.1 24.5535 17.211 24.5325 17.316C24.4725 17.601 24.4035 17.88 24.3225 18.156C23.559 17.8065 22.662 17.292 22.428 16.7265C22.002 15.7065 20.868 15.1965 20.406 13.8825C19.6455 11.7075 20.655 11.7645 20.796 10.4145C20.862 9.7815 20.406 9.6495 19.8045 9.9075C18.4005 10.497 17.925 10.2705 17.6415 9.213C17.358 8.1585 17.6415 7.8645 17.6415 7.8645C16.6845 7.9695 16.6485 6.804 17.145 6.51C17.49 6.312 17.7825 5.7045 18.072 5.232ZM14.061 11.6955C14.946 11.2905 15.7635 11.145 15.6555 10.449C15.5505 9.7605 15.3015 9.2475 13.9185 9.2475C12.5355 9.2475 13.1385 11.145 12.0045 10.0125C10.8705 8.8875 12.252 9.1785 12.819 8.922C13.3875 8.664 13.9545 7.6065 12.9615 7.5315C11.97 7.461 12.1815 7.9695 11.4015 7.6815C10.6215 7.3875 10.2675 8.7 9.7695 8.517C9.4425 8.394 8.565 7.719 7.983 7.0545C6.7954 8.08745 5.85522 9.37417 5.232 10.8195C5.4015 12.78 6.438 13.809 6.438 13.809C6.438 13.809 6.9705 15.0855 10.1625 16.6545C10.1625 16.6545 10.7625 16.6905 10.0545 15.963C9.3465 15.2325 8.565 14.3205 9.4515 13.848C10.3365 13.3695 10.587 13.41 10.8 14.2875C11.0115 15.1635 11.7225 14.6475 11.7915 13.809C11.8635 12.9735 13.1745 12.1005 14.061 11.6955ZM13.386 16.1055C14.913 16.1055 14.7705 16.581 15.9765 17.643C17.181 18.699 16.5435 19.7565 15.939 20.5605C15.3375 21.3615 14.805 22.2705 14.5215 23.9175C14.2365 25.5585 13.4925 24.3885 13.2465 23.988C12.9975 23.5845 12.6075 23.2215 12.7155 21.543C12.8205 19.866 11.685 20.853 11.2965 18.663C10.9065 16.476 11.8635 16.107 13.3875 16.107L13.386 16.1055ZM20.8515 17.5515C21.258 17.292 22.2315 17.9685 22.0215 18.681C21.807 19.3935 21.135 18.9915 20.7975 18.681C20.46 18.372 20.442 17.8065 20.8515 17.5515Z" fill="#800000"/>
</g>
<defs>
<clipPath id="clip0_454_11293">
<rect width="30" height="30" fill="white"/>
</clipPath>
</defs>
</svg>
