<svg width="353" height="149" viewBox="0 0 353 149" fill="none" xmlns="http://www.w3.org/2000/svg">
<g filter="url(#filter0_d_471_8386)">
<path d="M345.8 3C345.8 34.165 345.27 56.686 344.211 70.564C342.891 87.853 327.804 103.894 311.365 110.466C306.338 112.476 261.216 121.388 176 137.2L175.993 137.198L173.471 136.728C90.424 121.21 46.411 112.456 41.435 110.466C24.996 103.894 9.908 86.753 8.589 69.464C7.553 55.898 7.024 34.423 7 5.04V3H345.8Z" fill="black"/>
</g>
<path d="M345.8 3C345.8 34.165 345.27 56.686 344.211 70.564C342.891 87.853 327.804 103.894 311.365 110.466C306.338 112.476 261.216 121.388 176 137.2L175.993 137.198L173.471 136.728C90.424 121.21 46.411 112.456 41.435 110.466C24.996 103.894 9.908 86.753 8.589 69.464C7.553 55.898 7.024 34.423 7 5.04V3H345.8Z" fill="white"/>
<mask id="path-3-inside-1_471_8386" fill="white">
<path fill-rule="evenodd" clip-rule="evenodd" d="M45.0378 49.7266L32.0586 73.8932H45.0378V73.9281H60.0249V52.724C60.0249 51.0686 58.6829 49.7266 57.0275 49.7266H45.0378Z"/>
</mask>
<path fill-rule="evenodd" clip-rule="evenodd" d="M45.0378 49.7266L32.0586 73.8932H45.0378V73.9281H60.0249V52.724C60.0249 51.0686 58.6829 49.7266 57.0275 49.7266H45.0378Z" fill="#4DC0EC"/>
<path d="M32.0586 73.8932L31.6625 73.6805L31.3068 74.3428H32.0586V73.8932ZM45.0378 49.7266V49.277H44.7689L44.6417 49.5138L45.0378 49.7266ZM45.0378 73.8932H45.4874V73.4436H45.0378V73.8932ZM45.0378 73.9281H44.5882V74.3777H45.0378V73.9281ZM60.0249 73.9281V74.3777H60.4745V73.9281H60.0249ZM32.4547 74.106L45.4339 49.9393L44.6417 49.5138L31.6625 73.6805L32.4547 74.106ZM45.0378 73.4436H32.0586V74.3428H45.0378V73.4436ZM45.4874 73.9281V73.8932H44.5882V73.9281H45.4874ZM60.0249 73.4785H45.0378V74.3777H60.0249V73.4785ZM59.5753 52.724V73.9281H60.4745V52.724H59.5753ZM57.0275 50.1762C58.4346 50.1762 59.5753 51.3169 59.5753 52.724H60.4745C60.4745 50.8202 58.9312 49.277 57.0275 49.277V50.1762ZM45.0378 50.1762H57.0275V49.277H45.0378V50.1762Z" fill="black" mask="url(#path-3-inside-1_471_8386)"/>
<mask id="path-5-inside-2_471_8386" fill="white">
<path fill-rule="evenodd" clip-rule="evenodd" d="M64.9701 49.7266H76.9597L89.9389 73.8932H76.9597V73.9281H61.9727V52.724C61.9727 51.0686 63.3146 49.7266 64.9701 49.7266Z"/>
</mask>
<path fill-rule="evenodd" clip-rule="evenodd" d="M64.9701 49.7266H76.9597L89.9389 73.8932H76.9597V73.9281H61.9727V52.724C61.9727 51.0686 63.3146 49.7266 64.9701 49.7266Z" fill="#F04323"/>
<path d="M76.9597 49.7266L77.3558 49.5138L77.2286 49.277H76.9597V49.7266ZM89.9389 73.8932V74.3428H90.6908L90.335 73.6805L89.9389 73.8932ZM76.9597 73.8932V73.4436H76.5101V73.8932H76.9597ZM76.9597 73.9281V74.3777H77.4094V73.9281H76.9597ZM61.9727 73.9281H61.523V74.3777H61.9727V73.9281ZM76.9597 49.277H64.9701V50.1762H76.9597V49.277ZM90.335 73.6805L77.3558 49.5138L76.5636 49.9393L89.5428 74.106L90.335 73.6805ZM76.9597 74.3428H89.9389V73.4436H76.9597V74.3428ZM77.4094 73.9281V73.8932H76.5101V73.9281H77.4094ZM61.9727 74.3777H76.9597V73.4785H61.9727V74.3777ZM61.523 52.724V73.9281H62.4223V52.724H61.523ZM64.9701 49.277C63.0663 49.277 61.523 50.8202 61.523 52.724H62.4223C62.4223 51.3169 63.563 50.1762 64.9701 50.1762V49.277Z" fill="black" mask="url(#path-5-inside-2_471_8386)"/>
<mask id="path-7-inside-3_471_8386" fill="white">
<path fill-rule="evenodd" clip-rule="evenodd" d="M76.3603 47.9651L62.0932 22H61.9727V44.9677C61.9727 46.6231 63.3146 47.9651 64.9701 47.9651H76.3603Z"/>
</mask>
<path fill-rule="evenodd" clip-rule="evenodd" d="M76.3603 47.9651L62.0932 22H61.9727V44.9677C61.9727 46.6231 63.3146 47.9651 64.9701 47.9651H76.3603Z" fill="#F7ED33"/>
<path d="M76.3603 47.9651V48.4147H77.1204L76.7543 47.7486L76.3603 47.9651ZM62.0932 22L62.4872 21.7835L62.3592 21.5504H62.0932V22ZM61.9727 22V21.5504H61.523V22H61.9727ZM76.7543 47.7486L62.4872 21.7835L61.6992 22.2165L75.9663 48.1816L76.7543 47.7486ZM61.9727 22.4496H62.0932V21.5504H61.9727V22.4496ZM62.4223 44.9677V22H61.523V44.9677H62.4223ZM64.9701 47.5155C63.563 47.5155 62.4223 46.3748 62.4223 44.9677H61.523C61.523 46.8714 63.0663 48.4147 64.9701 48.4147V47.5155ZM76.3603 47.5155H64.9701V48.4147H76.3603V47.5155Z" fill="black" mask="url(#path-7-inside-3_471_8386)"/>
<mask id="path-9-inside-4_471_8386" fill="white">
<path fill-rule="evenodd" clip-rule="evenodd" d="M45.7857 47.9651L59.9042 22H60.0234V44.9677C60.0234 46.6231 58.6814 47.9651 57.026 47.9651H45.7857Z"/>
</mask>
<path fill-rule="evenodd" clip-rule="evenodd" d="M45.7857 47.9651L59.9042 22H60.0234V44.9677C60.0234 46.6231 58.6814 47.9651 57.026 47.9651H45.7857Z" fill="#89C541"/>
<path d="M45.7857 47.9651V48.4147H45.0294L45.3907 47.7503L45.7857 47.9651ZM59.9042 22L59.5092 21.7852L59.6369 21.5504H59.9042V22ZM60.0234 22V21.5504H60.473V22H60.0234ZM45.3907 47.7503L59.5092 21.7852L60.2992 22.2148L46.1807 48.1799L45.3907 47.7503ZM60.0234 22.4496H59.9042V21.5504H60.0234V22.4496ZM59.5738 44.9677V22H60.473V44.9677H59.5738ZM57.026 47.5155C58.4331 47.5155 59.5738 46.3748 59.5738 44.9677H60.473C60.473 46.8714 58.9298 48.4147 57.026 48.4147V47.5155ZM45.7857 47.5155H57.026V48.4147H45.7857V47.5155Z" fill="black" mask="url(#path-9-inside-4_471_8386)"/>
<path d="M33.5994 81.6543H32.5128L34.1684 76.8584H35.4751L37.1284 81.6543H36.0418L34.8405 77.9544H34.8031L33.5994 81.6543ZM33.5315 79.7692H36.098V80.5607H33.5315V79.7692ZM40.1978 78.2377C40.1791 78.0488 40.0987 77.9021 39.9566 77.7975C39.8146 77.6929 39.6218 77.6406 39.3782 77.6406C39.2127 77.6406 39.073 77.664 38.959 77.7108C38.8451 77.7561 38.7577 77.8193 38.6968 77.9005C38.6374 77.9817 38.6078 78.0738 38.6078 78.1768C38.6047 78.2627 38.6226 78.3376 38.6616 78.4016C38.7022 78.4656 38.7577 78.5211 38.8279 78.5679C38.8982 78.6132 38.9793 78.653 39.0714 78.6873C39.1636 78.7201 39.2619 78.7482 39.3665 78.7716L39.7974 78.8747C40.0066 78.9215 40.1986 78.9839 40.3734 79.062C40.5483 79.1401 40.6997 79.2361 40.8277 79.35C40.9558 79.464 41.0549 79.5983 41.1251 79.7528C41.197 79.9074 41.2336 80.0846 41.2352 80.2844C41.2336 80.5779 41.1587 80.8323 41.0104 81.0478C40.8636 81.2617 40.6513 81.4279 40.3734 81.5466C40.0971 81.6637 39.7638 81.7222 39.3735 81.7222C38.9864 81.7222 38.6492 81.6629 38.3619 81.5442C38.0762 81.4256 37.853 81.25 37.6922 81.0173C37.5329 80.7832 37.4494 80.4936 37.4416 80.1486H38.4228C38.4337 80.3094 38.4798 80.4436 38.5609 80.5513C38.6437 80.6575 38.7537 80.7379 38.8911 80.7925C39.0301 80.8456 39.187 80.8722 39.3618 80.8722C39.5335 80.8722 39.6826 80.8472 39.8091 80.7972C39.9371 80.7473 40.0362 80.6778 40.1065 80.5888C40.1767 80.4998 40.2119 80.3976 40.2119 80.282C40.2119 80.1743 40.1799 80.0838 40.1159 80.0104C40.0534 79.937 39.9613 79.8746 39.8395 79.8231C39.7193 79.7715 39.5718 79.7247 39.3969 79.6826L38.8747 79.5514C38.4704 79.4531 38.1511 79.2993 37.917 79.0901C37.6828 78.8809 37.5665 78.5991 37.5681 78.2447C37.5665 77.9544 37.6438 77.7007 37.7999 77.4837C37.9576 77.2667 38.1738 77.0973 38.4485 76.9755C38.7233 76.8537 39.0355 76.7929 39.3852 76.7929C39.7412 76.7929 40.0518 76.8537 40.3172 76.9755C40.5842 77.0973 40.7918 77.2667 40.9401 77.4837C41.0885 77.7007 41.165 77.952 41.1696 78.2377H40.1978ZM41.9172 81.6543V76.8584H43.8094C44.1731 76.8584 44.483 76.9279 44.739 77.0668C44.995 77.2042 45.1902 77.3955 45.3245 77.6406C45.4603 77.8841 45.5282 78.1651 45.5282 78.4836C45.5282 78.8021 45.4595 79.0831 45.3221 79.3266C45.1847 79.5702 44.9857 79.7598 44.725 79.8957C44.4658 80.0315 44.152 80.0994 43.7836 80.0994H42.5776V79.2868H43.6197C43.8148 79.2868 43.9756 79.2532 44.1021 79.1861C44.2301 79.1174 44.3253 79.023 44.3878 78.9028C44.4518 78.781 44.4838 78.6413 44.4838 78.4836C44.4838 78.3244 44.4518 78.1854 44.3878 78.0668C44.3253 77.9466 44.2301 77.8537 44.1021 77.7881C43.9741 77.721 43.8117 77.6874 43.615 77.6874H42.9312V81.6543H41.9172ZM47.2008 76.8584V81.6543H46.1868V76.8584H47.2008ZM48.035 81.6543V76.8584H49.9271C50.2893 76.8584 50.5984 76.9232 50.8545 77.0528C51.112 77.1808 51.308 77.3627 51.4422 77.5984C51.578 77.8326 51.646 78.1081 51.646 78.425C51.646 78.7435 51.5773 79.0175 51.4399 79.247C51.3025 79.4749 51.1035 79.6498 50.8427 79.7715C50.5836 79.8933 50.2698 79.9542 49.9014 79.9542H48.6345V79.1393H49.7374C49.931 79.1393 50.0918 79.1127 50.2198 79.0597C50.3479 79.0066 50.4431 78.927 50.5055 78.8208C50.5695 78.7146 50.6015 78.5827 50.6015 78.425C50.6015 78.2658 50.5695 78.1316 50.5055 78.0223C50.4431 77.913 50.3471 77.8302 50.2175 77.774C50.0895 77.7163 49.9279 77.6874 49.7328 77.6874H49.049V81.6543H48.035ZM50.625 79.4718L51.8169 81.6543H50.6976L49.5314 79.4718H50.625ZM52.3625 81.6543V76.8584H55.5941V77.6944H53.3765V78.8372H55.4279V79.6732H53.3765V80.8183H55.6035V81.6543H52.3625ZM57.7438 77.6944V76.8584H61.6826V77.6944H60.2144V81.6543H59.2121V77.6944H57.7438ZM66.5195 79.2564C66.5195 79.7794 66.4203 80.2243 66.2221 80.5912C66.0254 80.958 65.7568 81.2382 65.4165 81.4318C65.0777 81.6239 64.6968 81.7199 64.2737 81.7199C63.8475 81.7199 63.4651 81.6231 63.1263 81.4295C62.7875 81.2359 62.5198 80.9557 62.3231 80.5888C62.1264 80.2219 62.028 79.7778 62.028 79.2564C62.028 78.7334 62.1264 78.2884 62.3231 77.9216C62.5198 77.5547 62.7875 77.2753 63.1263 77.0832C63.4651 76.8897 63.8475 76.7929 64.2737 76.7929C64.6968 76.7929 65.0777 76.8897 65.4165 77.0832C65.7568 77.2753 66.0254 77.5547 66.2221 77.9216C66.4203 78.2884 66.5195 78.7334 66.5195 79.2564ZM65.4914 79.2564C65.4914 78.9176 65.4407 78.6319 65.3392 78.3993C65.2393 78.1667 65.098 77.9903 64.9154 77.8701C64.7327 77.7499 64.5188 77.6897 64.2737 77.6897C64.0286 77.6897 63.8148 77.7499 63.6321 77.8701C63.4495 77.9903 63.3074 78.1667 63.2059 78.3993C63.106 78.6319 63.056 78.9176 63.056 79.2564C63.056 79.5951 63.106 79.8808 63.2059 80.1134C63.3074 80.346 63.4495 80.5225 63.6321 80.6427C63.8148 80.7629 64.0286 80.823 64.2737 80.823C64.5188 80.823 64.7327 80.7629 64.9154 80.6427C65.098 80.5225 65.2393 80.346 65.3392 80.1134C65.4407 79.8808 65.4914 79.5951 65.4914 79.2564ZM68.7968 81.6543V76.8584H72.0284V77.6944H69.8108V78.8372H71.8621V79.6732H69.8108V80.8183H72.0378V81.6543H68.7968ZM73.7853 76.8584L74.7524 78.493H74.7899L75.7617 76.8584H76.9068L75.4432 79.2564L76.9396 81.6543H75.7734L74.7899 80.0174H74.7524L73.7689 81.6543H72.6074L74.1084 79.2564L72.6355 76.8584H73.7853ZM81.5545 78.5375H80.5289C80.5101 78.4048 80.4719 78.2869 80.4141 78.1839C80.3564 78.0793 80.2822 77.9903 80.1917 77.9169C80.1011 77.8435 79.9965 77.7873 79.8779 77.7483C79.7608 77.7093 79.6335 77.6897 79.4962 77.6897C79.2479 77.6897 79.0317 77.7514 78.8475 77.8747C78.6633 77.9965 78.5204 78.1745 78.419 78.4087C78.3175 78.6413 78.2668 78.9238 78.2668 79.2564C78.2668 79.5983 78.3175 79.8855 78.419 80.1181C78.522 80.3507 78.6656 80.5264 78.8498 80.645C79.0341 80.7637 79.2472 80.823 79.4891 80.823C79.625 80.823 79.7506 80.805 79.8662 80.7691C79.9832 80.7332 80.0871 80.6809 80.1776 80.6122C80.2682 80.542 80.3431 80.4569 80.4024 80.357C80.4633 80.2571 80.5055 80.1431 80.5289 80.0151L81.5545 80.0198C81.528 80.2399 81.4617 80.4522 81.3555 80.6567C81.2509 80.8597 81.1096 81.0415 80.9316 81.2023C80.7552 81.3616 80.5445 81.488 80.2994 81.5817C80.0558 81.6738 79.7803 81.7199 79.4727 81.7199C79.045 81.7199 78.6625 81.6231 78.3253 81.4295C77.9897 81.2359 77.7243 80.9557 77.5291 80.5888C77.3355 80.2219 77.2387 79.7778 77.2387 79.2564C77.2387 78.7334 77.3371 78.2884 77.5338 77.9216C77.7305 77.5547 77.9975 77.2753 78.3347 77.0832C78.6719 76.8897 79.0512 76.7929 79.4727 76.7929C79.7506 76.7929 80.0082 76.8319 80.2455 76.9099C80.4844 76.988 80.6959 77.102 80.8801 77.2518C81.0643 77.4002 81.2142 77.582 81.3297 77.7975C81.4468 78.0129 81.5218 78.2596 81.5545 78.5375ZM82.2817 81.6543V76.8584H85.5132V77.6944H83.2956V78.8372H85.347V79.6732H83.2956V80.8183H85.5226V81.6543H82.2817ZM86.3194 81.6543V76.8584H87.3334V80.8183H89.3894V81.6543H86.3194Z" fill="black"/>
<path d="M110.097 35.8628C111.524 36.2388 112.591 36.7644 113.297 37.4396C114.01 38.1148 114.367 38.9358 114.367 39.9026C114.367 40.9385 113.926 41.8938 113.044 42.7685C112.161 43.6509 110.865 44.0921 109.153 44.0921C108.831 44.0921 108.317 44.0729 107.611 44.0345C107.158 44.0115 106.913 44 106.875 44C104.511 44 102.915 44.023 102.087 44.0691C101.81 44.0691 101.672 43.9962 101.672 43.8504C101.672 43.7736 101.711 43.7199 101.787 43.6892C101.872 43.6586 102.171 43.5972 102.685 43.5051C102.992 43.4514 103.234 43.3209 103.41 43.1138C103.587 42.9066 103.721 42.4846 103.813 41.8477C103.905 41.2109 103.951 40.2633 103.951 39.0049C103.951 37.7619 103.967 36.7605 103.997 36.0009C104.028 35.2336 104.043 34.6466 104.043 34.24C104.043 32.9739 103.993 31.9572 103.894 31.1899C103.802 30.4226 103.667 29.9354 103.491 29.7282C103.314 29.5134 102.954 29.3638 102.409 29.2794C102.186 29.2487 102.075 29.1681 102.075 29.0377C102.075 28.8996 102.186 28.8305 102.409 28.8305L104.504 28.865C105.187 28.865 105.827 28.8497 106.426 28.819C107.768 28.7499 108.636 28.7154 109.027 28.7154C110.446 28.7154 111.574 29.0262 112.411 29.6477C113.239 30.2692 113.654 31.117 113.654 32.1913C113.654 33.0353 113.381 33.7604 112.836 34.3666C112.292 34.9727 111.379 35.4715 110.097 35.8628ZM106.149 29.5326C106.08 31.213 106.046 32.5749 106.046 33.6184L106.057 35.3218C106.057 35.552 106.088 35.6978 106.149 35.7592C106.219 35.8206 106.399 35.8513 106.69 35.8513C108.148 35.8513 109.318 35.5866 110.201 35.0571C111.083 34.52 111.524 33.6223 111.524 32.3639C111.524 31.2974 111.194 30.5032 110.535 29.9814C109.882 29.452 109.069 29.1873 108.095 29.1873C107.527 29.1873 106.878 29.3024 106.149 29.5326ZM106.149 36.3922C106.042 36.5841 105.988 36.9178 105.988 37.3936L105.908 40.9615C105.908 42.2199 105.938 42.9219 106 43.0677C106.069 43.2135 106.291 43.3363 106.667 43.436C107.051 43.5358 107.653 43.5857 108.474 43.5857C109.203 43.5857 109.794 43.4859 110.247 43.2864C110.707 43.0792 111.129 42.6764 111.513 42.0779C111.897 41.4794 112.088 40.762 112.088 39.9256C112.088 38.6826 111.72 37.7695 110.983 37.1864C110.255 36.6032 109.173 36.3117 107.738 36.3117C107.254 36.3117 106.725 36.3385 106.149 36.3922ZM128.064 36.1045L128.167 32.9049C128.167 31.5007 128.025 30.5799 127.741 30.1426C127.465 29.6975 126.997 29.475 126.337 29.475C125.953 29.475 125.762 29.3945 125.762 29.2333C125.762 29.0875 125.877 29.0146 126.107 29.0146L129.456 29.1297L132.299 29.0722C132.522 29.0722 132.633 29.1413 132.633 29.2794C132.633 29.4021 132.56 29.4635 132.414 29.4635C131.831 29.4635 131.378 29.5479 131.056 29.7167C130.734 29.8855 130.519 30.1733 130.411 30.5799C130.312 30.9866 130.227 32.1491 130.158 34.0673C130.097 35.9779 130.066 37.3667 130.066 38.2337L130.032 41.0651C130.032 41.9475 130.116 42.5229 130.285 42.7915C130.454 43.0524 130.703 43.2596 131.033 43.413C131.371 43.5588 131.716 43.6509 132.069 43.6892C132.314 43.7199 132.437 43.7928 132.437 43.9079C132.437 44.0307 132.334 44.0921 132.126 44.0921L128.581 44L126.268 44.0806C126 44.0806 125.865 44.0115 125.865 43.8734C125.865 43.7583 125.961 43.6969 126.153 43.6892C126.767 43.6509 127.166 43.5703 127.35 43.4475C127.542 43.3248 127.695 43.0908 127.81 42.7455C127.925 42.4002 127.991 41.817 128.006 40.996L128.064 36.8181C127.404 36.772 126.732 36.749 126.049 36.749C123.08 36.749 121.196 36.8027 120.398 36.9102C120.337 38.3834 120.306 39.5957 120.306 40.5472C120.306 41.6137 120.329 42.2697 120.375 42.5153C120.421 42.7608 120.563 42.991 120.801 43.2058C121.047 43.413 121.38 43.5588 121.802 43.6432C122.063 43.6969 122.194 43.7813 122.194 43.8964C122.194 44.0345 122.109 44.1036 121.94 44.1036C121.887 44.1036 121.81 44.0959 121.71 44.0806C121.296 44.0345 120.437 44.0115 119.132 44.0115C117.713 44.0115 116.842 44.0422 116.52 44.1036C116.45 44.1113 116.381 44.1151 116.312 44.1151C116.136 44.1151 116.048 44.0575 116.048 43.9425C116.048 43.812 116.167 43.7314 116.404 43.7008C116.995 43.6317 117.417 43.4667 117.67 43.2058C117.924 42.945 118.096 41.9667 118.188 40.2709C118.288 38.5752 118.338 36.515 118.338 34.0903C118.338 32.1184 118.246 30.8753 118.062 30.3613C117.878 29.8472 117.429 29.5633 116.715 29.5096C116.554 29.4942 116.473 29.4328 116.473 29.3254C116.473 29.1719 116.638 29.0952 116.968 29.0952L121.607 29.0262C121.937 29.0262 122.132 29.0377 122.194 29.0607C122.263 29.076 122.297 29.1374 122.297 29.2448C122.297 29.3676 122.198 29.4405 121.998 29.4635C121.238 29.5402 120.774 29.6784 120.605 29.8779C120.444 30.0774 120.364 31.3204 120.364 33.6069C120.364 33.8448 120.375 34.6773 120.398 36.1045C121.181 36.1659 122.102 36.1966 123.16 36.1966C124.526 36.1966 126.161 36.1659 128.064 36.1045ZM134.9 28.819L136.995 28.865L140.206 28.819C140.59 28.819 140.782 28.8957 140.782 29.0492C140.782 29.1643 140.678 29.2372 140.471 29.2679C139.619 29.3753 139.086 29.6822 138.871 30.1886C138.664 30.695 138.56 32.5672 138.56 35.8052C138.56 36.9946 138.591 38.3335 138.652 39.8221C138.714 41.3106 138.783 42.2007 138.859 42.4923C138.936 42.7838 139.082 43.0217 139.297 43.2058C139.512 43.39 139.911 43.5204 140.494 43.5972C140.686 43.6202 140.782 43.6931 140.782 43.8158C140.782 43.954 140.693 44.023 140.517 44.023L137.662 44L135.234 44.0345C134.965 44.0345 134.831 43.9578 134.831 43.8043C134.831 43.6432 134.939 43.5626 135.153 43.5626C135.867 43.5473 136.285 43.3094 136.408 42.8491C136.531 42.3887 136.592 40.9193 136.592 38.4409C136.592 36.0469 136.569 34.1095 136.523 32.6286C136.485 31.1477 136.362 30.2423 136.155 29.9124C135.948 29.5824 135.556 29.3753 134.981 29.2909C134.766 29.2525 134.658 29.1643 134.658 29.0262C134.658 28.888 134.739 28.819 134.9 28.819ZM155.663 44.0575C155.287 44.0729 155.072 44.0806 155.019 44.0806C154.735 44.0806 154.221 44.0652 153.476 44.0345C152.732 44.0115 151.186 44 148.838 44H145.915C145.807 44 145.416 44.0153 144.741 44.046C144.066 44.0844 143.655 44.1036 143.509 44.1036C142.926 44.1036 142.635 44.0269 142.635 43.8734C142.635 43.7506 142.75 43.6854 142.98 43.6777C143.724 43.6317 144.242 43.4744 144.534 43.2058C144.825 42.9296 145.025 42.5383 145.132 42.0319C145.24 41.5178 145.293 40.1366 145.293 37.8885L145.305 33.7681C145.305 32.433 145.243 31.5007 145.121 30.9713C145.006 30.4418 144.76 30.039 144.384 29.7628C144.016 29.4789 143.598 29.3177 143.129 29.2794C142.884 29.2563 142.761 29.1758 142.761 29.0377C142.761 28.8996 142.872 28.8305 143.095 28.8305C143.149 28.8305 143.248 28.8343 143.394 28.842C144.614 28.9111 146.041 28.9456 147.676 28.9456L149.701 28.9111C149.909 28.9111 150.012 28.9878 150.012 29.1413C150.012 29.2794 149.901 29.3484 149.678 29.3484C149.134 29.3484 148.677 29.4558 148.309 29.6707C147.948 29.8855 147.706 30.1349 147.584 30.4188C147.469 30.695 147.411 31.2398 147.411 32.0532L147.319 37.4971L147.342 40.5356C147.342 41.4794 147.38 42.0933 147.457 42.3772C147.541 42.6611 147.71 42.9181 147.963 43.1483C148.217 43.3708 148.677 43.4821 149.345 43.4821C149.398 43.4821 150.085 43.4591 151.405 43.413C152.456 43.2672 153.4 42.7531 154.236 41.8707C155.072 40.9884 155.629 40.198 155.905 39.4998C155.989 39.3003 156.093 39.2005 156.216 39.2005C156.346 39.2005 156.411 39.2926 156.411 39.4768C156.411 39.6916 156.3 40.4628 156.078 41.7902C155.855 43.1099 155.717 43.8657 155.663 44.0575ZM164.215 28.6348H164.744C165.604 30.3919 166.789 33.3959 168.301 37.6468C169.275 40.3707 169.943 42.0434 170.303 42.6649C170.664 43.2787 171.243 43.6202 172.041 43.6892C172.295 43.7123 172.421 43.7967 172.421 43.9425C172.421 44.0499 172.356 44.1036 172.225 44.1036L172.064 44.0921C171.358 44.0307 170.461 44 169.371 44C167.698 44 166.624 44.0269 166.148 44.0806C165.911 44.0806 165.792 44.0115 165.792 43.8734C165.792 43.7736 165.88 43.7123 166.056 43.6892C166.709 43.6279 167.157 43.5166 167.403 43.3555C167.656 43.1943 167.783 42.9411 167.783 42.5958C167.783 42.2659 167.549 41.4411 167.081 40.1213L166.402 38.1417C166.003 38.1417 164.219 38.1647 161.05 38.2107C160.252 40.3361 159.853 41.6751 159.853 42.2275C159.853 42.6956 160.048 43.0447 160.44 43.2749C160.839 43.4974 161.23 43.6202 161.614 43.6432C161.898 43.6662 162.04 43.7545 162.04 43.9079C162.04 43.9693 161.994 44.0269 161.901 44.0806C160.674 44.0269 159.933 44 159.68 44C158.391 44 157.524 44.0153 157.079 44.046C156.833 44.046 156.711 43.977 156.711 43.8389C156.711 43.7161 156.818 43.6394 157.033 43.6087C157.915 43.4936 158.591 42.8951 159.059 41.8132C159.527 40.7313 160.256 38.7862 161.245 35.9779C162.151 33.4228 163.141 30.9751 164.215 28.6348ZM163.754 31.1439C163.041 32.6018 162.208 34.7195 161.257 37.4971C162.047 37.4588 162.615 37.4396 162.96 37.4396L166.194 37.4971C165.911 36.6991 165.512 35.6403 164.997 34.3205C164.368 32.7476 163.954 31.6887 163.754 31.1439ZM174.447 28.819L176.541 28.865L179.753 28.819C180.136 28.819 180.328 28.8957 180.328 29.0492C180.328 29.1643 180.225 29.2372 180.017 29.2679C179.166 29.3753 178.632 29.6822 178.418 30.1886C178.21 30.695 178.107 32.5672 178.107 35.8052C178.107 36.9946 178.137 38.3335 178.199 39.8221C178.26 41.3106 178.329 42.2007 178.406 42.4923C178.483 42.7838 178.629 43.0217 178.843 43.2058C179.058 43.39 179.457 43.5204 180.04 43.5972C180.232 43.6202 180.328 43.6931 180.328 43.8158C180.328 43.954 180.24 44.023 180.063 44.023L177.209 44L174.781 44.0345C174.512 44.0345 174.378 43.9578 174.378 43.8043C174.378 43.6432 174.485 43.5626 174.7 43.5626C175.414 43.5473 175.832 43.3094 175.955 42.8491C176.077 42.3887 176.139 40.9193 176.139 38.4409C176.139 36.0469 176.116 34.1095 176.07 32.6286C176.031 31.1477 175.908 30.2423 175.701 29.9124C175.494 29.5824 175.103 29.3753 174.527 29.2909C174.312 29.2525 174.205 29.1643 174.205 29.0262C174.205 28.888 174.286 28.819 174.447 28.819ZM189.179 28.819L191.274 28.865L194.485 28.819C194.868 28.819 195.06 28.8957 195.06 29.0492C195.06 29.1643 194.957 29.2372 194.75 29.2679C193.898 29.3753 193.365 29.6822 193.15 30.1886C192.943 30.695 192.839 32.5672 192.839 35.8052C192.839 36.9946 192.87 38.3335 192.931 39.8221C192.992 41.3106 193.061 42.2007 193.138 42.4923C193.215 42.7838 193.361 43.0217 193.576 43.2058C193.79 43.39 194.189 43.5204 194.773 43.5972C194.964 43.6202 195.06 43.6931 195.06 43.8158C195.06 43.954 194.972 44.023 194.796 44.023L191.941 44L189.513 44.0345C189.244 44.0345 189.11 43.9578 189.11 43.8043C189.11 43.6432 189.217 43.5626 189.432 43.5626C190.146 43.5473 190.564 43.3094 190.687 42.8491C190.809 42.3887 190.871 40.9193 190.871 38.4409C190.871 36.0469 190.848 34.1095 190.802 32.6286C190.763 31.1477 190.641 30.2423 190.433 29.9124C190.226 29.5824 189.835 29.3753 189.259 29.2909C189.045 29.2525 188.937 29.1643 188.937 29.0262C188.937 28.888 189.018 28.819 189.179 28.819ZM200.642 29.0146C201.103 29.6362 201.901 30.5991 203.036 31.9035L206.719 36.1735L210.264 40.2709C210.341 38.8821 210.379 37.079 210.379 34.8615C210.379 33.1964 210.345 32.0838 210.276 31.5237C210.207 30.9559 209.95 30.4802 209.505 30.0965C209.067 29.7129 208.519 29.5211 207.859 29.5211C207.552 29.5211 207.398 29.4558 207.398 29.3254C207.398 29.2487 207.429 29.195 207.491 29.1643C207.56 29.1259 208.077 29.0914 209.044 29.0607C210.011 29.0223 210.824 29.0031 211.484 29.0031L213.038 29.0146H213.291C213.529 29.0146 213.648 29.0837 213.648 29.2218C213.648 29.3446 213.545 29.4175 213.337 29.4405C212.562 29.5249 212.002 29.7282 211.657 30.0505C211.319 30.3651 211.116 30.8216 211.047 31.4201C210.986 32.0186 210.955 34.0328 210.955 37.4626L210.84 43.5396C210.84 43.8465 210.763 44 210.61 44C210.571 44 210.518 43.9847 210.448 43.954C210.387 43.9156 210.046 43.5281 209.424 42.7915C208.803 42.0472 208.035 41.1572 207.122 40.1213C206.217 39.0854 205.503 38.2453 204.981 37.6007C203.838 36.2119 203.117 35.3564 202.818 35.0341C201.705 33.8525 201.049 33.0928 200.85 32.7552C200.719 32.525 200.6 32.4099 200.493 32.4099C200.408 32.4099 200.366 32.5596 200.366 32.8588L200.389 34.6428C200.389 36.9063 200.451 38.7133 200.573 40.0638C200.696 41.4142 200.823 42.2084 200.953 42.4462C201.091 42.6764 201.325 42.9104 201.655 43.1483C201.993 43.3862 202.35 43.5051 202.726 43.5051C203.232 43.5051 203.485 43.5972 203.485 43.7813C203.485 43.9194 203.343 43.9885 203.059 43.9885L197.523 43.977C197.262 43.977 197.132 43.9118 197.132 43.7813C197.132 43.6279 197.259 43.5511 197.512 43.5511C198.456 43.5511 199.085 43.344 199.399 42.9296C199.714 42.5076 199.871 41.6175 199.871 40.2594L199.779 36.2196C199.779 33.8333 199.714 32.4291 199.583 32.0071C199.453 31.5774 199.158 31.0595 198.697 30.4533C198.245 29.8395 197.727 29.4942 197.143 29.4175C196.883 29.3868 196.752 29.3177 196.752 29.2103C196.752 29.0645 196.921 28.9916 197.259 28.9916L200.642 29.0146ZM223.247 29.7513C223.454 29.5441 223.592 29.3292 223.661 29.1067C223.723 28.9226 223.811 28.8305 223.926 28.8305C223.987 28.8305 224.057 28.8689 224.133 28.9456C224.187 29.2218 224.264 29.7781 224.363 30.6145L224.64 32.7782C224.64 32.9164 224.555 32.9854 224.386 32.9854C224.294 32.9854 224.214 32.9087 224.145 32.7552C223.738 31.7501 223.136 30.9137 222.338 30.2462C221.54 29.5863 220.669 29.2563 219.725 29.2563C218.797 29.2563 218.095 29.5364 217.619 30.0965C217.151 30.6567 216.917 31.2513 216.917 31.8805C216.917 32.6478 217.174 33.2348 217.688 33.6415C218.202 34.0481 219.261 34.5085 220.865 35.0226C222.046 35.3909 222.929 35.7477 223.512 36.093C224.103 36.4383 224.597 36.9217 224.996 37.5432C225.395 38.1647 225.595 38.8322 225.595 39.5458C225.595 40.7582 225.092 41.8439 224.087 42.803C223.082 43.7621 221.851 44.2417 220.393 44.2417C219.081 44.2417 217.761 43.8312 216.433 43.0102C216.173 43.225 216.004 43.4782 215.927 43.7698C215.866 44.0153 215.766 44.1381 215.628 44.1381C215.505 44.1381 215.417 43.9808 215.363 43.6662C215.309 43.3516 215.198 41.8631 215.029 39.2005C215.06 39.1085 215.14 39.0624 215.271 39.0624C215.386 39.0624 215.478 39.1468 215.547 39.3156C216.729 42.2851 218.378 43.7698 220.496 43.7698C221.547 43.7698 222.368 43.4552 222.959 42.826C223.558 42.1892 223.857 41.4602 223.857 40.6392C223.857 40.0714 223.696 39.5497 223.374 39.0739C223.059 38.5982 222.637 38.2146 222.108 37.923C221.586 37.6314 220.757 37.3053 219.622 36.9447C218.164 36.4766 217.17 36.0354 216.641 35.6211C216.119 35.1991 215.735 34.7272 215.49 34.2054C215.244 33.676 215.121 33.1657 215.121 32.6747C215.121 31.6542 215.582 30.7487 216.502 29.9584C217.431 29.1681 218.566 28.7729 219.909 28.7729C220.416 28.7729 220.945 28.8535 221.498 29.0146C222.058 29.1758 222.641 29.4213 223.247 29.7513ZM233.606 29.5671C233.007 29.5364 232.585 29.5211 232.34 29.5211C230.682 29.5211 229.481 29.8663 228.737 30.5569C227.993 31.2475 227.559 31.8613 227.436 32.3984C227.398 32.5903 227.295 32.6862 227.126 32.6862C227.049 32.6862 226.976 32.6516 226.907 32.5826C226.945 31.6695 227.095 30.438 227.356 28.888C227.724 28.8804 227.958 28.8765 228.058 28.8765C228.656 28.8765 229.458 28.9072 230.463 28.9686C231.545 29.03 233.203 29.0607 235.436 29.0607C237.722 29.0607 239.211 29.0338 239.901 28.9801C240.53 28.9187 241.394 28.888 242.491 28.888C242.583 29.4405 242.644 30.016 242.675 30.6145C242.721 31.2974 242.767 31.7769 242.813 32.0532C242.821 32.1145 242.825 32.1798 242.825 32.2488C242.825 32.433 242.744 32.525 242.583 32.525C242.483 32.525 242.399 32.4943 242.33 32.433C242.268 32.3639 242.123 32.1452 241.892 31.7769C241.493 31.1554 241.079 30.6874 240.649 30.3728C240.22 30.0505 239.74 29.8433 239.211 29.7513C238.681 29.6592 237.611 29.5978 236 29.5671C235.907 30.7257 235.861 32.0493 235.861 33.5379C235.861 38.4639 235.965 41.3682 236.172 42.2506C236.387 43.133 237.143 43.5741 238.44 43.5741C238.754 43.5741 238.911 43.6394 238.911 43.7698C238.911 43.9233 238.762 44 238.463 44H231.384C231.2 44 231.108 43.9271 231.108 43.7813C231.108 43.6355 231.288 43.5626 231.649 43.5626C232.255 43.5626 232.742 43.3938 233.111 43.0562C233.487 42.7109 233.701 42.2467 233.755 41.6636C233.817 41.0804 233.847 39.3962 233.847 36.6109C233.847 34.2323 233.767 31.8843 233.606 29.5671ZM244.931 28.819L247.026 28.865L250.237 28.819C250.62 28.819 250.812 28.8957 250.812 29.0492C250.812 29.1643 250.709 29.2372 250.501 29.2679C249.65 29.3753 249.116 29.6822 248.902 30.1886C248.694 30.695 248.591 32.5672 248.591 35.8052C248.591 36.9946 248.622 38.3335 248.683 39.8221C248.744 41.3106 248.813 42.2007 248.89 42.4923C248.967 42.7838 249.113 43.0217 249.327 43.2058C249.542 43.39 249.941 43.5204 250.524 43.5972C250.716 43.6202 250.812 43.6931 250.812 43.8158C250.812 43.954 250.724 44.023 250.548 44.023L247.693 44L245.265 44.0345C244.996 44.0345 244.862 43.9578 244.862 43.8043C244.862 43.6432 244.969 43.5626 245.184 43.5626C245.898 43.5473 246.316 43.3094 246.439 42.8491C246.561 42.3887 246.623 40.9193 246.623 38.4409C246.623 36.0469 246.6 34.1095 246.554 32.6286C246.515 31.1477 246.393 30.2423 246.185 29.9124C245.978 29.5824 245.587 29.3753 245.011 29.2909C244.797 29.2525 244.689 29.1643 244.689 29.0262C244.689 28.888 244.77 28.819 244.931 28.819ZM259.387 29.5671C258.788 29.5364 258.366 29.5211 258.121 29.5211C256.463 29.5211 255.263 29.8663 254.518 30.5569C253.774 31.2475 253.34 31.8613 253.218 32.3984C253.179 32.5903 253.076 32.6862 252.907 32.6862C252.83 32.6862 252.757 32.6516 252.688 32.5826C252.727 31.6695 252.876 30.438 253.137 28.888C253.505 28.8804 253.739 28.8765 253.839 28.8765C254.438 28.8765 255.24 28.9072 256.245 28.9686C257.327 29.03 258.984 29.0607 261.217 29.0607C263.503 29.0607 264.992 29.0338 265.682 28.9801C266.312 28.9187 267.175 28.888 268.272 28.888C268.364 29.4405 268.426 30.016 268.456 30.6145C268.502 31.2974 268.548 31.7769 268.594 32.0532C268.602 32.1145 268.606 32.1798 268.606 32.2488C268.606 32.433 268.525 32.525 268.364 32.525C268.264 32.525 268.18 32.4943 268.111 32.433C268.05 32.3639 267.904 32.1452 267.674 31.7769C267.275 31.1554 266.86 30.6874 266.431 30.3728C266.001 30.0505 265.521 29.8433 264.992 29.7513C264.462 29.6592 263.392 29.5978 261.781 29.5671C261.689 30.7257 261.643 32.0493 261.643 33.5379C261.643 38.4639 261.746 41.3682 261.953 42.2506C262.168 43.133 262.924 43.5741 264.221 43.5741C264.535 43.5741 264.693 43.6394 264.693 43.7698C264.693 43.9233 264.543 44 264.244 44H257.165C256.981 44 256.889 43.9271 256.889 43.7813C256.889 43.6355 257.07 43.5626 257.43 43.5626C258.036 43.5626 258.524 43.3938 258.892 43.0562C259.268 42.7109 259.483 42.2467 259.536 41.6636C259.598 41.0804 259.628 39.3962 259.628 36.6109C259.628 34.2323 259.548 31.8843 259.387 29.5671ZM270.332 28.9341H276.099C276.429 28.9341 276.593 29.0031 276.593 29.1413C276.593 29.2794 276.471 29.3599 276.225 29.383C275.68 29.4367 275.278 29.5863 275.017 29.8318C274.756 30.0774 274.556 30.5109 274.418 31.1324C274.288 31.7539 274.223 33.0852 274.223 35.1262C274.223 37.5739 274.292 39.2696 274.43 40.2134C274.575 41.1572 275.021 41.9091 275.765 42.4692C276.517 43.0217 277.537 43.2979 278.826 43.2979C280.177 43.2979 281.205 43.0409 281.911 42.5268C282.617 42.0127 283.073 41.2492 283.28 40.2364C283.495 39.2236 283.603 37.0253 283.603 33.6415C283.603 31.8997 283.422 30.7603 283.062 30.2231C282.701 29.6784 282.168 29.406 281.462 29.406C281.178 29.406 281.036 29.3254 281.036 29.1643C281.036 29.0108 281.224 28.9341 281.6 28.9341H286.204C286.411 28.9341 286.515 29.0108 286.515 29.1643C286.515 29.2717 286.43 29.3369 286.261 29.3599C285.678 29.4443 285.249 29.6285 284.972 29.9124C284.704 30.1963 284.527 30.7104 284.443 31.4547C284.359 32.1989 284.316 33.2923 284.316 34.7349C284.316 36.538 284.247 38.0688 284.109 39.3271C283.979 40.5855 283.691 41.5255 283.246 42.147C282.801 42.7608 282.13 43.2596 281.232 43.6432C280.342 44.0192 279.245 44.2072 277.94 44.2072C276.605 44.2072 275.466 43.9962 274.522 43.5741C273.586 43.1445 272.949 42.5805 272.611 41.8823C272.281 41.1763 272.116 40.1251 272.116 38.7287L272.162 35.5405C272.162 32.7092 272.04 30.9789 271.794 30.3497C271.556 29.7129 271.038 29.3868 270.24 29.3714C269.979 29.3714 269.849 29.3062 269.849 29.1758C269.849 29.0146 270.01 28.9341 270.332 28.9341ZM294.261 29.5671C293.662 29.5364 293.24 29.5211 292.995 29.5211C291.337 29.5211 290.136 29.8663 289.392 30.5569C288.648 31.2475 288.214 31.8613 288.091 32.3984C288.053 32.5903 287.95 32.6862 287.781 32.6862C287.704 32.6862 287.631 32.6516 287.562 32.5826C287.6 31.6695 287.75 30.438 288.011 28.888C288.379 28.8804 288.613 28.8765 288.713 28.8765C289.311 28.8765 290.113 28.9072 291.118 28.9686C292.2 29.03 293.858 29.0607 296.091 29.0607C298.377 29.0607 299.866 29.0338 300.556 28.9801C301.185 28.9187 302.049 28.888 303.146 28.888C303.238 29.4405 303.299 30.016 303.33 30.6145C303.376 31.2974 303.422 31.7769 303.468 32.0532C303.476 32.1145 303.48 32.1798 303.48 32.2488C303.48 32.433 303.399 32.525 303.238 32.525C303.138 32.525 303.054 32.4943 302.985 32.433C302.923 32.3639 302.778 32.1452 302.547 31.7769C302.148 31.1554 301.734 30.6874 301.304 30.3728C300.875 30.0505 300.395 29.8433 299.866 29.7513C299.336 29.6592 298.266 29.5978 296.655 29.5671C296.562 30.7257 296.516 32.0493 296.516 33.5379C296.516 38.4639 296.62 41.3682 296.827 42.2506C297.042 43.133 297.798 43.5741 299.095 43.5741C299.409 43.5741 299.566 43.6394 299.566 43.7698C299.566 43.9233 299.417 44 299.118 44H292.039C291.855 44 291.763 43.9271 291.763 43.7813C291.763 43.6355 291.943 43.5626 292.304 43.5626C292.91 43.5626 293.397 43.3938 293.766 43.0562C294.142 42.7109 294.356 42.2467 294.41 41.6636C294.472 41.0804 294.502 39.3962 294.502 36.6109C294.502 34.2323 294.422 31.8843 294.261 29.5671ZM317.13 29.0722C317.352 29.9316 317.571 31.1362 317.786 32.6862C317.748 32.7476 317.705 32.7782 317.659 32.7782C317.606 32.7782 317.548 32.7476 317.487 32.6862C316.957 31.8345 316.451 31.1861 315.967 30.7411C315.484 30.296 314.997 29.9814 314.506 29.7973C314.022 29.6055 313.186 29.5096 311.997 29.5096C310.876 29.5096 309.99 29.5748 309.338 29.7052C309.277 29.7819 309.246 29.9239 309.246 30.1311C309.246 30.1848 309.238 30.2807 309.223 30.4188C309.146 31.0326 309.108 32.6977 309.108 35.4139C309.108 35.529 309.115 35.6902 309.131 35.8973C309.714 35.9203 310.113 35.9318 310.328 35.9318C311.295 35.9318 311.993 35.7899 312.423 35.506C312.86 35.2144 313.24 34.5929 313.562 33.6415C313.616 33.4803 313.692 33.3998 313.792 33.3998C313.938 33.3998 314.011 33.511 314.011 33.7335L313.965 34.1939C313.903 34.8001 313.873 35.4254 313.873 36.07C313.873 37.1135 313.892 38.0534 313.93 38.8898C313.93 39.1507 313.857 39.2811 313.712 39.2811C313.604 39.2811 313.531 39.189 313.493 39.0049C313.332 38.0995 312.994 37.4473 312.48 37.0483C311.966 36.6493 310.85 36.4498 309.131 36.4498C309.108 37.0099 309.096 37.9153 309.096 39.166C309.096 40.785 309.154 41.8132 309.269 42.2506C309.384 42.6879 309.66 43.037 310.098 43.2979C310.535 43.5511 311.275 43.6777 312.319 43.6777C315.304 43.6777 317.23 42.6496 318.097 40.5932C318.204 40.34 318.315 40.2134 318.43 40.2134C318.553 40.2134 318.615 40.2978 318.615 40.4666C318.615 40.5587 318.595 40.6584 318.557 40.7658C318.511 40.9116 318.4 41.4564 318.223 42.4002C318.185 42.5997 318.039 43.1982 317.786 44.1957L312.963 44.1842C312.273 44.1842 311.256 44.1535 309.913 44.0921C308.578 44.0384 307.393 44.0077 306.357 44C305.329 44 304.792 43.9808 304.746 43.9425C304.7 43.9041 304.677 43.8619 304.677 43.8158C304.677 43.6624 304.803 43.5857 305.056 43.5857C305.908 43.5857 306.468 43.3593 306.737 42.9066C307.005 42.4539 307.14 41.3528 307.14 39.6034L307.128 37.2439L307.163 35.0341C307.163 34.5891 307.136 33.7489 307.082 32.5135C307.036 31.2705 306.99 30.5608 306.944 30.3843C306.906 30.2078 306.787 30.0352 306.587 29.8663C306.395 29.6899 305.966 29.5134 305.298 29.3369C305.099 29.2832 304.999 29.1988 304.999 29.0837C304.999 28.9456 305.133 28.8765 305.402 28.8765L307.75 29.0031C308.578 29.0415 310.616 29.0607 313.861 29.0607C315.994 29.0607 317.084 29.0645 317.13 29.0722ZM109.05 62.3692C109.05 61.3334 109.364 60.1978 109.994 58.9624C110.623 57.7194 111.54 56.695 112.744 55.8894C113.957 55.0837 115.323 54.6809 116.842 54.6809C118.967 54.6809 120.72 55.4405 122.102 56.9598C123.49 58.479 124.185 60.2131 124.185 62.162C124.185 64.2337 123.418 66.0944 121.883 67.7441C120.348 69.3862 118.503 70.2072 116.347 70.2072C114.283 70.2072 112.549 69.4859 111.145 68.0434C109.748 66.6009 109.05 64.7095 109.05 62.3692ZM111.616 62.0009C111.616 63.2516 111.808 64.5368 112.192 65.8566C112.576 67.1687 113.178 68.124 113.999 68.7224C114.82 69.3133 115.699 69.6087 116.635 69.6087C118.146 69.6087 119.355 68.8759 120.26 67.4104C121.173 65.9372 121.63 64.2337 121.63 62.3002C121.63 60.4279 121.166 58.7859 120.237 57.3741C119.309 55.9546 118.096 55.2448 116.6 55.2448C115.472 55.2448 114.532 55.6247 113.78 56.3843C113.028 57.1362 112.48 58.0378 112.134 59.089C111.789 60.1402 111.616 61.1108 111.616 62.0009ZM130.434 62.3347L130.4 65.1775C130.4 67.1648 130.431 68.2774 130.492 68.5153C130.553 68.7455 130.684 68.9872 130.883 69.2404C131.091 69.4859 131.516 69.6279 132.161 69.6662C132.506 69.6816 132.679 69.766 132.679 69.9194C132.679 70.0882 132.556 70.1726 132.311 70.1726C132.218 70.1726 131.977 70.1535 131.585 70.1151C130.787 70.0384 130.082 70 129.468 70C128.946 70 128.221 70.0307 127.292 70.0921L126.648 70.1266C126.402 70.1266 126.28 70.0499 126.28 69.8964C126.28 69.743 126.46 69.6662 126.821 69.6662C127.312 69.6662 127.665 69.5281 127.879 69.2519C128.094 68.9757 128.232 68.2736 128.294 67.1456C128.363 66.01 128.397 64.5138 128.397 62.6569C128.397 60.9075 128.367 59.5302 128.305 58.525C128.244 57.5122 128.156 56.8485 128.041 56.5339C127.933 56.2193 127.768 55.9968 127.546 55.8663C127.323 55.7282 126.901 55.64 126.28 55.6016C126.034 55.5863 125.911 55.5096 125.911 55.3714C125.911 55.2487 126.019 55.1796 126.234 55.1643C128.152 55.0108 131.777 54.9341 137.11 54.9341C138.023 54.9341 138.518 54.9494 138.595 54.9801C138.679 55.0031 138.737 55.053 138.767 55.1297C138.806 55.1988 138.909 55.7282 139.078 56.7181C139.255 57.7079 139.343 58.2258 139.343 58.2718C139.343 58.433 139.274 58.5135 139.136 58.5135C139.036 58.5135 138.94 58.4368 138.848 58.2833C137.766 56.4035 136.009 55.4635 133.577 55.4635C132.74 55.4635 132.061 55.5019 131.539 55.5786C131.025 55.6477 130.726 55.7359 130.642 55.8433C130.557 55.9431 130.5 56.4226 130.469 57.282C130.446 58.1414 130.434 59.6415 130.434 61.7822C131.041 61.8129 131.459 61.8283 131.689 61.8283C132.794 61.8283 133.561 61.5942 133.991 61.1262C134.428 60.6505 134.658 60.1594 134.681 59.653C134.697 59.3154 134.785 59.1466 134.946 59.1466C135.115 59.1466 135.199 59.2616 135.199 59.4918C135.199 59.5686 135.192 59.6645 135.176 59.7796C135.123 60.2246 135.096 61.364 135.096 63.1979V64.533C135.096 64.8553 135 65.0164 134.808 65.0164C134.647 65.0164 134.563 64.8975 134.555 64.6596C134.532 63.969 134.313 63.4051 133.899 62.9677C133.485 62.5227 132.667 62.3002 131.447 62.3002C131.248 62.3002 130.91 62.3117 130.434 62.3347ZM153.062 55.5671C152.464 55.5364 152.042 55.5211 151.796 55.5211C150.139 55.5211 148.938 55.8663 148.194 56.5569C147.449 57.2475 147.016 57.8613 146.893 58.3984C146.855 58.5903 146.751 58.6862 146.582 58.6862C146.506 58.6862 146.433 58.6516 146.364 58.5826C146.402 57.6695 146.552 56.438 146.812 54.888C147.181 54.8804 147.415 54.8765 147.515 54.8765C148.113 54.8765 148.915 54.9072 149.92 54.9686C151.002 55.03 152.659 55.0607 154.892 55.0607C157.179 55.0607 158.667 55.0338 159.358 54.9801C159.987 54.9187 160.85 54.888 161.947 54.888C162.04 55.4405 162.101 56.016 162.132 56.6145C162.178 57.2974 162.224 57.7769 162.27 58.0532C162.277 58.1145 162.281 58.1798 162.281 58.2488C162.281 58.433 162.201 58.525 162.04 58.525C161.94 58.525 161.855 58.4943 161.786 58.433C161.725 58.3639 161.579 58.1452 161.349 57.7769C160.95 57.1554 160.536 56.6874 160.106 56.3728C159.676 56.0505 159.197 55.8433 158.667 55.7513C158.138 55.6592 157.067 55.5978 155.456 55.5671C155.364 56.7257 155.318 58.0493 155.318 59.5379C155.318 64.4639 155.422 67.3682 155.629 68.2506C155.844 69.133 156.599 69.5741 157.896 69.5741C158.211 69.5741 158.368 69.6394 158.368 69.7698C158.368 69.9233 158.218 70 157.919 70H150.841C150.657 70 150.565 69.9271 150.565 69.7813C150.565 69.6355 150.745 69.5626 151.106 69.5626C151.712 69.5626 152.199 69.3938 152.567 69.0562C152.943 68.7109 153.158 68.2467 153.212 67.6636C153.273 67.0804 153.304 65.3962 153.304 62.6109C153.304 60.2323 153.223 57.8843 153.062 55.5671ZM175.931 55.0722C176.154 55.9316 176.373 57.1362 176.588 58.6862C176.549 58.7476 176.507 58.7782 176.461 58.7782C176.407 58.7782 176.35 58.7476 176.288 58.6862C175.759 57.8345 175.252 57.1861 174.769 56.7411C174.286 56.296 173.798 55.9814 173.307 55.7973C172.824 55.6055 171.988 55.5096 170.798 55.5096C169.678 55.5096 168.792 55.5748 168.14 55.7052C168.078 55.7819 168.047 55.9239 168.047 56.1311C168.047 56.1848 168.04 56.2807 168.024 56.4188C167.948 57.0326 167.909 58.6977 167.909 61.4139C167.909 61.529 167.917 61.6902 167.932 61.8973C168.516 61.9203 168.915 61.9318 169.129 61.9318C170.096 61.9318 170.794 61.7899 171.224 61.506C171.661 61.2144 172.041 60.5929 172.364 59.6415C172.417 59.4803 172.494 59.3998 172.594 59.3998C172.74 59.3998 172.812 59.511 172.812 59.7335L172.766 60.1939C172.705 60.8001 172.674 61.4254 172.674 62.07C172.674 63.1135 172.693 64.0534 172.732 64.8898C172.732 65.1507 172.659 65.2811 172.513 65.2811C172.406 65.2811 172.333 65.189 172.294 65.0049C172.133 64.0995 171.796 63.4473 171.282 63.0483C170.768 62.6493 169.651 62.4498 167.932 62.4498C167.909 63.0099 167.898 63.9153 167.898 65.166C167.898 66.785 167.955 67.8132 168.071 68.2506C168.186 68.6879 168.462 69.037 168.899 69.2979C169.337 69.5511 170.077 69.6777 171.121 69.6777C174.105 69.6777 176.031 68.6496 176.898 66.5932C177.006 66.34 177.117 66.2134 177.232 66.2134C177.355 66.2134 177.416 66.2978 177.416 66.4666C177.416 66.5587 177.397 66.6584 177.359 66.7658C177.313 66.9116 177.201 67.4564 177.025 68.4002C176.987 68.5997 176.841 69.1982 176.588 70.1957L171.765 70.1842C171.074 70.1842 170.058 70.1535 168.715 70.0921C167.38 70.0384 166.194 70.0077 165.159 70C164.13 70 163.593 69.9808 163.547 69.9425C163.501 69.9041 163.478 69.8619 163.478 69.8158C163.478 69.6624 163.605 69.5857 163.858 69.5857C164.71 69.5857 165.27 69.3593 165.538 68.9066C165.807 68.4539 165.941 67.3528 165.941 65.6034L165.93 63.2439L165.964 61.0341C165.964 60.5891 165.937 59.7489 165.884 58.5135C165.838 57.2705 165.792 56.5608 165.746 56.3843C165.707 56.2078 165.588 56.0352 165.389 55.8663C165.197 55.6899 164.767 55.5134 164.1 55.3369C163.9 55.2832 163.8 55.1988 163.8 55.0837C163.8 54.9456 163.935 54.8765 164.203 54.8765L166.551 55.0031C167.38 55.0415 169.417 55.0607 172.663 55.0607C174.796 55.0607 175.885 55.0645 175.931 55.0722ZM191.066 55.8894C191.488 55.5134 191.73 55.2602 191.792 55.1297C191.868 54.9456 191.98 54.8535 192.125 54.8535C192.279 54.8535 192.363 54.9916 192.379 55.2679L192.643 59.2847C192.643 59.5149 192.632 59.6568 192.609 59.7105C192.593 59.7566 192.54 59.7796 192.448 59.7796C192.325 59.7796 192.194 59.6146 192.056 59.2847C191.55 58.0647 190.844 57.0633 189.939 56.2807C189.025 55.5057 188.036 55.1182 186.969 55.1182C186.033 55.1182 185.174 55.4213 184.391 56.0275C183.608 56.626 182.998 57.4854 182.561 58.6056C182.131 59.7182 181.916 60.9152 181.916 62.1966C181.916 64.3757 182.515 66.1482 183.712 67.514C184.917 68.8721 186.259 69.5511 187.74 69.5511C188.745 69.5511 189.67 69.2327 190.514 68.5958C191.358 67.959 191.995 67.2224 192.425 66.386C192.54 66.1558 192.659 66.0407 192.781 66.0407C192.95 66.0407 193.035 66.1328 193.035 66.317C193.035 66.5395 192.743 67.0267 192.16 67.7787C191.577 68.5306 190.809 69.1406 189.858 69.6087C188.914 70.0767 187.898 70.3108 186.808 70.3108C185.527 70.3108 184.307 69.9847 183.148 69.3324C181.997 68.6802 181.084 67.7787 180.409 66.6277C179.733 65.4768 179.396 64.1263 179.396 62.5764C179.396 61.0571 179.722 59.6875 180.374 58.4675C181.034 57.2475 181.959 56.2999 183.148 55.6247C184.337 54.9494 185.565 54.6118 186.831 54.6118C187.506 54.6118 188.197 54.7192 188.903 54.9341C189.609 55.1413 190.33 55.4597 191.066 55.8894ZM206.19 62.1045L206.294 58.9049C206.294 57.5007 206.152 56.5799 205.868 56.1426C205.591 55.6975 205.123 55.475 204.464 55.475C204.08 55.475 203.888 55.3945 203.888 55.2333C203.888 55.0875 204.003 55.0146 204.233 55.0146L207.583 55.1297L210.425 55.0722C210.648 55.0722 210.759 55.1413 210.759 55.2794C210.759 55.4021 210.686 55.4635 210.541 55.4635C209.957 55.4635 209.505 55.5479 209.182 55.7167C208.86 55.8855 208.645 56.1733 208.538 56.5799C208.438 56.9866 208.354 58.1491 208.285 60.0673C208.223 61.9779 208.193 63.3667 208.193 64.2337L208.158 67.0651C208.158 67.9475 208.242 68.5229 208.411 68.7915C208.58 69.0524 208.829 69.2596 209.159 69.413C209.497 69.5588 209.842 69.6509 210.195 69.6892C210.441 69.7199 210.564 69.7928 210.564 69.9079C210.564 70.0307 210.46 70.0921 210.253 70.0921L206.708 70L204.394 70.0806C204.126 70.0806 203.992 70.0115 203.992 69.8734C203.992 69.7583 204.088 69.6969 204.279 69.6892C204.893 69.6509 205.292 69.5703 205.476 69.4475C205.668 69.3248 205.822 69.0908 205.937 68.7455C206.052 68.4002 206.117 67.817 206.132 66.996L206.19 62.8181C205.53 62.772 204.859 62.749 204.176 62.749C201.206 62.749 199.323 62.8027 198.525 62.9102C198.463 64.3834 198.433 65.5957 198.433 66.5472C198.433 67.6137 198.456 68.2697 198.502 68.5153C198.548 68.7608 198.69 68.991 198.927 69.2058C199.173 69.413 199.507 69.5588 199.929 69.6432C200.19 69.6969 200.32 69.7813 200.32 69.8964C200.32 70.0345 200.236 70.1036 200.067 70.1036C200.013 70.1036 199.936 70.0959 199.837 70.0806C199.422 70.0345 198.563 70.0115 197.259 70.0115C195.839 70.0115 194.968 70.0422 194.646 70.1036C194.577 70.1113 194.508 70.1151 194.439 70.1151C194.262 70.1151 194.174 70.0575 194.174 69.9425C194.174 69.812 194.293 69.7314 194.531 69.7008C195.122 69.6317 195.544 69.4667 195.797 69.2058C196.05 68.945 196.223 67.9667 196.315 66.2709C196.415 64.5752 196.464 62.515 196.464 60.0903C196.464 58.1184 196.372 56.8753 196.188 56.3613C196.004 55.8472 195.555 55.5633 194.842 55.5096C194.68 55.4942 194.6 55.4328 194.6 55.3254C194.6 55.1719 194.765 55.0952 195.095 55.0952L199.733 55.0262C200.063 55.0262 200.259 55.0377 200.32 55.0607C200.389 55.076 200.424 55.1374 200.424 55.2448C200.424 55.3676 200.324 55.4405 200.124 55.4635C199.365 55.5402 198.901 55.6784 198.732 55.8779C198.571 56.0774 198.49 57.3204 198.49 59.6069C198.49 59.8448 198.502 60.6773 198.525 62.1045C199.307 62.1659 200.228 62.1966 201.287 62.1966C202.653 62.1966 204.287 62.1659 206.19 62.1045ZM215.651 55.0146C216.111 55.6362 216.909 56.5991 218.045 57.9035L221.728 62.1735L225.273 66.2709C225.349 64.8821 225.388 63.079 225.388 60.8615C225.388 59.1964 225.353 58.0838 225.284 57.5237C225.215 56.9559 224.958 56.4802 224.513 56.0965C224.076 55.7129 223.527 55.5211 222.867 55.5211C222.56 55.5211 222.407 55.4558 222.407 55.3254C222.407 55.2487 222.437 55.195 222.499 55.1643C222.568 55.1259 223.086 55.0914 224.053 55.0607C225.019 55.0223 225.833 55.0031 226.493 55.0031L228.046 55.0146H228.3C228.538 55.0146 228.656 55.0837 228.656 55.2218C228.656 55.3446 228.553 55.4175 228.346 55.4405C227.571 55.5249 227.011 55.7282 226.665 56.0505C226.328 56.3651 226.124 56.8216 226.055 57.4201C225.994 58.0186 225.963 60.0328 225.963 63.4626L225.848 69.5396C225.848 69.8465 225.771 70 225.618 70C225.58 70 225.526 69.9847 225.457 69.954C225.395 69.9156 225.054 69.5281 224.432 68.7915C223.811 68.0472 223.044 67.1572 222.131 66.1213C221.225 65.0854 220.512 64.2453 219.99 63.6007C218.847 62.2119 218.125 61.3564 217.826 61.0341C216.713 59.8525 216.057 59.0928 215.858 58.7552C215.727 58.525 215.609 58.4099 215.501 58.4099C215.417 58.4099 215.375 58.5596 215.375 58.8588L215.398 60.6428C215.398 62.9063 215.459 64.7133 215.582 66.0638C215.704 67.4142 215.831 68.2084 215.961 68.4462C216.1 68.6764 216.334 68.9104 216.664 69.1483C217.001 69.3862 217.358 69.5051 217.734 69.5051C218.24 69.5051 218.494 69.5972 218.494 69.7813C218.494 69.9194 218.352 69.9885 218.068 69.9885L212.532 69.977C212.271 69.977 212.14 69.9118 212.14 69.7813C212.14 69.6279 212.267 69.5511 212.52 69.5511C213.464 69.5511 214.093 69.344 214.408 68.9296C214.722 68.5076 214.88 67.6175 214.88 66.2594L214.788 62.2196C214.788 59.8333 214.722 58.4291 214.592 58.0071C214.461 57.5774 214.166 57.0595 213.706 56.4533C213.253 55.8395 212.735 55.4942 212.152 55.4175C211.891 55.3868 211.761 55.3177 211.761 55.2103C211.761 55.0645 211.929 54.9916 212.267 54.9916L215.651 55.0146ZM230.13 62.3692C230.13 61.3334 230.444 60.1978 231.073 58.9624C231.703 57.7194 232.62 56.695 233.824 55.8894C235.037 55.0837 236.402 54.6809 237.922 54.6809C240.047 54.6809 241.8 55.4405 243.181 56.9598C244.57 58.479 245.265 60.2131 245.265 62.162C245.265 64.2337 244.497 66.0944 242.963 67.7441C241.428 69.3862 239.583 70.2072 237.427 70.2072C235.363 70.2072 233.629 69.4859 232.224 68.0434C230.828 66.6009 230.13 64.7095 230.13 62.3692ZM232.696 62.0009C232.696 63.2516 232.888 64.5368 233.272 65.8566C233.655 67.1687 234.258 68.124 235.079 68.7224C235.9 69.3133 236.778 69.6087 237.714 69.6087C239.226 69.6087 240.434 68.8759 241.34 67.4104C242.253 65.9372 242.71 64.2337 242.71 62.3002C242.71 60.4279 242.245 58.7859 241.317 57.3741C240.388 55.9546 239.176 55.2448 237.68 55.2448C236.552 55.2448 235.612 55.6247 234.86 56.3843C234.108 57.1362 233.559 58.0378 233.214 59.089C232.869 60.1402 232.696 61.1108 232.696 62.0009ZM259.824 70.0575C259.448 70.0729 259.233 70.0806 259.18 70.0806C258.896 70.0806 258.382 70.0652 257.637 70.0345C256.893 70.0115 255.347 70 252.999 70H250.076C249.968 70 249.577 70.0153 248.902 70.046C248.226 70.0844 247.816 70.1036 247.67 70.1036C247.087 70.1036 246.795 70.0269 246.795 69.8734C246.795 69.7506 246.911 69.6854 247.141 69.6777C247.885 69.6317 248.403 69.4744 248.694 69.2058C248.986 68.9296 249.186 68.5383 249.293 68.0319C249.4 67.5178 249.454 66.1366 249.454 63.8885L249.466 59.7681C249.466 58.433 249.404 57.5007 249.281 56.9713C249.166 56.4418 248.921 56.039 248.545 55.7628C248.177 55.4789 247.758 55.3177 247.29 55.2794C247.045 55.2563 246.922 55.1758 246.922 55.0377C246.922 54.8996 247.033 54.8305 247.256 54.8305C247.31 54.8305 247.409 54.8343 247.555 54.842C248.775 54.9111 250.202 54.9456 251.837 54.9456L253.862 54.9111C254.069 54.9111 254.173 54.9878 254.173 55.1413C254.173 55.2794 254.062 55.3484 253.839 55.3484C253.294 55.3484 252.838 55.4558 252.47 55.6707C252.109 55.8855 251.867 56.1349 251.744 56.4188C251.629 56.695 251.572 57.2398 251.572 58.0532L251.48 63.4971L251.503 66.5356C251.503 67.4794 251.541 68.0933 251.618 68.3772C251.702 68.6611 251.871 68.9181 252.124 69.1483C252.378 69.3708 252.838 69.4821 253.505 69.4821C253.559 69.4821 254.246 69.4591 255.566 69.413C256.617 69.2672 257.561 68.7531 258.397 67.8707C259.233 66.9884 259.79 66.198 260.066 65.4998C260.15 65.3003 260.254 65.2005 260.377 65.2005C260.507 65.2005 260.572 65.2926 260.572 65.4768C260.572 65.6916 260.461 66.4628 260.238 67.7902C260.016 69.1099 259.878 69.8657 259.824 70.0575ZM261.228 62.3692C261.228 61.3334 261.543 60.1978 262.172 58.9624C262.801 57.7194 263.718 56.695 264.923 55.8894C266.135 55.0837 267.501 54.6809 269.02 54.6809C271.146 54.6809 272.899 55.4405 274.28 56.9598C275.669 58.479 276.363 60.2131 276.363 62.162C276.363 64.2337 275.596 66.0944 274.061 67.7441C272.527 69.3862 270.681 70.2072 268.525 70.2072C266.461 70.2072 264.727 69.4859 263.323 68.0434C261.927 66.6009 261.228 64.7095 261.228 62.3692ZM263.795 62.0009C263.795 63.2516 263.987 64.5368 264.37 65.8566C264.754 67.1687 265.356 68.124 266.177 68.7224C266.998 69.3133 267.877 69.6087 268.813 69.6087C270.325 69.6087 271.533 68.8759 272.439 67.4104C273.352 65.9372 273.808 64.2337 273.808 62.3002C273.808 60.4279 273.344 58.7859 272.416 57.3741C271.487 55.9546 270.275 55.2448 268.779 55.2448C267.651 55.2448 266.711 55.6247 265.959 56.3843C265.207 57.1362 264.658 58.0378 264.313 59.089C263.968 60.1402 263.795 61.1108 263.795 62.0009ZM292.971 59.7681C292.872 59.7681 292.768 59.6453 292.661 59.3998C292.032 58.0186 291.199 56.9521 290.163 56.2001C289.135 55.4482 288.038 55.0722 286.871 55.0722C285.912 55.0722 284.984 55.3638 284.086 55.9469C283.188 56.5224 282.456 57.4163 281.888 58.6286C281.32 59.8333 281.036 61.1185 281.036 62.4843C281.036 64.4332 281.619 66.1175 282.786 67.537C283.952 68.9565 285.41 69.6662 287.159 69.6662C287.781 69.6662 288.31 69.5703 288.747 69.3785C289.185 69.1867 289.595 68.9104 289.979 68.5498C290.37 68.1892 290.604 67.9206 290.681 67.7441C290.765 67.5677 290.808 67.1034 290.808 66.3515C290.808 65.0931 290.639 64.2644 290.301 63.8654C289.971 63.4664 289.438 63.2669 288.701 63.2669L288.345 63.2785C288.122 63.2785 288.011 63.2056 288.011 63.0598C288.011 62.8833 288.134 62.7951 288.379 62.7951L288.989 62.8181L291.59 62.7836L294.778 62.7145C294.955 62.7145 295.043 62.7951 295.043 62.9562C295.043 63.1173 294.943 63.2056 294.744 63.2209C294.268 63.2669 293.881 63.3705 293.581 63.5317C293.282 63.6928 293.098 63.877 293.029 64.0841C292.96 64.2913 292.925 64.6404 292.925 65.1315C292.925 66.927 292.883 67.9129 292.799 68.0894C292.714 68.2659 292.001 68.6687 290.658 69.2979C289.315 69.9271 287.965 70.2417 286.607 70.2417C284.359 70.2417 282.436 69.5204 280.84 68.0779C279.244 66.6354 278.447 64.8092 278.447 62.5994C278.447 61.0801 278.822 59.7067 279.574 58.479C280.334 57.2437 281.37 56.2884 282.682 55.6131C283.994 54.9302 285.329 54.5888 286.687 54.5888C287.961 54.5888 289.334 54.9533 290.808 55.6822C291.222 55.8894 291.514 55.993 291.682 55.993C291.92 55.993 292.104 55.8894 292.235 55.6822C292.35 55.5057 292.454 55.4175 292.546 55.4175C292.722 55.4175 292.826 55.64 292.856 56.085C292.902 56.7833 293.014 57.8498 293.19 59.2847C293.206 59.3614 293.213 59.4305 293.213 59.4918C293.213 59.676 293.133 59.7681 292.971 59.7681ZM304.504 62.1275C304.934 61.6518 305.586 60.7924 306.461 59.5494C307.343 58.3064 307.861 57.5352 308.014 57.236C308.176 56.9291 308.256 56.6874 308.256 56.5109C308.256 56.1963 308.095 55.9469 307.773 55.7628C307.458 55.5709 307.136 55.475 306.806 55.475C306.545 55.475 306.415 55.406 306.415 55.2679C306.415 55.1221 306.633 55.0492 307.071 55.0492H311.41C311.809 55.0492 312.008 55.1297 312.008 55.2909C312.008 55.4213 311.92 55.4865 311.743 55.4865C311.291 55.4865 310.853 55.5901 310.431 55.7973C310.017 56.0045 309.511 56.4687 308.912 57.1899L306.909 59.8947C305.858 61.3065 305.29 62.1352 305.206 62.3807C305.083 62.7413 305.022 63.6966 305.022 65.2466C305.022 67.3029 305.106 68.5229 305.275 68.9066C305.452 69.2902 306.012 69.5243 306.956 69.6087C307.201 69.6317 307.324 69.7084 307.324 69.8389C307.324 69.9923 307.19 70.0691 306.921 70.0691L303.825 70C303.081 70 302.471 70.0153 301.995 70.046C301.611 70.0767 301.366 70.0921 301.258 70.0921C300.967 70.0921 300.821 70.0153 300.821 69.8619C300.821 69.7391 300.928 69.6739 301.143 69.6662C301.88 69.6355 302.371 69.3593 302.616 68.8375C302.862 68.3158 302.985 67.5446 302.985 66.5241C302.985 65.4039 302.916 64.4985 302.778 63.8079C302.747 63.6314 302.417 63.0061 301.788 61.9318C301.159 60.85 300.387 59.6568 299.474 58.3524C298.569 57.0403 297.921 56.2423 297.529 55.9584C297.138 55.6745 296.758 55.5172 296.39 55.4865C296.114 55.4635 295.975 55.3868 295.975 55.2563C295.975 55.1719 296.01 55.1182 296.079 55.0952C296.156 55.0645 296.374 55.0492 296.735 55.0492H301.765C302.11 55.0492 302.317 55.0607 302.386 55.0837C302.455 55.1067 302.49 55.1681 302.49 55.2679C302.49 55.3906 302.394 55.4597 302.202 55.475C301.235 55.5518 300.752 55.8433 300.752 56.3497C300.752 56.6106 300.928 57.0211 301.281 57.5813C301.634 58.1414 302.709 59.6568 304.504 62.1275Z" fill="#800000"/>
<defs>
<filter id="filter0_d_471_8386" x="0" y="0" width="352.801" height="148.199" filterUnits="userSpaceOnUse" color-interpolation-filters="sRGB">
<feFlood flood-opacity="0" result="BackgroundImageFix"/>
<feColorMatrix in="SourceAlpha" type="matrix" values="0 0 0 0 0 0 0 0 0 0 0 0 0 0 0 0 0 0 127 0" result="hardAlpha"/>
<feOffset dy="4"/>
<feGaussianBlur stdDeviation="3.5"/>
<feColorMatrix type="matrix" values="0 0 0 0 0.45098 0 0 0 0 0.45098 0 0 0 0 0.45098 0 0 0 0.231889 0"/>
<feBlend mode="normal" in2="BackgroundImageFix" result="effect1_dropShadow_471_8386"/>
<feBlend mode="normal" in="SourceGraphic" in2="effect1_dropShadow_471_8386" result="shape"/>
</filter>
</defs>
</svg>
