<svg width="40" height="40" viewBox="0 0 40 40" fill="none"
    xmlns="http://www.w3.org/2000/svg">
    <g clip-path="url(#clip0_471_8853)">
        <path d="M37.5 3.74512L27.4912 3.74516V1.25391C27.4912 0.563281 26.9319 0.00390625 26.2412 0.00390625C25.5506 0.00390625 24.9912 0.563281 24.9912 1.25391V3.74453H14.9913V1.25391C14.9913 0.563281 14.4319 0.00390625 13.7413 0.00390625C13.0506 0.00390625 12.4913 0.563281 12.4913 1.25391V3.74453H2.5C1.11937 3.74453 0 4.86391 0 6.24453V37.4945C0 38.8751 1.11937 39.9945 2.5 39.9945H37.5C38.8806 39.9945 40 38.8751 40 37.4945V6.24453C40 4.86449 38.8806 3.74512 37.5 3.74512ZM37.5 37.4945H2.5V6.24453H12.4913V7.50391C12.4913 8.19449 13.0506 8.75391 13.7413 8.75391C14.4319 8.75391 14.9913 8.19449 14.9913 7.50391V6.24516H24.9912V7.50453C24.9912 8.19516 25.5506 8.75453 26.2412 8.75453C26.9319 8.75453 27.4912 8.19516 27.4912 7.50453V6.24516H37.5V37.4945ZM28.75 19.9951H31.25C31.94 19.9951 32.5 19.4351 32.5 18.7451V16.2451C32.5 15.5551 31.94 14.9951 31.25 14.9951H28.75C28.06 14.9951 27.5 15.5551 27.5 16.2451V18.7451C27.5 19.4351 28.06 19.9951 28.75 19.9951ZM28.75 29.9945H31.25C31.94 29.9945 32.5 29.4351 32.5 28.7445V26.2445C32.5 25.5545 31.94 24.9945 31.25 24.9945H28.75C28.06 24.9945 27.5 25.5545 27.5 26.2445V28.7445C27.5 29.4357 28.06 29.9945 28.75 29.9945ZM21.25 24.9945H18.75C18.06 24.9945 17.5 25.5545 17.5 26.2445V28.7445C17.5 29.4351 18.06 29.9945 18.75 29.9945H21.25C21.94 29.9945 22.5 29.4351 22.5 28.7445V26.2445C22.5 25.5551 21.94 24.9945 21.25 24.9945ZM21.25 14.9951H18.75C18.06 14.9951 17.5 15.5551 17.5 16.2451V18.7451C17.5 19.4351 18.06 19.9951 18.75 19.9951H21.25C21.94 19.9951 22.5 19.4351 22.5 18.7451V16.2451C22.5 15.5545 21.94 14.9951 21.25 14.9951ZM11.25 14.9951H8.75C8.06 14.9951 7.5 15.5551 7.5 16.2451V18.7451C7.5 19.4351 8.06 19.9951 8.75 19.9951H11.25C11.94 19.9951 12.5 19.4351 12.5 18.7451V16.2451C12.5 15.5545 11.94 14.9951 11.25 14.9951ZM11.25 24.9945H8.75C8.06 24.9945 7.5 25.5545 7.5 26.2445V28.7445C7.5 29.4351 8.06 29.9945 8.75 29.9945H11.25C11.94 29.9945 12.5 29.4351 12.5 28.7445V26.2445C12.5 25.5551 11.94 24.9945 11.25 24.9945Z" fill="#800000"/>
    </g>
    <defs>
        <clipPath id="clip0_471_8853">
            <rect width="40" height="40" fill="white"/>
        </clipPath>
    </defs>
</svg>
