<svg width="26" height="27" viewBox="0 0 26 27" fill="none" xmlns="http://www.w3.org/2000/svg">
<path d="M4.32016 22.3123C3.72616 22.3123 3.21748 22.1022 2.79412 21.6819C2.37076 21.2615 2.15944 20.7569 2.16016 20.1678V7.30076C2.16016 6.71102 2.37184 6.20599 2.7952 5.78567C3.21856 5.36534 3.72688 5.15554 4.32016 5.15625H21.6002C22.1942 5.15625 22.7028 5.36641 23.1262 5.78674C23.5496 6.20706 23.7609 6.71174 23.7602 7.30076V20.1678C23.7602 20.7576 23.5485 21.2626 23.1251 21.6829C22.7018 22.1032 22.1934 22.3131 21.6002 22.3123H4.32016ZM21.6002 9.44527L13.5272 14.4581C13.4372 14.5117 13.3425 14.5521 13.2431 14.5792C13.1438 14.6064 13.0494 14.6196 12.9602 14.6189C12.8702 14.6189 12.7755 14.6057 12.6761 14.5792C12.5768 14.5528 12.4824 14.5124 12.3932 14.4581L4.32016 9.44527V20.1678H21.6002V9.44527ZM12.9602 12.662L21.6002 7.30076H4.32016L12.9602 12.662ZM4.32016 9.71334V8.13176V8.15857V8.1457V9.71334Z" fill="#800000"/>
</svg>
