<svg width="22" height="18" viewBox="0 0 22 18" fill="none" xmlns="http://www.w3.org/2000/svg">
<path d="M2.32016 17.3123C1.72616 17.3123 1.21748 17.1022 0.794118 16.6819C0.370758 16.2615 0.159438 15.7569 0.160158 15.1678V2.30076C0.160158 1.71102 0.371838 1.20599 0.795198 0.785666C1.21856 0.365341 1.72688 0.155537 2.32016 0.156252H19.6002C20.1942 0.156252 20.7028 0.366414 21.1262 0.786738C21.5496 1.20706 21.7609 1.71174 21.7602 2.30076V15.1678C21.7602 15.7576 21.5485 16.2626 21.1251 16.6829C20.7018 17.1032 20.1934 17.3131 19.6002 17.3123H2.32016ZM19.6002 4.44527L11.5272 9.45807C11.4372 9.51168 11.3425 9.55207 11.2431 9.57923C11.1438 9.6064 11.0494 9.61962 10.9602 9.61891C10.8702 9.61891 10.7755 9.60568 10.6761 9.57923C10.5768 9.55278 10.4824 9.51239 10.3932 9.45807L2.32016 4.44527V15.1678H19.6002V4.44527ZM10.9602 7.66204L19.6002 2.30076H2.32016L10.9602 7.66204ZM2.32016 4.71334V3.13176V3.15857V3.1457V4.71334Z" fill="#800000"/>
</svg>
