<svg width="162" height="162" viewBox="0 0 162 162" fill="none" xmlns="http://www.w3.org/2000/svg">
<path fill-rule="evenodd" clip-rule="evenodd" d="M161.5 80.55C161.5 125.037 125.437 161.1 80.9504 161.1C36.4639 161.1 0.400391 125.037 0.400391 80.55C0.400391 36.0635 36.4639 0 80.9504 0C125.437 0 161.5 36.0635 161.5 80.55ZM80.9504 156.948C123.144 156.948 157.348 122.743 157.348 80.55C157.348 38.3566 123.144 4.15206 80.9504 4.15206C38.757 4.15206 4.55243 38.3566 4.55243 80.55C4.55243 122.743 38.757 156.948 80.9504 156.948Z" fill="url(#paint0_linear_454_17537)"/>
<circle opacity="0.2" cx="82.3012" cy="81.9008" r="75.6" fill="url(#paint1_linear_454_17537)"/>
<path d="M130.451 130.051C109.104 130.051 80.9512 142.426 80.9512 142.426V74.3633C80.9512 74.3633 108.795 61.9883 136.639 61.9883L130.451 130.051Z" fill="url(#paint2_linear_454_17537)"/>
<path d="M31.4512 130.051C52.798 130.051 80.9512 142.426 80.9512 142.426V74.3633C80.9512 74.3633 53.1074 61.9883 25.2637 61.9883L31.4512 130.051Z" fill="url(#paint3_linear_454_17537)"/>
<path d="M80.9512 68.1758C94.6202 68.1758 105.701 57.0948 105.701 43.4258C105.701 29.7567 94.6202 18.6758 80.9512 18.6758C67.2821 18.6758 56.2012 29.7567 56.2012 43.4258C56.2012 57.0948 67.2821 68.1758 80.9512 68.1758Z" fill="#FFB74D"/>
<path d="M133.545 105.301H136.639C138.495 105.301 139.732 104.063 139.732 102.207V89.832C139.732 87.9758 138.495 86.7383 136.639 86.7383H133.545C128.286 86.7383 124.264 90.7602 124.264 96.0195C124.264 101.279 128.286 105.301 133.545 105.301ZM28.3574 86.7383H25.2637C23.4074 86.7383 22.1699 87.9758 22.1699 89.832V102.207C22.1699 104.063 23.4074 105.301 25.2637 105.301H28.3574C33.6168 105.301 37.6387 101.279 37.6387 96.0195C37.6387 90.7602 33.6168 86.7383 28.3574 86.7383Z" fill="#FFB74D"/>
<defs>
<linearGradient id="paint0_linear_454_17537" x1="26.5004" y1="21.6" x2="139" y2="138.6" gradientUnits="userSpaceOnUse">
<stop stop-color="#F26921"/>
<stop offset="1" stop-color="#ED1065"/>
</linearGradient>
<linearGradient id="paint1_linear_454_17537" x1="7.98703" y1="36.6299" x2="172.322" y2="124.504" gradientUnits="userSpaceOnUse">
<stop stop-color="#F26921"/>
<stop offset="1" stop-color="#ED1065"/>
</linearGradient>
<linearGradient id="paint2_linear_454_17537" x1="81.4248" y1="78.1232" x2="149.875" y2="103.463" gradientUnits="userSpaceOnUse">
<stop stop-color="#F26921"/>
<stop offset="1" stop-color="#ED1065"/>
</linearGradient>
<linearGradient id="paint3_linear_454_17537" x1="25.7373" y1="78.1232" x2="94.1879" y2="103.463" gradientUnits="userSpaceOnUse">
<stop stop-color="#F26921"/>
<stop offset="1" stop-color="#ED1065"/>
</linearGradient>
</defs>
</svg>
