<svg width="162" height="162" viewBox="0 0 162 162" fill="none" xmlns="http://www.w3.org/2000/svg">
<path fill-rule="evenodd" clip-rule="evenodd" d="M161.401 80.55C161.401 125.037 125.337 161.1 80.8508 161.1C36.3642 161.1 0.300781 125.037 0.300781 80.55C0.300781 36.0635 36.3642 0 80.8508 0C125.337 0 161.401 36.0635 161.401 80.55ZM80.8508 156.948C123.044 156.948 157.249 122.743 157.249 80.55C157.249 38.3566 123.044 4.15206 80.8508 4.15206C38.6574 4.15206 4.45286 38.3566 4.45286 80.55C4.45286 122.743 38.6574 156.948 80.8508 156.948Z" fill="url(#paint0_linear_454_17548)"/>
<circle opacity="0.2" cx="82.2016" cy="81.9008" r="75.6" fill="url(#paint1_linear_454_17548)"/>
<g clip-path="url(#clip0_454_17548)">
<path d="M127.031 93.4884C127.038 90.2497 126.234 87.0608 124.692 84.2125C123.151 81.3641 120.921 78.9469 118.206 77.1811C115.491 75.4152 112.377 74.357 109.148 74.1028C105.919 73.8486 102.678 74.4066 99.7204 75.7258C96.7625 77.045 94.1818 79.0836 92.2135 81.6556C90.2453 84.2277 88.952 87.2514 88.4517 90.4513C87.9514 93.6512 88.2599 96.9254 89.349 99.9755C90.4382 103.026 92.2735 105.755 94.6875 107.914V132.301L107.625 126.175L120.562 132.301V107.914C122.596 106.1 124.223 103.878 125.338 101.392C126.453 98.9063 127.03 96.2129 127.031 93.4884ZM114.094 122.08L107.625 119.017L101.156 122.08V111.763C105.337 113.272 109.913 113.272 114.094 111.763V122.08ZM107.625 106.426C105.066 106.426 102.565 105.667 100.437 104.246C98.3097 102.824 96.6515 100.803 95.6723 98.4394C94.6931 96.0754 94.4369 93.4741 94.9361 90.9645C95.4353 88.4548 96.6674 86.1496 98.4768 84.3402C100.286 82.5309 102.591 81.2987 105.101 80.7995C107.611 80.3003 110.212 80.5565 112.576 81.5357C114.94 82.515 116.961 84.1732 118.382 86.3008C119.804 88.4283 120.562 90.9296 120.562 93.4884C120.558 96.9184 119.194 100.207 116.768 102.632C114.343 105.057 111.055 106.422 107.625 106.426Z" fill="url(#paint2_linear_454_17548)"/>
<path d="M110.859 44.9727H101.156V41.7383C101.151 40.0242 100.468 38.3819 99.2559 37.1698C98.0439 35.9578 96.4015 35.2747 94.6875 35.2695H68.8125C67.0985 35.2747 65.4561 35.9578 64.2441 37.1698C63.032 38.3819 62.3489 40.0242 62.3438 41.7383V44.9727H52.6406C50.9266 44.9778 49.2842 45.6609 48.0722 46.873C46.8602 48.085 46.177 49.7274 46.1719 51.4414V119.363C46.177 121.077 46.8602 122.72 48.0722 123.932C49.2842 125.144 50.9266 125.827 52.6406 125.832H81.75V119.363H52.6406V51.4414H62.3438V61.1445H101.156V51.4414H110.859V67.6133H117.328V51.4414C117.323 49.7274 116.64 48.085 115.428 46.873C114.216 45.6609 112.573 44.9778 110.859 44.9727ZM94.6875 54.6758H68.8125V41.7383H94.6875V54.6758Z" fill="url(#paint3_linear_454_17548)"/>
</g>
<defs>
<linearGradient id="paint0_linear_454_17548" x1="26.4008" y1="21.6" x2="138.901" y2="138.6" gradientUnits="userSpaceOnUse">
<stop stop-color="#F26921"/>
<stop offset="1" stop-color="#ED1065"/>
</linearGradient>
<linearGradient id="paint1_linear_454_17548" x1="7.88742" y1="36.6299" x2="172.223" y2="124.504" gradientUnits="userSpaceOnUse">
<stop stop-color="#F26921"/>
<stop offset="1" stop-color="#ED1065"/>
</linearGradient>
<linearGradient id="paint2_linear_454_17548" x1="88.5488" y1="85.7289" x2="136.686" y2="102.877" gradientUnits="userSpaceOnUse">
<stop stop-color="#F26921"/>
<stop offset="1" stop-color="#ED1065"/>
</linearGradient>
<linearGradient id="paint3_linear_454_17548" x1="46.777" y1="53.4354" x2="131.307" y2="88.9499" gradientUnits="userSpaceOnUse">
<stop stop-color="#F26921"/>
<stop offset="1" stop-color="#ED1065"/>
</linearGradient>
<clipPath id="clip0_454_17548">
<rect width="103.5" height="103.5" fill="white" transform="translate(30 28.8008)"/>
</clipPath>
</defs>
</svg>
