<svg width="162" height="162" viewBox="0 0 162 162" fill="none" xmlns="http://www.w3.org/2000/svg">
<g clip-path="url(#clip0_454_17556)">
<path d="M59.1648 41.7282C61.5449 41.7282 63.4742 39.7988 63.4742 37.4188C63.4742 35.0388 61.5449 33.1094 59.1648 33.1094C56.7848 33.1094 54.8555 35.0388 54.8555 37.4188C54.8555 39.7988 56.7848 41.7282 59.1648 41.7282Z" fill="url(#paint0_linear_454_17556)"/>
<path d="M41.9285 58.9664C44.3085 58.9664 46.2379 57.0371 46.2379 54.657C46.2379 52.277 44.3085 50.3477 41.9285 50.3477C39.5485 50.3477 37.6191 52.277 37.6191 54.657C37.6191 57.0371 39.5485 58.9664 41.9285 58.9664Z" fill="url(#paint1_linear_454_17556)"/>
<path d="M41.9285 110.679C44.3085 110.679 46.2379 108.75 46.2379 106.37C46.2379 103.99 44.3085 102.061 41.9285 102.061C39.5485 102.061 37.6191 103.99 37.6191 106.37C37.6191 108.75 39.5485 110.679 41.9285 110.679Z" fill="url(#paint2_linear_454_17556)"/>
<path d="M59.1648 127.918C61.5449 127.918 63.4742 125.988 63.4742 123.608C63.4742 121.228 61.5449 119.299 59.1648 119.299C56.7848 119.299 54.8555 121.228 54.8555 123.608C54.8555 125.988 56.7848 127.918 59.1648 127.918Z" fill="url(#paint3_linear_454_17556)"/>
<path d="M33.3094 84.8219C35.6894 84.8219 37.6188 82.8925 37.6188 80.5125C37.6188 78.1325 35.6894 76.2031 33.3094 76.2031C30.9294 76.2031 29 78.1325 29 80.5125C29 82.8925 30.9294 84.8219 33.3094 84.8219Z" fill="url(#paint4_linear_454_17556)"/>
</g>
<path d="M80.8566 35.6233C83.501 35.6233 85.6448 33.4795 85.6448 30.8351C85.6448 28.1906 83.501 26.0469 80.8566 26.0469C78.2121 26.0469 76.0684 28.1906 76.0684 30.8351C76.0684 33.4795 78.2121 35.6233 80.8566 35.6233Z" fill="url(#paint5_linear_454_17556)"/>
<path d="M104.798 40.4123C107.442 40.4123 109.586 38.2686 109.586 35.6241C109.586 32.9797 107.442 30.8359 104.798 30.8359C102.154 30.8359 100.01 32.9797 100.01 35.6241C100.01 38.2686 102.154 40.4123 104.798 40.4123Z" fill="url(#paint6_linear_454_17556)"/>
<path d="M123.952 59.5647C126.597 59.5647 128.74 57.4209 128.74 54.7765C128.74 52.132 126.597 49.9883 123.952 49.9883C121.308 49.9883 119.164 52.132 119.164 54.7765C119.164 57.4209 121.308 59.5647 123.952 59.5647Z" fill="url(#paint7_linear_454_17556)"/>
<path d="M107.192 140.964L106.622 140.825C98.0647 138.525 90.4743 133.534 84.9722 126.589C79.4702 119.643 76.3485 111.112 76.0684 102.256V82.0592L107.192 69.1406L138.315 82.0592V102.256C138.035 111.112 134.913 119.643 129.411 126.589C123.909 133.534 116.319 138.525 107.761 140.825L107.192 140.964ZM85.6448 87.647V102.73C85.7943 109.144 87.9546 115.35 91.8207 120.47C95.6868 125.59 101.063 129.367 107.192 131.268C113.32 129.367 118.697 125.59 122.563 120.47C126.429 115.35 128.589 109.144 128.739 102.73V87.647L107.192 79.0618L85.6448 87.647Z" fill="url(#paint8_linear_454_17556)"/>
<path d="M80.8566 140.963C83.501 140.963 85.6448 138.819 85.6448 136.175C85.6448 133.53 83.501 131.387 80.8566 131.387C78.2121 131.387 76.0684 133.53 76.0684 136.175C76.0684 138.819 78.2121 140.963 80.8566 140.963Z" fill="url(#paint9_linear_454_17556)"/>
<path d="M73.197 75.8437C74.2121 75.8411 75.185 75.4368 75.9028 74.7189C76.6206 74.0011 77.025 73.0283 77.0275 72.0131V64.352H84.6886C86.6319 64.3437 88.4994 63.5971 89.9129 62.2636C91.3265 60.9301 92.1804 59.1092 92.3019 57.1697C96.7463 59.1375 100.622 62.196 103.569 66.0614L109.587 63.5524L114.759 65.7071C111.732 59.9294 107.281 55.0204 101.826 51.4456C96.3704 47.8708 90.0925 45.7487 83.5872 45.2805C77.0819 44.8122 70.5648 46.0134 64.6538 48.77C58.7429 51.5267 53.634 55.7475 49.8117 61.0323C45.9894 66.317 43.5803 72.4904 42.8129 78.9673C42.0455 85.4441 42.9451 92.0096 45.4265 98.0413C47.908 104.073 51.8889 109.371 56.992 113.433C62.095 117.494 68.1509 120.185 74.5855 121.25C73.2275 117.862 72.2791 114.324 71.7605 110.711C65.1756 108.547 59.603 104.061 56.0831 98.0901C52.5632 92.119 51.3364 85.071 52.6316 78.2617L69.3664 94.9965V98.827C69.3753 100.672 70.0562 102.451 71.2817 103.831V83.5048H65.5358V75.8437H73.197Z" fill="url(#paint10_linear_454_17556)"/>
<path fill-rule="evenodd" clip-rule="evenodd" d="M161.299 80.55C161.299 125.037 125.236 161.1 80.7492 161.1C36.2627 161.1 0.199219 125.037 0.199219 80.55C0.199219 36.0635 36.2627 0 80.7492 0C125.236 0 161.299 36.0635 161.299 80.55ZM80.7491 156.948C122.943 156.948 157.147 122.743 157.147 80.5501C157.147 38.3567 122.943 4.15213 80.7491 4.15213C38.5557 4.15213 4.35116 38.3567 4.35116 80.5501C4.35116 122.743 38.5557 156.948 80.7491 156.948Z" fill="url(#paint11_linear_454_17556)"/>
<ellipse opacity="0.2" cx="82.2552" cy="82.0303" rx="75.8451" ry="75.2705" fill="url(#paint12_linear_454_17556)"/>
<defs>
<linearGradient id="paint0_linear_454_17556" x1="54.9288" y1="34.8382" x2="64.2963" y2="39.8472" gradientUnits="userSpaceOnUse">
<stop stop-color="#F26921"/>
<stop offset="1" stop-color="#ED1065"/>
</linearGradient>
<linearGradient id="paint1_linear_454_17556" x1="37.6924" y1="52.0765" x2="47.06" y2="57.0855" gradientUnits="userSpaceOnUse">
<stop stop-color="#F26921"/>
<stop offset="1" stop-color="#ED1065"/>
</linearGradient>
<linearGradient id="paint2_linear_454_17556" x1="37.6924" y1="103.789" x2="47.06" y2="108.798" gradientUnits="userSpaceOnUse">
<stop stop-color="#F26921"/>
<stop offset="1" stop-color="#ED1065"/>
</linearGradient>
<linearGradient id="paint3_linear_454_17556" x1="54.9288" y1="121.028" x2="64.2963" y2="126.037" gradientUnits="userSpaceOnUse">
<stop stop-color="#F26921"/>
<stop offset="1" stop-color="#ED1065"/>
</linearGradient>
<linearGradient id="paint4_linear_454_17556" x1="29.0733" y1="77.932" x2="38.4408" y2="82.941" gradientUnits="userSpaceOnUse">
<stop stop-color="#F26921"/>
<stop offset="1" stop-color="#ED1065"/>
</linearGradient>
<linearGradient id="paint5_linear_454_17556" x1="76.1498" y1="27.9678" x2="86.5581" y2="33.5334" gradientUnits="userSpaceOnUse">
<stop stop-color="#F26921"/>
<stop offset="1" stop-color="#ED1065"/>
</linearGradient>
<linearGradient id="paint6_linear_454_17556" x1="100.091" y1="32.7569" x2="110.5" y2="38.3224" gradientUnits="userSpaceOnUse">
<stop stop-color="#F26921"/>
<stop offset="1" stop-color="#ED1065"/>
</linearGradient>
<linearGradient id="paint7_linear_454_17556" x1="119.246" y1="51.9092" x2="129.654" y2="57.4748" gradientUnits="userSpaceOnUse">
<stop stop-color="#F26921"/>
<stop offset="1" stop-color="#ED1065"/>
</linearGradient>
<linearGradient id="paint8_linear_454_17556" x1="76.5977" y1="83.5476" x2="148.215" y2="116.737" gradientUnits="userSpaceOnUse">
<stop stop-color="#F26921"/>
<stop offset="1" stop-color="#ED1065"/>
</linearGradient>
<linearGradient id="paint9_linear_454_17556" x1="76.1498" y1="133.308" x2="86.5581" y2="138.873" gradientUnits="userSpaceOnUse">
<stop stop-color="#F26921"/>
<stop offset="1" stop-color="#ED1065"/>
</linearGradient>
<linearGradient id="paint10_linear_454_17556" x1="43.161" y1="60.4402" x2="123.41" y2="101.175" gradientUnits="userSpaceOnUse">
<stop stop-color="#F26921"/>
<stop offset="1" stop-color="#ED1065"/>
</linearGradient>
<linearGradient id="paint11_linear_454_17556" x1="26.2992" y1="21.6" x2="138.799" y2="138.6" gradientUnits="userSpaceOnUse">
<stop stop-color="#F26921"/>
<stop offset="1" stop-color="#ED1065"/>
</linearGradient>
<linearGradient id="paint12_linear_454_17556" x1="7.70018" y1="36.9567" x2="172.008" y2="125.487" gradientUnits="userSpaceOnUse">
<stop stop-color="#F26921"/>
<stop offset="1" stop-color="#ED1065"/>
</linearGradient>
<clipPath id="clip0_454_17556">
<rect width="103.425" height="103.425" fill="white" transform="translate(29 28.8008)"/>
</clipPath>
</defs>
</svg>
