<svg width="23" height="23" viewBox="0 0 23 23" fill="none" xmlns="http://www.w3.org/2000/svg">
<path d="M11.8938 8.51875C11.7813 8.40625 11.65 8.35 11.5 8.35C11.35 8.35 11.2187 8.40625 11.1062 8.51875L7.95625 11.6687C7.7875 11.8375 7.74513 12.0389 7.82913 12.2729C7.91313 12.5069 8.08675 12.6243 8.35 12.625H14.65C14.9125 12.625 15.0858 12.5076 15.1698 12.2729C15.2538 12.0381 15.2117 11.8367 15.0437 11.6687L11.8938 8.51875ZM11.5 0.25C13.0562 0.25 14.5187 0.5455 15.8875 1.1365C17.2562 1.7275 18.4469 2.52887 19.4594 3.54062C20.4719 4.55312 21.2732 5.74375 21.8635 7.1125C22.4537 8.48125 22.7493 9.94375 22.75 11.5C22.75 13.0562 22.4545 14.5187 21.8635 15.8875C21.2725 17.2562 20.4711 18.4469 19.4594 19.4594C18.4469 20.4719 17.2562 21.2732 15.8875 21.8635C14.5187 22.4537 13.0562 22.7493 11.5 22.75C9.94375 22.75 8.48125 22.4545 7.1125 21.8635C5.74375 21.2725 4.55312 20.4711 3.54062 19.4594C2.52812 18.4469 1.72638 17.2562 1.13538 15.8875C0.544376 14.5187 0.24925 13.0562 0.25 11.5C0.25 9.94375 0.5455 8.48125 1.1365 7.1125C1.7275 5.74375 2.52887 4.55312 3.54062 3.54062C4.55312 2.52812 5.74375 1.72638 7.1125 1.13538C8.48125 0.544376 9.94375 0.24925 11.5 0.25Z" fill="#800000"/>
</svg>
